0
SECTION
2
HEADER
9
$INSUNITS
70
4
9
$ACADVER
1
AC1014
9
$HANDSEED
5
FFFF
0
ENDSEC
0
SECTION
2
TABLES
0
TABLE
2
VPORT
5
8
100
AcDbSymbolTable
0
ENDTAB
0
TABLE
2
LTYPE
5
5
100
AcDbSymbolTable
0
LTYPE
5
14
100
AcDbSymbolTableRecord
100
AcDbLinetypeTableRecord
2
BYBLOCK
70
0
0
LTYPE
5
15
100
AcDbSymbolTableRecord
100
AcDbLinetypeTableRecord
2
BYLAYER
70
0
0
ENDTAB
0
TABLE
2
LAYER
5
2
100
AcDbSymbolTable
70
2
0
LAYER
5
50
100
AcDbSymbolTableRecord
100
AcDbLayerTableRecord
2
0
70
0
6
CONTINUOUS
0
ENDTAB
0
TABLE
2
STYLE
5
3
100
AcDbSymbolTable
70
1
0
STYLE
5
11
100
AcDbSymbolTableRecord
100
AcDbTextStyleTableRecord
2
STANDARD
70
0
0
ENDTAB
0
TABLE
2
VIEW
5
6
100
AcDbSymbolTable
70
0
0
ENDTAB
0
TABLE
2
UCS
5
7
100
AcDbSymbolTable
70
0
0
ENDTAB
0
TABLE
2
APPID
5
9
100
AcDbSymbolTable
70
2
0
APPID
5
12
100
AcDbSymbolTableRecord
100
AcDbRegAppTableRecord
2
ACAD
70
0
0
ENDTAB
0
TABLE
2
DIMSTYLE
5
A
100
AcDbSymbolTable
70
1
0
ENDTAB
0
TABLE
2
BLOCK_RECORD
5
1
100
AcDbSymbolTable
70
1
0
BLOCK_RECORD
5
1F
100
AcDbSymbolTableRecord
100
AcDbBlockTableRecord
2
*MODEL_SPACE
0
BLOCK_RECORD
5
1B
100
AcDbSymbolTableRecord
100
AcDbBlockTableRecord
2
*PAPER_SPACE
0
ENDTAB
0
ENDSEC
0
SECTION
2
BLOCKS
0
BLOCK
5
20
100
AcDbEntity
100
AcDbBlockBegin
2
*MODEL_SPACE
0
ENDBLK
5
21
100
AcDbEntity
100
AcDbBlockEnd
0
BLOCK
5
1C
100
AcDbEntity
100
AcDbBlockBegin
2
*PAPER_SPACE
0
ENDBLK
5
1D
100
AcDbEntity
100
AcDbBlockEnd
0
ENDSEC
0
SECTION
2
ENTITIES
0
LWPOLYLINE
5
100
100
AcDbEntity
8
0
100
AcDbPolyline
90
4
70
1
43
0.0
10
59.769700000000007
20
54.706699999999998
10
59.769700000000007
20
40.7074
10
73.768999999999991
20
40.7074
10
73.768999999999991
20
54.706699999999998
0
LWPOLYLINE
5
101
100
AcDbEntity
8
0
100
AcDbPolyline
90
4
70
1
43
0.0
10
97.869699999999995
20
66.612899999999996
10
97.869699999999995
20
52.613599999999998
10
111.86900000000001
20
52.613599999999998
10
111.86900000000001
20
66.612899999999996
0
LWPOLYLINE
5
102
100
AcDbEntity
8
0
100
AcDbPolyline
90
4
70
1
43
0.0
10
92.819000000000003
20
49.944200000000009
10
78.819699999999997
20
49.944200000000009
10
78.819699999999997
20
35.944899999999997
10
92.819000000000003
20
35.944899999999997
0
LWPOLYLINE
5
103
100
AcDbEntity
8
0
100
AcDbPolyline
90
4
70
1
43
0.0
10
54.718999999999994
20
49.944200000000009
10
40.719700000000003
20
49.944200000000009
10
40.719700000000003
20
35.944899999999997
10
54.718999999999994
20
35.944899999999997
0
LWPOLYLINE
5
104
100
AcDbEntity
8
0
100
AcDbPolyline
90
4
70
1
43
0.0
10
2.61965
20
45.469900000000003
10
16.619199999999999
20
45.469900000000003
10
16.619199999999999
20
59.469200000000001
10
2.61965
20
59.469200000000001
0
LWPOLYLINE
5
105
100
AcDbEntity
8
0
100
AcDbPolyline
90
4
70
1
43
0.0
10
35.669000000000004
20
45.469900000000003
10
35.669000000000004
20
59.469200000000001
10
21.669699999999999
20
59.469200000000001
10
21.669699999999999
20
45.469900000000003
0
LWPOLYLINE
5
106
100
AcDbEntity
8
0
100
AcDbPolyline
90
4
70
1
43
0.0
10
78.819699999999997
20
68.994200000000006
10
78.819699999999997
20
54.994900000000008
10
92.819000000000003
20
54.994900000000008
10
92.819000000000003
20
68.994200000000006
0
LWPOLYLINE
5
107
100
AcDbEntity
8
0
100
AcDbPolyline
90
4
70
1
43
0.0
10
54.718999999999994
20
54.994900000000008
10
54.718999999999994
20
68.994200000000006
10
40.719700000000003
20
68.994200000000006
10
40.719700000000003
20
54.994900000000008
0
LWPOLYLINE
5
108
100
AcDbEntity
8
0
100
AcDbPolyline
90
4
70
1
43
0.0
10
59.769700000000007
20
73.756699999999995
10
59.769700000000007
20
59.757400000000004
10
73.768999999999991
20
59.757400000000004
10
73.768999999999991
20
73.756699999999995
0
LWPOLYLINE
5
109
100
AcDbEntity
8
0
100
AcDbPolyline
90
4
70
1
43
0.0
10
35.669000000000004
20
64.519900000000007
10
35.669000000000004
20
78.519199999999998
10
21.669699999999999
20
78.519199999999998
10
21.669699999999999
20
64.519900000000007
0
LWPOLYLINE
5
110
100
AcDbEntity
8
0
100
AcDbPolyline
90
4
70
1
43
0.0
10
2.61965
20
78.519199999999998
10
2.61965
20
64.519900000000007
10
16.619199999999999
20
64.519900000000007
10
16.619199999999999
20
78.519199999999998
0
LWPOLYLINE
5
111
100
AcDbEntity
8
0
100
AcDbPolyline
90
4
70
1
43
0.0
10
111.86900000000001
20
71.663600000000002
10
111.86900000000001
20
85.662900000000008
10
97.869699999999995
20
85.662900000000008
10
97.869699999999995
20
71.663600000000002
0
LWPOLYLINE
5
112
100
AcDbEntity
8
0
100
AcDbPolyline
90
4
70
1
43
0.0
10
59.769700000000007
20
78.807400000000001
10
73.768999999999991
20
78.807400000000001
10
73.768999999999991
20
92.806700000000006
10
59.769700000000007
20
92.806700000000006
0
LWPOLYLINE
5
113
100
AcDbEntity
8
0
100
AcDbPolyline
90
4
70
1
43
0.0
10
40.719700000000003
20
88.044200000000004
10
40.719700000000003
20
74.044899999999998
10
54.718999999999994
20
74.044899999999998
10
54.718999999999994
20
88.044200000000004
0
LWPOLYLINE
5
114
100
AcDbEntity
8
0
100
AcDbPolyline
90
4
70
1
43
0.0
10
78.819699999999997
20
88.044200000000004
10
78.819699999999997
20
74.044899999999998
10
92.819000000000003
20
74.044899999999998
10
92.819000000000003
20
88.044200000000004
0
LWPOLYLINE
5
115
100
AcDbEntity
8
0
100
AcDbPolyline
90
4
70
1
43
0.0
10
113.498
20
22.801000000000002
10
125.623
20
15.802
10
118.62299999999999
20
3.6779899999999999
10
106.49900000000001
20
10.677000000000001
0
LWPOLYLINE
5
116
100
AcDbEntity
8
0
100
AcDbPolyline
90
4
70
1
43
0.0
10
21.669699999999999
20
26.419700000000002
10
35.669000000000004
20
26.419700000000002
10
35.669000000000004
20
40.419200000000004
10
21.669699999999999
20
40.419200000000004
0
LWPOLYLINE
5
117
100
AcDbEntity
8
0
100
AcDbPolyline
90
4
70
1
43
0.0
10
50.244700000000009
20
16.8947
10
64.244
20
16.8947
10
64.244
20
30.894200000000005
10
50.244700000000009
20
30.894200000000005
0
LWPOLYLINE
5
118
100
AcDbEntity
8
0
100
AcDbPolyline
90
4
70
1
43
0.0
10
2.61965
20
26.419700000000002
10
16.619199999999999
20
26.419700000000002
10
16.619199999999999
20
40.419200000000004
10
2.61965
20
40.419200000000004
0
LWPOLYLINE
5
119
100
AcDbEntity
8
0
100
AcDbPolyline
90
4
70
1
43
0.0
10
111.86900000000001
20
33.563499999999998
10
111.86900000000001
20
47.562899999999999
10
97.869699999999995
20
47.562899999999999
10
97.869699999999995
20
33.563499999999998
0
LWPOLYLINE
5
120
100
AcDbEntity
8
0
100
AcDbPolyline
90
4
70
1
43
0.0
10
88.304855422642575
20
16.23210233318752
10
91.927855422642594
20
29.754802333187524
10
105.45195542264258
20
26.130602333187522
10
101.82795542264259
20
12.607902333187521
0
LWPOLYLINE
5
121
100
AcDbEntity
8
0
100
AcDbPolyline
90
4
70
1
43
0.0
10
83.293999999999997
20
30.894200000000005
10
69.294700000000006
20
30.894200000000005
10
69.294700000000006
20
16.8947
10
83.293999999999997
20
16.8947
0
LWPOLYLINE
5
122
100
AcDbEntity
8
0
100
AcDbPolyline
90
36
70
1
43
0.0
10
85.370656631757441
20
14.369700000000002
10
48.133892038366852
20
14.369700000000002
42
-0.19890281792791942
10
47.426811239629252
20
14.662567237319188
10
38.486888760370746
20
23.601832762680814
42
0.19890281792791586
10
37.779807961633153
20
23.8947
10
1.0946500000000017
20
23.8947
42
-0.41421356237309365
10
0.094650000000000845
20
24.894700000000007
10
0.094649999999993212
20
80.044199999999989
42
-0.41421356237309809
10
1.0946500000000015
20
81.044199999999989
10
37.194073488113204
20
81.044199999999989
42
0.41419203757598549
10
38.194073485412744
20
82.04412650918654
10
38.194626514587242
20
89.569273490813458
42
-0.41419203757598549
10
39.194626511886803
20
90.569200000000023
10
56.244700000000009
20
90.569199999999995
42
0.41421356237309764
10
57.244700000000009
20
91.569199999999995
10
57.244700000000009
20
94.331700000000012
42
-0.41421356237309764
10
58.244699999999995
20
95.331699999999984
10
75.294146970825494
20
95.331699999999984
42
-0.41417051310670061
10
76.294146960023696
20
94.331846981625716
10
76.294553039976293
20
91.569053018374277
42
0.414170513106698
10
77.294553029174494
20
90.569199999999995
10
94.344293913876882
20
90.569199999999981
42
-0.41412746696016278
10
95.344293870671507
20
89.569493957069568
10
95.344406129328519
20
89.187606042930426
42
0.41412746696017838
10
96.344406086123115
20
88.187900000000013
10
113.39400000000001
20
88.187899999999999
42
-0.41421356237309503
10
114.39400000000001
20
87.187899999999999
10
114.39400000000001
20
25.776678408359672
42
0.26797193367603905
10
114.89407350224184
20
24.91061057219483
10
128.20619626161599
20
17.226359257319814
42
-0.41424203657049524
10
128.57228899506961
20
15.860280730097919
10
120.04722868031038
20
1.0948640862773322
42
-0.41419572930901521
10
118.68125148765174
20
0.72882510394034483
10
103.16583095434621
20
9.6856531694971721
42
0.066672411298334081
10
102.92029955126526
20
9.7866955943016904
10
85.625083190123377
20
14.336792098198545
42
0.064402495008623981
0
ENDSEC
0
SECTION
2
OBJECTS
0
DICTIONARY
5
C
100
AcDbDictionary
3
ACAD_GROUP
350
D
3
ACAD_MLINESTYLE
350
17
0
DICTIONARY
5
D
100
AcDbDictionary
0
DICTIONARY
5
1A
330
C
100
AcDbDictionary
0
DICTIONARY
5
17
100
AcDbDictionary
0
ENDSEC
0
EOF
