  0
SECTION
  2
HEADER
  9
$ACADVER
  1
AC1009
  9
$EXTMIN
 10
0.0
 20
0.0
 30
0.0
  9
$EXTMAX
 10
1000.0
 20
1000.0
 30
0.0
  9
$FILLMODE
 70
 0
  9
$SPLFRAME
 70
 1
  0
ENDSEC
  0
SECTION
  2
TABLES
  0
TABLE
  2
LAYER
 70
1
  0
LAYER
  2
0
 70
     0
 62
     7
  6
CONTINUOUS
  0
ENDTAB
  0
ENDSEC
  0
SECTION
  2
ENTITIES
  0
LINE
  8
0
 62
     0
 10
0.0950846
 20
100.094
 30
0.0
 11
323.945
 21
100.094
 31
0.0
  0
LINE
  8
0
 62
     0
 10
323.945
 20
100.094
 30
0.0
 11
323.945
 21
0.225998
 31
0.0
  0
LINE
  8
0
 62
     0
 10
323.945
 20
0.225998
 30
0.0
 11
0.0950846
 21
0.225998
 31
0.0
  0
LINE
  8
0
 62
     0
 10
0.0950846
 20
0.225998
 30
0.0
 11
0.0950846
 21
100.094
 31
0.0
  0
LINE
  8
0
 62
     0
 10
198.414
 20
15.802
 30
0.0
 11
205.414
 21
3.67799
 31
0.0
  0
LINE
  8
0
 62
     0
 10
205.414
 20
3.67799
 30
0.0
 11
217.54
 21
10.677
 31
0.0
  0
LINE
  8
0
 62
     0
 10
217.54
 20
10.677
 30
0.0
 11
210.54
 21
22.801
 31
0.0
  0
LINE
  8
0
 62
     0
 10
210.54
 20
22.801
 30
0.0
 11
198.414
 21
15.802
 31
0.0
  0
LINE
  8
0
 62
     0
 10
106.499
 20
10.677
 30
0.0
 11
118.623
 21
3.67799
 31
0.0
  0
LINE
  8
0
 62
     0
 10
118.623
 20
3.67799
 30
0.0
 11
125.623
 21
15.802
 31
0.0
  0
LINE
  8
0
 62
     0
 10
125.623
 20
15.802
 30
0.0
 11
113.498
 21
22.801
 31
0.0
  0
LINE
  8
0
 62
     0
 10
113.498
 20
22.801
 30
0.0
 11
106.499
 21
10.677
 31
0.0
  0
LINE
  8
0
 62
     0
 10
218.586
 20
26.1345
 30
0.0
 11
222.21
 21
12.6118
 31
0.0
  0
LINE
  8
0
 62
     0
 10
222.21
 20
12.6118
 30
0.0
 11
235.733
 21
16.236
 31
0.0
  0
LINE
  8
0
 62
     0
 10
235.733
 20
16.236
 30
0.0
 11
232.108
 21
29.7587
 31
0.0
  0
LINE
  8
0
 62
     0
 10
232.108
 20
29.7587
 30
0.0
 11
218.586
 21
26.1345
 31
0.0
  0
LINE
  8
0
 62
     0
 10
88.3059
 20
16.236
 30
0.0
 11
101.829
 21
12.6118
 31
0.0
  0
LINE
  8
0
 62
     0
 10
101.829
 20
12.6118
 30
0.0
 11
105.453
 21
26.1345
 31
0.0
  0
LINE
  8
0
 62
     0
 10
105.453
 20
26.1345
 30
0.0
 11
91.9289
 21
29.7587
 31
0.0
  0
LINE
  8
0
 62
     0
 10
91.9289
 20
29.7587
 30
0.0
 11
88.3059
 21
16.236
 31
0.0
  0
LINE
  8
0
 62
     0
 10
240.745
 20
30.8942
 30
0.0
 11
254.744
 21
30.8942
 31
0.0
  0
LINE
  8
0
 62
     0
 10
254.744
 20
30.8942
 30
0.0
 11
254.744
 21
16.8947
 31
0.0
  0
LINE
  8
0
 62
     0
 10
254.744
 20
16.8947
 30
0.0
 11
240.745
 21
16.8947
 31
0.0
  0
LINE
  8
0
 62
     0
 10
240.745
 20
16.8947
 30
0.0
 11
240.745
 21
30.8942
 31
0.0
  0
LINE
  8
0
 62
     0
 10
69.2947
 20
30.8942
 30
0.0
 11
83.294
 21
30.8942
 31
0.0
  0
LINE
  8
0
 62
     0
 10
83.294
 20
30.8942
 30
0.0
 11
83.294
 21
16.8947
 31
0.0
  0
LINE
  8
0
 62
     0
 10
83.294
 20
16.8947
 30
0.0
 11
69.2947
 21
16.8947
 31
0.0
  0
LINE
  8
0
 62
     0
 10
69.2947
 20
16.8947
 30
0.0
 11
69.2947
 21
30.8942
 31
0.0
  0
LINE
  8
0
 62
     0
 10
259.795
 20
30.8942
 30
0.0
 11
273.794
 21
30.8942
 31
0.0
  0
LINE
  8
0
 62
     0
 10
273.794
 20
30.8942
 30
0.0
 11
273.794
 21
16.8947
 31
0.0
  0
LINE
  8
0
 62
     0
 10
273.794
 20
16.8947
 30
0.0
 11
259.795
 21
16.8947
 31
0.0
  0
LINE
  8
0
 62
     0
 10
259.795
 20
16.8947
 30
0.0
 11
259.795
 21
30.8942
 31
0.0
  0
LINE
  8
0
 62
     0
 10
50.2447
 20
30.8942
 30
0.0
 11
64.244
 21
30.8942
 31
0.0
  0
LINE
  8
0
 62
     0
 10
64.244
 20
30.8942
 30
0.0
 11
64.244
 21
16.8947
 31
0.0
  0
LINE
  8
0
 62
     0
 10
64.244
 20
16.8947
 30
0.0
 11
50.2447
 21
16.8947
 31
0.0
  0
LINE
  8
0
 62
     0
 10
50.2447
 20
16.8947
 30
0.0
 11
50.2447
 21
30.8942
 31
0.0
  0
LINE
  8
0
 62
     0
 10
307.42
 20
40.4192
 30
0.0
 11
321.419
 21
40.4192
 31
0.0
  0
LINE
  8
0
 62
     0
 10
321.419
 20
40.4192
 30
0.0
 11
321.419
 21
26.4197
 31
0.0
  0
LINE
  8
0
 62
     0
 10
321.419
 20
26.4197
 30
0.0
 11
307.42
 21
26.4197
 31
0.0
  0
LINE
  8
0
 62
     0
 10
307.42
 20
26.4197
 30
0.0
 11
307.42
 21
40.4192
 31
0.0
  0
LINE
  8
0
 62
     0
 10
288.37
 20
40.4192
 30
0.0
 11
302.369
 21
40.4192
 31
0.0
  0
LINE
  8
0
 62
     0
 10
302.369
 20
40.4192
 30
0.0
 11
302.369
 21
26.4197
 31
0.0
  0
LINE
  8
0
 62
     0
 10
302.369
 20
26.4197
 30
0.0
 11
288.37
 21
26.4197
 31
0.0
  0
LINE
  8
0
 62
     0
 10
288.37
 20
26.4197
 30
0.0
 11
288.37
 21
40.4192
 31
0.0
  0
LINE
  8
0
 62
     0
 10
21.6697
 20
40.4192
 30
0.0
 11
35.669
 21
40.4192
 31
0.0
  0
LINE
  8
0
 62
     0
 10
35.669
 20
40.4192
 30
0.0
 11
35.669
 21
26.4197
 31
0.0
  0
LINE
  8
0
 62
     0
 10
35.669
 20
26.4197
 30
0.0
 11
21.6697
 21
26.4197
 31
0.0
  0
LINE
  8
0
 62
     0
 10
21.6697
 20
26.4197
 30
0.0
 11
21.6697
 21
40.4192
 31
0.0
  0
LINE
  8
0
 62
     0
 10
2.61965
 20
40.4192
 30
0.0
 11
16.6192
 21
40.4192
 31
0.0
  0
LINE
  8
0
 62
     0
 10
16.6192
 20
40.4192
 30
0.0
 11
16.6192
 21
26.4197
 31
0.0
  0
LINE
  8
0
 62
     0
 10
16.6192
 20
26.4197
 30
0.0
 11
2.61965
 21
26.4197
 31
0.0
  0
LINE
  8
0
 62
     0
 10
2.61965
 20
26.4197
 30
0.0
 11
2.61965
 21
40.4192
 31
0.0
  0
LINE
  8
0
 62
     0
 10
212.17
 20
47.5629
 30
0.0
 11
226.169
 21
47.5629
 31
0.0
  0
LINE
  8
0
 62
     0
 10
226.169
 20
47.5629
 30
0.0
 11
226.169
 21
33.5635
 31
0.0
  0
LINE
  8
0
 62
     0
 10
226.169
 20
33.5635
 30
0.0
 11
212.17
 21
33.5635
 31
0.0
  0
LINE
  8
0
 62
     0
 10
212.17
 20
33.5635
 30
0.0
 11
212.17
 21
47.5629
 31
0.0
  0
LINE
  8
0
 62
     0
 10
97.8697
 20
47.5629
 30
0.0
 11
111.869
 21
47.5629
 31
0.0
  0
LINE
  8
0
 62
     0
 10
111.869
 20
47.5629
 30
0.0
 11
111.869
 21
33.5635
 31
0.0
  0
LINE
  8
0
 62
     0
 10
111.869
 20
33.5635
 30
0.0
 11
97.8697
 21
33.5635
 31
0.0
  0
LINE
  8
0
 62
     0
 10
97.8697
 20
33.5635
 30
0.0
 11
97.8697
 21
47.5629
 31
0.0
  0
LINE
  8
0
 62
     0
 10
269.32
 20
49.9442
 30
0.0
 11
283.319
 21
49.9442
 31
0.0
  0
LINE
  8
0
 62
     0
 10
283.319
 20
49.9442
 30
0.0
 11
283.319
 21
35.9449
 31
0.0
  0
LINE
  8
0
 62
     0
 10
283.319
 20
35.9449
 30
0.0
 11
269.32
 21
35.9449
 31
0.0
  0
LINE
  8
0
 62
     0
 10
269.32
 20
35.9449
 30
0.0
 11
269.32
 21
49.9442
 31
0.0
  0
LINE
  8
0
 62
     0
 10
231.22
 20
49.9442
 30
0.0
 11
245.219
 21
49.9442
 31
0.0
  0
LINE
  8
0
 62
     0
 10
245.219
 20
49.9442
 30
0.0
 11
245.219
 21
35.9449
 31
0.0
  0
LINE
  8
0
 62
     0
 10
245.219
 20
35.9449
 30
0.0
 11
231.22
 21
35.9449
 31
0.0
  0
LINE
  8
0
 62
     0
 10
231.22
 20
35.9449
 30
0.0
 11
231.22
 21
49.9442
 31
0.0
  0
LINE
  8
0
 62
     0
 10
78.8197
 20
49.9442
 30
0.0
 11
92.819
 21
49.9442
 31
0.0
  0
LINE
  8
0
 62
     0
 10
92.819
 20
49.9442
 30
0.0
 11
92.819
 21
35.9449
 31
0.0
  0
LINE
  8
0
 62
     0
 10
92.819
 20
35.9449
 30
0.0
 11
78.8197
 21
35.9449
 31
0.0
  0
LINE
  8
0
 62
     0
 10
78.8197
 20
35.9449
 30
0.0
 11
78.8197
 21
49.9442
 31
0.0
  0
LINE
  8
0
 62
     0
 10
40.7197
 20
49.9442
 30
0.0
 11
54.719
 21
49.9442
 31
0.0
  0
LINE
  8
0
 62
     0
 10
54.719
 20
49.9442
 30
0.0
 11
54.719
 21
35.9449
 31
0.0
  0
LINE
  8
0
 62
     0
 10
54.719
 20
35.9449
 30
0.0
 11
40.7197
 21
35.9449
 31
0.0
  0
LINE
  8
0
 62
     0
 10
40.7197
 20
35.9449
 30
0.0
 11
40.7197
 21
49.9442
 31
0.0
  0
LINE
  8
0
 62
     0
 10
250.27
 20
54.7067
 30
0.0
 11
264.269
 21
54.7067
 31
0.0
  0
LINE
  8
0
 62
     0
 10
264.269
 20
54.7067
 30
0.0
 11
264.269
 21
40.7074
 31
0.0
  0
LINE
  8
0
 62
     0
 10
264.269
 20
40.7074
 30
0.0
 11
250.27
 21
40.7074
 31
0.0
  0
LINE
  8
0
 62
     0
 10
250.27
 20
40.7074
 30
0.0
 11
250.27
 21
54.7067
 31
0.0
  0
LINE
  8
0
 62
     0
 10
59.7697
 20
54.7067
 30
0.0
 11
73.769
 21
54.7067
 31
0.0
  0
LINE
  8
0
 62
     0
 10
73.769
 20
54.7067
 30
0.0
 11
73.769
 21
40.7074
 31
0.0
  0
LINE
  8
0
 62
     0
 10
73.769
 20
40.7074
 30
0.0
 11
59.7697
 21
40.7074
 31
0.0
  0
LINE
  8
0
 62
     0
 10
59.7697
 20
40.7074
 30
0.0
 11
59.7697
 21
54.7067
 31
0.0
  0
LINE
  8
0
 62
     0
 10
307.42
 20
59.4692
 30
0.0
 11
321.419
 21
59.4692
 31
0.0
  0
LINE
  8
0
 62
     0
 10
321.419
 20
59.4692
 30
0.0
 11
321.419
 21
45.4699
 31
0.0
  0
LINE
  8
0
 62
     0
 10
321.419
 20
45.4699
 30
0.0
 11
307.42
 21
45.4699
 31
0.0
  0
LINE
  8
0
 62
     0
 10
307.42
 20
45.4699
 30
0.0
 11
307.42
 21
59.4692
 31
0.0
  0
LINE
  8
0
 62
     0
 10
288.37
 20
59.4692
 30
0.0
 11
302.369
 21
59.4692
 31
0.0
  0
LINE
  8
0
 62
     0
 10
302.369
 20
59.4692
 30
0.0
 11
302.369
 21
45.4699
 31
0.0
  0
LINE
  8
0
 62
     0
 10
302.369
 20
45.4699
 30
0.0
 11
288.37
 21
45.4699
 31
0.0
  0
LINE
  8
0
 62
     0
 10
288.37
 20
45.4699
 30
0.0
 11
288.37
 21
59.4692
 31
0.0
  0
LINE
  8
0
 62
     0
 10
21.6697
 20
59.4692
 30
0.0
 11
35.669
 21
59.4692
 31
0.0
  0
LINE
  8
0
 62
     0
 10
35.669
 20
59.4692
 30
0.0
 11
35.669
 21
45.4699
 31
0.0
  0
LINE
  8
0
 62
     0
 10
35.669
 20
45.4699
 30
0.0
 11
21.6697
 21
45.4699
 31
0.0
  0
LINE
  8
0
 62
     0
 10
21.6697
 20
45.4699
 30
0.0
 11
21.6697
 21
59.4692
 31
0.0
  0
LINE
  8
0
 62
     0
 10
2.61965
 20
59.4692
 30
0.0
 11
16.6192
 21
59.4692
 31
0.0
  0
LINE
  8
0
 62
     0
 10
16.6192
 20
59.4692
 30
0.0
 11
16.6192
 21
45.4699
 31
0.0
  0
LINE
  8
0
 62
     0
 10
16.6192
 20
45.4699
 30
0.0
 11
2.61965
 21
45.4699
 31
0.0
  0
LINE
  8
0
 62
     0
 10
2.61965
 20
45.4699
 30
0.0
 11
2.61965
 21
59.4692
 31
0.0
  0
LINE
  8
0
 62
     0
 10
212.17
 20
66.6129
 30
0.0
 11
226.169
 21
66.6129
 31
0.0
  0
LINE
  8
0
 62
     0
 10
226.169
 20
66.6129
 30
0.0
 11
226.169
 21
52.6136
 31
0.0
  0
LINE
  8
0
 62
     0
 10
226.169
 20
52.6136
 30
0.0
 11
212.17
 21
52.6136
 31
0.0
  0
LINE
  8
0
 62
     0
 10
212.17
 20
52.6136
 30
0.0
 11
212.17
 21
66.6129
 31
0.0
  0
LINE
  8
0
 62
     0
 10
97.8697
 20
66.6129
 30
0.0
 11
111.869
 21
66.6129
 31
0.0
  0
LINE
  8
0
 62
     0
 10
111.869
 20
66.6129
 30
0.0
 11
111.869
 21
52.6136
 31
0.0
  0
LINE
  8
0
 62
     0
 10
111.869
 20
52.6136
 30
0.0
 11
97.8697
 21
52.6136
 31
0.0
  0
LINE
  8
0
 62
     0
 10
97.8697
 20
52.6136
 30
0.0
 11
97.8697
 21
66.6129
 31
0.0
  0
LINE
  8
0
 62
     0
 10
269.32
 20
68.9942
 30
0.0
 11
283.319
 21
68.9942
 31
0.0
  0
LINE
  8
0
 62
     0
 10
283.319
 20
68.9942
 30
0.0
 11
283.319
 21
54.9949
 31
0.0
  0
LINE
  8
0
 62
     0
 10
283.319
 20
54.9949
 30
0.0
 11
269.32
 21
54.9949
 31
0.0
  0
LINE
  8
0
 62
     0
 10
269.32
 20
54.9949
 30
0.0
 11
269.32
 21
68.9942
 31
0.0
  0
LINE
  8
0
 62
     0
 10
231.22
 20
68.9942
 30
0.0
 11
245.219
 21
68.9942
 31
0.0
  0
LINE
  8
0
 62
     0
 10
245.219
 20
68.9942
 30
0.0
 11
245.219
 21
54.9949
 31
0.0
  0
LINE
  8
0
 62
     0
 10
245.219
 20
54.9949
 30
0.0
 11
231.22
 21
54.9949
 31
0.0
  0
LINE
  8
0
 62
     0
 10
231.22
 20
54.9949
 30
0.0
 11
231.22
 21
68.9942
 31
0.0
  0
LINE
  8
0
 62
     0
 10
78.8197
 20
68.9942
 30
0.0
 11
92.819
 21
68.9942
 31
0.0
  0
LINE
  8
0
 62
     0
 10
92.819
 20
68.9942
 30
0.0
 11
92.819
 21
54.9949
 31
0.0
  0
LINE
  8
0
 62
     0
 10
92.819
 20
54.9949
 30
0.0
 11
78.8197
 21
54.9949
 31
0.0
  0
LINE
  8
0
 62
     0
 10
78.8197
 20
54.9949
 30
0.0
 11
78.8197
 21
68.9942
 31
0.0
  0
LINE
  8
0
 62
     0
 10
40.7197
 20
68.9942
 30
0.0
 11
54.719
 21
68.9942
 31
0.0
  0
LINE
  8
0
 62
     0
 10
54.719
 20
68.9942
 30
0.0
 11
54.719
 21
54.9949
 31
0.0
  0
LINE
  8
0
 62
     0
 10
54.719
 20
54.9949
 30
0.0
 11
40.7197
 21
54.9949
 31
0.0
  0
LINE
  8
0
 62
     0
 10
40.7197
 20
54.9949
 30
0.0
 11
40.7197
 21
68.9942
 31
0.0
  0
LINE
  8
0
 62
     0
 10
250.27
 20
73.7567
 30
0.0
 11
264.269
 21
73.7567
 31
0.0
  0
LINE
  8
0
 62
     0
 10
264.269
 20
73.7567
 30
0.0
 11
264.269
 21
59.7574
 31
0.0
  0
LINE
  8
0
 62
     0
 10
264.269
 20
59.7574
 30
0.0
 11
250.27
 21
59.7574
 31
0.0
  0
LINE
  8
0
 62
     0
 10
250.27
 20
59.7574
 30
0.0
 11
250.27
 21
73.7567
 31
0.0
  0
LINE
  8
0
 62
     0
 10
59.7697
 20
73.7567
 30
0.0
 11
73.769
 21
73.7567
 31
0.0
  0
LINE
  8
0
 62
     0
 10
73.769
 20
73.7567
 30
0.0
 11
73.769
 21
59.7574
 31
0.0
  0
LINE
  8
0
 62
     0
 10
73.769
 20
59.7574
 30
0.0
 11
59.7697
 21
59.7574
 31
0.0
  0
LINE
  8
0
 62
     0
 10
59.7697
 20
59.7574
 30
0.0
 11
59.7697
 21
73.7567
 31
0.0
  0
LINE
  8
0
 62
     0
 10
307.42
 20
78.5192
 30
0.0
 11
321.419
 21
78.5192
 31
0.0
  0
LINE
  8
0
 62
     0
 10
321.419
 20
78.5192
 30
0.0
 11
321.419
 21
64.5199
 31
0.0
  0
LINE
  8
0
 62
     0
 10
321.419
 20
64.5199
 30
0.0
 11
307.42
 21
64.5199
 31
0.0
  0
LINE
  8
0
 62
     0
 10
307.42
 20
64.5199
 30
0.0
 11
307.42
 21
78.5192
 31
0.0
  0
LINE
  8
0
 62
     0
 10
288.37
 20
78.5192
 30
0.0
 11
302.369
 21
78.5192
 31
0.0
  0
LINE
  8
0
 62
     0
 10
302.369
 20
78.5192
 30
0.0
 11
302.369
 21
64.5199
 31
0.0
  0
LINE
  8
0
 62
     0
 10
302.369
 20
64.5199
 30
0.0
 11
288.37
 21
64.5199
 31
0.0
  0
LINE
  8
0
 62
     0
 10
288.37
 20
64.5199
 30
0.0
 11
288.37
 21
78.5192
 31
0.0
  0
LINE
  8
0
 62
     0
 10
21.6697
 20
78.5192
 30
0.0
 11
35.669
 21
78.5192
 31
0.0
  0
LINE
  8
0
 62
     0
 10
35.669
 20
78.5192
 30
0.0
 11
35.669
 21
64.5199
 31
0.0
  0
LINE
  8
0
 62
     0
 10
35.669
 20
64.5199
 30
0.0
 11
21.6697
 21
64.5199
 31
0.0
  0
LINE
  8
0
 62
     0
 10
21.6697
 20
64.5199
 30
0.0
 11
21.6697
 21
78.5192
 31
0.0
  0
LINE
  8
0
 62
     0
 10
2.61965
 20
78.5192
 30
0.0
 11
16.6192
 21
78.5192
 31
0.0
  0
LINE
  8
0
 62
     0
 10
16.6192
 20
78.5192
 30
0.0
 11
16.6192
 21
64.5199
 31
0.0
  0
LINE
  8
0
 62
     0
 10
16.6192
 20
64.5199
 30
0.0
 11
2.61965
 21
64.5199
 31
0.0
  0
LINE
  8
0
 62
     0
 10
2.61965
 20
64.5199
 30
0.0
 11
2.61965
 21
78.5192
 31
0.0
  0
LINE
  8
0
 62
     0
 10
212.17
 20
85.6629
 30
0.0
 11
226.169
 21
85.6629
 31
0.0
  0
LINE
  8
0
 62
     0
 10
226.169
 20
85.6629
 30
0.0
 11
226.169
 21
71.6636
 31
0.0
  0
LINE
  8
0
 62
     0
 10
226.169
 20
71.6636
 30
0.0
 11
212.17
 21
71.6636
 31
0.0
  0
LINE
  8
0
 62
     0
 10
212.17
 20
71.6636
 30
0.0
 11
212.17
 21
85.6629
 31
0.0
  0
LINE
  8
0
 62
     0
 10
97.8697
 20
85.6629
 30
0.0
 11
111.869
 21
85.6629
 31
0.0
  0
LINE
  8
0
 62
     0
 10
111.869
 20
85.6629
 30
0.0
 11
111.869
 21
71.6636
 31
0.0
  0
LINE
  8
0
 62
     0
 10
111.869
 20
71.6636
 30
0.0
 11
97.8697
 21
71.6636
 31
0.0
  0
LINE
  8
0
 62
     0
 10
97.8697
 20
71.6636
 30
0.0
 11
97.8697
 21
85.6629
 31
0.0
  0
LINE
  8
0
 62
     0
 10
269.32
 20
88.0442
 30
0.0
 11
283.319
 21
88.0442
 31
0.0
  0
LINE
  8
0
 62
     0
 10
283.319
 20
88.0442
 30
0.0
 11
283.319
 21
74.0449
 31
0.0
  0
LINE
  8
0
 62
     0
 10
283.319
 20
74.0449
 30
0.0
 11
269.32
 21
74.0449
 31
0.0
  0
LINE
  8
0
 62
     0
 10
269.32
 20
74.0449
 30
0.0
 11
269.32
 21
88.0442
 31
0.0
  0
LINE
  8
0
 62
     0
 10
231.22
 20
88.0442
 30
0.0
 11
245.219
 21
88.0442
 31
0.0
  0
LINE
  8
0
 62
     0
 10
245.219
 20
88.0442
 30
0.0
 11
245.219
 21
74.0449
 31
0.0
  0
LINE
  8
0
 62
     0
 10
245.219
 20
74.0449
 30
0.0
 11
231.22
 21
74.0449
 31
0.0
  0
LINE
  8
0
 62
     0
 10
231.22
 20
74.0449
 30
0.0
 11
231.22
 21
88.0442
 31
0.0
  0
LINE
  8
0
 62
     0
 10
78.8197
 20
88.0442
 30
0.0
 11
92.819
 21
88.0442
 31
0.0
  0
LINE
  8
0
 62
     0
 10
92.819
 20
88.0442
 30
0.0
 11
92.819
 21
74.0449
 31
0.0
  0
LINE
  8
0
 62
     0
 10
92.819
 20
74.0449
 30
0.0
 11
78.8197
 21
74.0449
 31
0.0
  0
LINE
  8
0
 62
     0
 10
78.8197
 20
74.0449
 30
0.0
 11
78.8197
 21
88.0442
 31
0.0
  0
LINE
  8
0
 62
     0
 10
40.7197
 20
88.0442
 30
0.0
 11
54.719
 21
88.0442
 31
0.0
  0
LINE
  8
0
 62
     0
 10
54.719
 20
88.0442
 30
0.0
 11
54.719
 21
74.0449
 31
0.0
  0
LINE
  8
0
 62
     0
 10
54.719
 20
74.0449
 30
0.0
 11
40.7197
 21
74.0449
 31
0.0
  0
LINE
  8
0
 62
     0
 10
40.7197
 20
74.0449
 30
0.0
 11
40.7197
 21
88.0442
 31
0.0
  0
LINE
  8
0
 62
     0
 10
250.27
 20
92.8067
 30
0.0
 11
264.269
 21
92.8067
 31
0.0
  0
LINE
  8
0
 62
     0
 10
264.269
 20
92.8067
 30
0.0
 11
264.269
 21
78.8074
 31
0.0
  0
LINE
  8
0
 62
     0
 10
264.269
 20
78.8074
 30
0.0
 11
250.27
 21
78.8074
 31
0.0
  0
LINE
  8
0
 62
     0
 10
250.27
 20
78.8074
 30
0.0
 11
250.27
 21
92.8067
 31
0.0
  0
LINE
  8
0
 62
     0
 10
59.7697
 20
92.8067
 30
0.0
 11
73.769
 21
92.8067
 31
0.0
  0
LINE
  8
0
 62
     0
 10
73.769
 20
92.8067
 30
0.0
 11
73.769
 21
78.8074
 31
0.0
  0
LINE
  8
0
 62
     0
 10
73.769
 20
78.8074
 30
0.0
 11
59.7697
 21
78.8074
 31
0.0
  0
LINE
  8
0
 62
     0
 10
59.7697
 20
78.8074
 30
0.0
 11
59.7697
 21
92.8067
 31
0.0
  0
ENDSEC
  0
EOF
