  0
SECTION
  2
HEADER
  9
$ACADVER
  1
AC1009
  9
$EXTMIN
 10
0.0
 20
0.0
 30
0.0
  9
$EXTMAX
 10
1000.0
 20
1000.0
 30
0.0
  9
$FILLMODE
 70
 0
  9
$SPLFRAME
 70
 1
  0
ENDSEC
  0
SECTION
  2
TABLES
  0
TABLE
  2
LAYER
 70
1
  0
LAYER
  2
0
 70
     0
 62
     7
  6
CONTINUOUS
  0
ENDTAB
  0
ENDSEC
  0
SECTION
  2
ENTITIES
  0
LINE
  8
0
 62
     0
 10
0.0950846
 20
113.146
 30
0.0
 11
323.945
 21
113.146
 31
0.0
  0
LINE
  8
0
 62
     0
 10
323.945
 20
113.146
 30
0.0
 11
323.945
 21
0.180523
 31
0.0
  0
LINE
  8
0
 62
     0
 10
323.945
 20
0.180523
 30
0.0
 11
0.0950846
 21
0.180523
 31
0.0
  0
LINE
  8
0
 62
     0
 10
0.0950846
 20
0.180523
 30
0.0
 11
0.0950846
 21
113.146
 31
0.0
  0
LINE
  8
0
 62
     0
 10
181.606
 20
13.6536
 30
0.0
 11
191.506
 21
3.75377
 31
0.0
  0
LINE
  8
0
 62
     0
 10
191.506
 20
3.75377
 30
0.0
 11
201.404
 21
13.6536
 31
0.0
  0
LINE
  8
0
 62
     0
 10
201.404
 20
13.6536
 30
0.0
 11
191.506
 21
23.552
 31
0.0
  0
LINE
  8
0
 62
     0
 10
191.506
 20
23.552
 30
0.0
 11
181.606
 21
13.6536
 31
0.0
  0
LINE
  8
0
 62
     0
 10
122.633
 20
13.6536
 30
0.0
 11
132.533
 21
3.75377
 31
0.0
  0
LINE
  8
0
 62
     0
 10
132.533
 20
3.75377
 30
0.0
 11
142.433
 21
13.6536
 31
0.0
  0
LINE
  8
0
 62
     0
 10
142.433
 20
13.6536
 30
0.0
 11
132.533
 21
23.552
 31
0.0
  0
LINE
  8
0
 62
     0
 10
132.533
 20
23.552
 30
0.0
 11
122.633
 21
13.6536
 31
0.0
  0
LINE
  8
0
 62
     0
 10
198.414
 20
28.8548
 30
0.0
 11
205.414
 21
16.7308
 31
0.0
  0
LINE
  8
0
 62
     0
 10
205.414
 20
16.7308
 30
0.0
 11
217.54
 21
23.7298
 31
0.0
  0
LINE
  8
0
 62
     0
 10
217.54
 20
23.7298
 30
0.0
 11
210.54
 21
35.8539
 31
0.0
  0
LINE
  8
0
 62
     0
 10
210.54
 20
35.8539
 30
0.0
 11
198.414
 21
28.8548
 31
0.0
  0
LINE
  8
0
 62
     0
 10
106.499
 20
23.7298
 30
0.0
 11
118.623
 21
16.7308
 31
0.0
  0
LINE
  8
0
 62
     0
 10
118.623
 20
16.7308
 30
0.0
 11
125.623
 21
28.8548
 31
0.0
  0
LINE
  8
0
 62
     0
 10
125.623
 20
28.8548
 30
0.0
 11
113.498
 21
35.8539
 31
0.0
  0
LINE
  8
0
 62
     0
 10
113.498
 20
35.8539
 30
0.0
 11
106.499
 21
23.7298
 31
0.0
  0
LINE
  8
0
 62
     0
 10
168.136
 20
27.1225
 30
0.0
 11
178.034
 21
17.2227
 31
0.0
  0
LINE
  8
0
 62
     0
 10
178.034
 20
17.2227
 30
0.0
 11
187.934
 21
27.1225
 31
0.0
  0
LINE
  8
0
 62
     0
 10
187.934
 20
27.1225
 30
0.0
 11
178.034
 21
37.0223
 31
0.0
  0
LINE
  8
0
 62
     0
 10
178.034
 20
37.0223
 30
0.0
 11
168.136
 21
27.1225
 31
0.0
  0
LINE
  8
0
 62
     0
 10
136.103
 20
27.1225
 30
0.0
 11
146.003
 21
17.2227
 31
0.0
  0
LINE
  8
0
 62
     0
 10
146.003
 20
17.2227
 30
0.0
 11
155.903
 21
27.1225
 31
0.0
  0
LINE
  8
0
 62
     0
 10
155.903
 20
27.1225
 30
0.0
 11
146.003
 21
37.0223
 31
0.0
  0
LINE
  8
0
 62
     0
 10
146.003
 20
37.0223
 30
0.0
 11
136.103
 21
27.1225
 31
0.0
  0
LINE
  8
0
 62
     0
 10
218.586
 20
39.1873
 30
0.0
 11
222.21
 21
25.6646
 31
0.0
  0
LINE
  8
0
 62
     0
 10
222.21
 20
25.6646
 30
0.0
 11
235.733
 21
29.2888
 31
0.0
  0
LINE
  8
0
 62
     0
 10
235.733
 20
29.2888
 30
0.0
 11
232.108
 21
42.8113
 31
0.0
  0
LINE
  8
0
 62
     0
 10
232.108
 20
42.8113
 30
0.0
 11
218.586
 21
39.1873
 31
0.0
  0
LINE
  8
0
 62
     0
 10
88.3059
 20
29.2888
 30
0.0
 11
101.829
 21
25.6646
 31
0.0
  0
LINE
  8
0
 62
     0
 10
101.829
 20
25.6646
 30
0.0
 11
105.453
 21
39.1873
 31
0.0
  0
LINE
  8
0
 62
     0
 10
105.453
 20
39.1873
 30
0.0
 11
91.9289
 21
42.8113
 31
0.0
  0
LINE
  8
0
 62
     0
 10
91.9289
 20
42.8113
 30
0.0
 11
88.3059
 21
29.2888
 31
0.0
  0
LINE
  8
0
 62
     0
 10
240.745
 20
43.9469
 30
0.0
 11
254.744
 21
43.9469
 31
0.0
  0
LINE
  8
0
 62
     0
 10
254.744
 20
43.9469
 30
0.0
 11
254.744
 21
29.9475
 31
0.0
  0
LINE
  8
0
 62
     0
 10
254.744
 20
29.9475
 30
0.0
 11
240.745
 21
29.9475
 31
0.0
  0
LINE
  8
0
 62
     0
 10
240.745
 20
29.9475
 30
0.0
 11
240.745
 21
43.9469
 31
0.0
  0
LINE
  8
0
 62
     0
 10
69.2947
 20
43.9469
 30
0.0
 11
83.294
 21
43.9469
 31
0.0
  0
LINE
  8
0
 62
     0
 10
83.294
 20
43.9469
 30
0.0
 11
83.294
 21
29.9475
 31
0.0
  0
LINE
  8
0
 62
     0
 10
83.294
 20
29.9475
 30
0.0
 11
69.2947
 21
29.9475
 31
0.0
  0
LINE
  8
0
 62
     0
 10
69.2947
 20
29.9475
 30
0.0
 11
69.2947
 21
43.9469
 31
0.0
  0
LINE
  8
0
 62
     0
 10
259.795
 20
43.9469
 30
0.0
 11
273.794
 21
43.9469
 31
0.0
  0
LINE
  8
0
 62
     0
 10
273.794
 20
43.9469
 30
0.0
 11
273.794
 21
29.9475
 31
0.0
  0
LINE
  8
0
 62
     0
 10
273.794
 20
29.9475
 30
0.0
 11
259.795
 21
29.9475
 31
0.0
  0
LINE
  8
0
 62
     0
 10
259.795
 20
29.9475
 30
0.0
 11
259.795
 21
43.9469
 31
0.0
  0
LINE
  8
0
 62
     0
 10
50.2447
 20
43.9469
 30
0.0
 11
64.244
 21
43.9469
 31
0.0
  0
LINE
  8
0
 62
     0
 10
64.244
 20
43.9469
 30
0.0
 11
64.244
 21
29.9475
 31
0.0
  0
LINE
  8
0
 62
     0
 10
64.244
 20
29.9475
 30
0.0
 11
50.2447
 21
29.9475
 31
0.0
  0
LINE
  8
0
 62
     0
 10
50.2447
 20
29.9475
 30
0.0
 11
50.2447
 21
43.9469
 31
0.0
  0
LINE
  8
0
 62
     0
 10
188.889
 20
45.3528
 30
0.0
 11
195.889
 21
33.2286
 31
0.0
  0
LINE
  8
0
 62
     0
 10
195.889
 20
33.2286
 30
0.0
 11
208.015
 21
40.2276
 31
0.0
  0
LINE
  8
0
 62
     0
 10
208.015
 20
40.2276
 30
0.0
 11
201.015
 21
52.3515
 31
0.0
  0
LINE
  8
0
 62
     0
 10
201.015
 20
52.3515
 30
0.0
 11
188.889
 21
45.3528
 31
0.0
  0
LINE
  8
0
 62
     0
 10
116.024
 20
40.2276
 30
0.0
 11
128.148
 21
33.2286
 31
0.0
  0
LINE
  8
0
 62
     0
 10
128.148
 20
33.2286
 30
0.0
 11
135.148
 21
45.3528
 31
0.0
  0
LINE
  8
0
 62
     0
 10
135.148
 20
45.3528
 30
0.0
 11
123.023
 21
52.3515
 31
0.0
  0
LINE
  8
0
 62
     0
 10
123.023
 20
52.3515
 30
0.0
 11
116.024
 21
40.2276
 31
0.0
  0
LINE
  8
0
 62
     0
 10
307.42
 20
53.4719
 30
0.0
 11
321.419
 21
53.4719
 31
0.0
  0
LINE
  8
0
 62
     0
 10
321.419
 20
53.4719
 30
0.0
 11
321.419
 21
39.4727
 31
0.0
  0
LINE
  8
0
 62
     0
 10
321.419
 20
39.4727
 30
0.0
 11
307.42
 21
39.4727
 31
0.0
  0
LINE
  8
0
 62
     0
 10
307.42
 20
39.4727
 30
0.0
 11
307.42
 21
53.4719
 31
0.0
  0
LINE
  8
0
 62
     0
 10
288.37
 20
53.4719
 30
0.0
 11
302.369
 21
53.4719
 31
0.0
  0
LINE
  8
0
 62
     0
 10
302.369
 20
53.4719
 30
0.0
 11
302.369
 21
39.4727
 31
0.0
  0
LINE
  8
0
 62
     0
 10
302.369
 20
39.4727
 30
0.0
 11
288.37
 21
39.4727
 31
0.0
  0
LINE
  8
0
 62
     0
 10
288.37
 20
39.4727
 30
0.0
 11
288.37
 21
53.4719
 31
0.0
  0
LINE
  8
0
 62
     0
 10
21.6697
 20
53.4719
 30
0.0
 11
35.669
 21
53.4719
 31
0.0
  0
LINE
  8
0
 62
     0
 10
35.669
 20
53.4719
 30
0.0
 11
35.669
 21
39.4727
 31
0.0
  0
LINE
  8
0
 62
     0
 10
35.669
 20
39.4727
 30
0.0
 11
21.6697
 21
39.4727
 31
0.0
  0
LINE
  8
0
 62
     0
 10
21.6697
 20
39.4727
 30
0.0
 11
21.6697
 21
53.4719
 31
0.0
  0
LINE
  8
0
 62
     0
 10
2.61965
 20
53.4719
 30
0.0
 11
16.6192
 21
53.4719
 31
0.0
  0
LINE
  8
0
 62
     0
 10
16.6192
 20
53.4719
 30
0.0
 11
16.6192
 21
39.4727
 31
0.0
  0
LINE
  8
0
 62
     0
 10
16.6192
 20
39.4727
 30
0.0
 11
2.61965
 21
39.4727
 31
0.0
  0
LINE
  8
0
 62
     0
 10
2.61965
 20
39.4727
 30
0.0
 11
2.61965
 21
53.4719
 31
0.0
  0
LINE
  8
0
 62
     0
 10
212.17
 20
60.6157
 30
0.0
 11
226.169
 21
60.6157
 31
0.0
  0
LINE
  8
0
 62
     0
 10
226.169
 20
60.6157
 30
0.0
 11
226.169
 21
46.6164
 31
0.0
  0
LINE
  8
0
 62
     0
 10
226.169
 20
46.6164
 30
0.0
 11
212.17
 21
46.6164
 31
0.0
  0
LINE
  8
0
 62
     0
 10
212.17
 20
46.6164
 30
0.0
 11
212.17
 21
60.6157
 31
0.0
  0
LINE
  8
0
 62
     0
 10
97.8697
 20
60.6157
 30
0.0
 11
111.869
 21
60.6157
 31
0.0
  0
LINE
  8
0
 62
     0
 10
111.869
 20
60.6157
 30
0.0
 11
111.869
 21
46.6164
 31
0.0
  0
LINE
  8
0
 62
     0
 10
111.869
 20
46.6164
 30
0.0
 11
97.8697
 21
46.6164
 31
0.0
  0
LINE
  8
0
 62
     0
 10
97.8697
 20
46.6164
 30
0.0
 11
97.8697
 21
60.6157
 31
0.0
  0
LINE
  8
0
 62
     0
 10
269.32
 20
62.9969
 30
0.0
 11
283.319
 21
62.9969
 31
0.0
  0
LINE
  8
0
 62
     0
 10
283.319
 20
62.9969
 30
0.0
 11
283.319
 21
48.9977
 31
0.0
  0
LINE
  8
0
 62
     0
 10
283.319
 20
48.9977
 30
0.0
 11
269.32
 21
48.9977
 31
0.0
  0
LINE
  8
0
 62
     0
 10
269.32
 20
48.9977
 30
0.0
 11
269.32
 21
62.9969
 31
0.0
  0
LINE
  8
0
 62
     0
 10
231.22
 20
62.9969
 30
0.0
 11
245.219
 21
62.9969
 31
0.0
  0
LINE
  8
0
 62
     0
 10
245.219
 20
62.9969
 30
0.0
 11
245.219
 21
48.9977
 31
0.0
  0
LINE
  8
0
 62
     0
 10
245.219
 20
48.9977
 30
0.0
 11
231.22
 21
48.9977
 31
0.0
  0
LINE
  8
0
 62
     0
 10
231.22
 20
48.9977
 30
0.0
 11
231.22
 21
62.9969
 31
0.0
  0
LINE
  8
0
 62
     0
 10
78.8197
 20
62.9969
 30
0.0
 11
92.819
 21
62.9969
 31
0.0
  0
LINE
  8
0
 62
     0
 10
92.819
 20
62.9969
 30
0.0
 11
92.819
 21
48.9977
 31
0.0
  0
LINE
  8
0
 62
     0
 10
92.819
 20
48.9977
 30
0.0
 11
78.8197
 21
48.9977
 31
0.0
  0
LINE
  8
0
 62
     0
 10
78.8197
 20
48.9977
 30
0.0
 11
78.8197
 21
62.9969
 31
0.0
  0
LINE
  8
0
 62
     0
 10
40.7197
 20
62.9969
 30
0.0
 11
54.719
 21
62.9969
 31
0.0
  0
LINE
  8
0
 62
     0
 10
54.719
 20
62.9969
 30
0.0
 11
54.719
 21
48.9977
 31
0.0
  0
LINE
  8
0
 62
     0
 10
54.719
 20
48.9977
 30
0.0
 11
40.7197
 21
48.9977
 31
0.0
  0
LINE
  8
0
 62
     0
 10
40.7197
 20
48.9977
 30
0.0
 11
40.7197
 21
62.9969
 31
0.0
  0
LINE
  8
0
 62
     0
 10
250.27
 20
67.7594
 30
0.0
 11
264.269
 21
67.7594
 31
0.0
  0
LINE
  8
0
 62
     0
 10
264.269
 20
67.7594
 30
0.0
 11
264.269
 21
53.7602
 31
0.0
  0
LINE
  8
0
 62
     0
 10
264.269
 20
53.7602
 30
0.0
 11
250.27
 21
53.7602
 31
0.0
  0
LINE
  8
0
 62
     0
 10
250.27
 20
53.7602
 30
0.0
 11
250.27
 21
67.7594
 31
0.0
  0
LINE
  8
0
 62
     0
 10
59.7697
 20
67.7594
 30
0.0
 11
73.769
 21
67.7594
 31
0.0
  0
LINE
  8
0
 62
     0
 10
73.769
 20
67.7594
 30
0.0
 11
73.769
 21
53.7602
 31
0.0
  0
LINE
  8
0
 62
     0
 10
73.769
 20
53.7602
 30
0.0
 11
59.7697
 21
53.7602
 31
0.0
  0
LINE
  8
0
 62
     0
 10
59.7697
 20
53.7602
 30
0.0
 11
59.7697
 21
67.7594
 31
0.0
  0
LINE
  8
0
 62
     0
 10
307.42
 20
72.5219
 30
0.0
 11
321.419
 21
72.5219
 31
0.0
  0
LINE
  8
0
 62
     0
 10
321.419
 20
72.5219
 30
0.0
 11
321.419
 21
58.5227
 31
0.0
  0
LINE
  8
0
 62
     0
 10
321.419
 20
58.5227
 30
0.0
 11
307.42
 21
58.5227
 31
0.0
  0
LINE
  8
0
 62
     0
 10
307.42
 20
58.5227
 30
0.0
 11
307.42
 21
72.5219
 31
0.0
  0
LINE
  8
0
 62
     0
 10
288.37
 20
72.5219
 30
0.0
 11
302.369
 21
72.5219
 31
0.0
  0
LINE
  8
0
 62
     0
 10
302.369
 20
72.5219
 30
0.0
 11
302.369
 21
58.5227
 31
0.0
  0
LINE
  8
0
 62
     0
 10
302.369
 20
58.5227
 30
0.0
 11
288.37
 21
58.5227
 31
0.0
  0
LINE
  8
0
 62
     0
 10
288.37
 20
58.5227
 30
0.0
 11
288.37
 21
72.5219
 31
0.0
  0
LINE
  8
0
 62
     0
 10
21.6697
 20
72.5219
 30
0.0
 11
35.669
 21
72.5219
 31
0.0
  0
LINE
  8
0
 62
     0
 10
35.669
 20
72.5219
 30
0.0
 11
35.669
 21
58.5227
 31
0.0
  0
LINE
  8
0
 62
     0
 10
35.669
 20
58.5227
 30
0.0
 11
21.6697
 21
58.5227
 31
0.0
  0
LINE
  8
0
 62
     0
 10
21.6697
 20
58.5227
 30
0.0
 11
21.6697
 21
72.5219
 31
0.0
  0
LINE
  8
0
 62
     0
 10
2.61965
 20
72.5219
 30
0.0
 11
16.6192
 21
72.5219
 31
0.0
  0
LINE
  8
0
 62
     0
 10
16.6192
 20
72.5219
 30
0.0
 11
16.6192
 21
58.5227
 31
0.0
  0
LINE
  8
0
 62
     0
 10
16.6192
 20
58.5227
 30
0.0
 11
2.61965
 21
58.5227
 31
0.0
  0
LINE
  8
0
 62
     0
 10
2.61965
 20
58.5227
 30
0.0
 11
2.61965
 21
72.5219
 31
0.0
  0
LINE
  8
0
 62
     0
 10
212.17
 20
79.6657
 30
0.0
 11
226.169
 21
79.6657
 31
0.0
  0
LINE
  8
0
 62
     0
 10
226.169
 20
79.6657
 30
0.0
 11
226.169
 21
65.6664
 31
0.0
  0
LINE
  8
0
 62
     0
 10
226.169
 20
65.6664
 30
0.0
 11
212.17
 21
65.6664
 31
0.0
  0
LINE
  8
0
 62
     0
 10
212.17
 20
65.6664
 30
0.0
 11
212.17
 21
79.6657
 31
0.0
  0
LINE
  8
0
 62
     0
 10
97.8697
 20
79.6657
 30
0.0
 11
111.869
 21
79.6657
 31
0.0
  0
LINE
  8
0
 62
     0
 10
111.869
 20
79.6657
 30
0.0
 11
111.869
 21
65.6664
 31
0.0
  0
LINE
  8
0
 62
     0
 10
111.869
 20
65.6664
 30
0.0
 11
97.8697
 21
65.6664
 31
0.0
  0
LINE
  8
0
 62
     0
 10
97.8697
 20
65.6664
 30
0.0
 11
97.8697
 21
79.6657
 31
0.0
  0
LINE
  8
0
 62
     0
 10
269.32
 20
82.0469
 30
0.0
 11
283.319
 21
82.0469
 31
0.0
  0
LINE
  8
0
 62
     0
 10
283.319
 20
82.0469
 30
0.0
 11
283.319
 21
68.0477
 31
0.0
  0
LINE
  8
0
 62
     0
 10
283.319
 20
68.0477
 30
0.0
 11
269.32
 21
68.0477
 31
0.0
  0
LINE
  8
0
 62
     0
 10
269.32
 20
68.0477
 30
0.0
 11
269.32
 21
82.0469
 31
0.0
  0
LINE
  8
0
 62
     0
 10
231.22
 20
82.0469
 30
0.0
 11
245.219
 21
82.0469
 31
0.0
  0
LINE
  8
0
 62
     0
 10
245.219
 20
82.0469
 30
0.0
 11
245.219
 21
68.0477
 31
0.0
  0
LINE
  8
0
 62
     0
 10
245.219
 20
68.0477
 30
0.0
 11
231.22
 21
68.0477
 31
0.0
  0
LINE
  8
0
 62
     0
 10
231.22
 20
68.0477
 30
0.0
 11
231.22
 21
82.0469
 31
0.0
  0
LINE
  8
0
 62
     0
 10
78.8197
 20
82.0469
 30
0.0
 11
92.819
 21
82.0469
 31
0.0
  0
LINE
  8
0
 62
     0
 10
92.819
 20
82.0469
 30
0.0
 11
92.819
 21
68.0477
 31
0.0
  0
LINE
  8
0
 62
     0
 10
92.819
 20
68.0477
 30
0.0
 11
78.8197
 21
68.0477
 31
0.0
  0
LINE
  8
0
 62
     0
 10
78.8197
 20
68.0477
 30
0.0
 11
78.8197
 21
82.0469
 31
0.0
  0
LINE
  8
0
 62
     0
 10
40.7197
 20
82.0469
 30
0.0
 11
54.719
 21
82.0469
 31
0.0
  0
LINE
  8
0
 62
     0
 10
54.719
 20
82.0469
 30
0.0
 11
54.719
 21
68.0477
 31
0.0
  0
LINE
  8
0
 62
     0
 10
54.719
 20
68.0477
 30
0.0
 11
40.7197
 21
68.0477
 31
0.0
  0
LINE
  8
0
 62
     0
 10
40.7197
 20
68.0477
 30
0.0
 11
40.7197
 21
82.0469
 31
0.0
  0
LINE
  8
0
 62
     0
 10
250.27
 20
86.8094
 30
0.0
 11
264.269
 21
86.8094
 31
0.0
  0
LINE
  8
0
 62
     0
 10
264.269
 20
86.8094
 30
0.0
 11
264.269
 21
72.8102
 31
0.0
  0
LINE
  8
0
 62
     0
 10
264.269
 20
72.8102
 30
0.0
 11
250.27
 21
72.8102
 31
0.0
  0
LINE
  8
0
 62
     0
 10
250.27
 20
72.8102
 30
0.0
 11
250.27
 21
86.8094
 31
0.0
  0
LINE
  8
0
 62
     0
 10
59.7697
 20
86.8094
 30
0.0
 11
73.769
 21
86.8094
 31
0.0
  0
LINE
  8
0
 62
     0
 10
73.769
 20
86.8094
 30
0.0
 11
73.769
 21
72.8102
 31
0.0
  0
LINE
  8
0
 62
     0
 10
73.769
 20
72.8102
 30
0.0
 11
59.7697
 21
72.8102
 31
0.0
  0
LINE
  8
0
 62
     0
 10
59.7697
 20
72.8102
 30
0.0
 11
59.7697
 21
86.8094
 31
0.0
  0
LINE
  8
0
 62
     0
 10
307.42
 20
91.5719
 30
0.0
 11
321.419
 21
91.5719
 31
0.0
  0
LINE
  8
0
 62
     0
 10
321.419
 20
91.5719
 30
0.0
 11
321.419
 21
77.5727
 31
0.0
  0
LINE
  8
0
 62
     0
 10
321.419
 20
77.5727
 30
0.0
 11
307.42
 21
77.5727
 31
0.0
  0
LINE
  8
0
 62
     0
 10
307.42
 20
77.5727
 30
0.0
 11
307.42
 21
91.5719
 31
0.0
  0
LINE
  8
0
 62
     0
 10
288.37
 20
91.5719
 30
0.0
 11
302.369
 21
91.5719
 31
0.0
  0
LINE
  8
0
 62
     0
 10
302.369
 20
91.5719
 30
0.0
 11
302.369
 21
77.5727
 31
0.0
  0
LINE
  8
0
 62
     0
 10
302.369
 20
77.5727
 30
0.0
 11
288.37
 21
77.5727
 31
0.0
  0
LINE
  8
0
 62
     0
 10
288.37
 20
77.5727
 30
0.0
 11
288.37
 21
91.5719
 31
0.0
  0
LINE
  8
0
 62
     0
 10
21.6697
 20
91.5719
 30
0.0
 11
35.669
 21
91.5719
 31
0.0
  0
LINE
  8
0
 62
     0
 10
35.669
 20
91.5719
 30
0.0
 11
35.669
 21
77.5727
 31
0.0
  0
LINE
  8
0
 62
     0
 10
35.669
 20
77.5727
 30
0.0
 11
21.6697
 21
77.5727
 31
0.0
  0
LINE
  8
0
 62
     0
 10
21.6697
 20
77.5727
 30
0.0
 11
21.6697
 21
91.5719
 31
0.0
  0
LINE
  8
0
 62
     0
 10
2.61965
 20
91.5719
 30
0.0
 11
16.6192
 21
91.5719
 31
0.0
  0
LINE
  8
0
 62
     0
 10
16.6192
 20
91.5719
 30
0.0
 11
16.6192
 21
77.5727
 31
0.0
  0
LINE
  8
0
 62
     0
 10
16.6192
 20
77.5727
 30
0.0
 11
2.61965
 21
77.5727
 31
0.0
  0
LINE
  8
0
 62
     0
 10
2.61965
 20
77.5727
 30
0.0
 11
2.61965
 21
91.5719
 31
0.0
  0
LINE
  8
0
 62
     0
 10
212.17
 20
98.7157
 30
0.0
 11
226.169
 21
98.7157
 31
0.0
  0
LINE
  8
0
 62
     0
 10
226.169
 20
98.7157
 30
0.0
 11
226.169
 21
84.7164
 31
0.0
  0
LINE
  8
0
 62
     0
 10
226.169
 20
84.7164
 30
0.0
 11
212.17
 21
84.7164
 31
0.0
  0
LINE
  8
0
 62
     0
 10
212.17
 20
84.7164
 30
0.0
 11
212.17
 21
98.7157
 31
0.0
  0
LINE
  8
0
 62
     0
 10
97.8697
 20
98.7157
 30
0.0
 11
111.869
 21
98.7157
 31
0.0
  0
LINE
  8
0
 62
     0
 10
111.869
 20
98.7157
 30
0.0
 11
111.869
 21
84.7164
 31
0.0
  0
LINE
  8
0
 62
     0
 10
111.869
 20
84.7164
 30
0.0
 11
97.8697
 21
84.7164
 31
0.0
  0
LINE
  8
0
 62
     0
 10
97.8697
 20
84.7164
 30
0.0
 11
97.8697
 21
98.7157
 31
0.0
  0
LINE
  8
0
 62
     0
 10
269.32
 20
101.097
 30
0.0
 11
283.319
 21
101.097
 31
0.0
  0
LINE
  8
0
 62
     0
 10
283.319
 20
101.097
 30
0.0
 11
283.319
 21
87.0977
 31
0.0
  0
LINE
  8
0
 62
     0
 10
283.319
 20
87.0977
 30
0.0
 11
269.32
 21
87.0977
 31
0.0
  0
LINE
  8
0
 62
     0
 10
269.32
 20
87.0977
 30
0.0
 11
269.32
 21
101.097
 31
0.0
  0
LINE
  8
0
 62
     0
 10
231.22
 20
101.097
 30
0.0
 11
245.219
 21
101.097
 31
0.0
  0
LINE
  8
0
 62
     0
 10
245.219
 20
101.097
 30
0.0
 11
245.219
 21
87.0977
 31
0.0
  0
LINE
  8
0
 62
     0
 10
245.219
 20
87.0977
 30
0.0
 11
231.22
 21
87.0977
 31
0.0
  0
LINE
  8
0
 62
     0
 10
231.22
 20
87.0977
 30
0.0
 11
231.22
 21
101.097
 31
0.0
  0
LINE
  8
0
 62
     0
 10
78.8197
 20
101.097
 30
0.0
 11
92.819
 21
101.097
 31
0.0
  0
LINE
  8
0
 62
     0
 10
92.819
 20
101.097
 30
0.0
 11
92.819
 21
87.0977
 31
0.0
  0
LINE
  8
0
 62
     0
 10
92.819
 20
87.0977
 30
0.0
 11
78.8197
 21
87.0977
 31
0.0
  0
LINE
  8
0
 62
     0
 10
78.8197
 20
87.0977
 30
0.0
 11
78.8197
 21
101.097
 31
0.0
  0
LINE
  8
0
 62
     0
 10
40.7197
 20
101.097
 30
0.0
 11
54.719
 21
101.097
 31
0.0
  0
LINE
  8
0
 62
     0
 10
54.719
 20
101.097
 30
0.0
 11
54.719
 21
87.0977
 31
0.0
  0
LINE
  8
0
 62
     0
 10
54.719
 20
87.0977
 30
0.0
 11
40.7197
 21
87.0977
 31
0.0
  0
LINE
  8
0
 62
     0
 10
40.7197
 20
87.0977
 30
0.0
 11
40.7197
 21
101.097
 31
0.0
  0
LINE
  8
0
 62
     0
 10
250.27
 20
105.859
 30
0.0
 11
264.269
 21
105.859
 31
0.0
  0
LINE
  8
0
 62
     0
 10
264.269
 20
105.859
 30
0.0
 11
264.269
 21
91.8602
 31
0.0
  0
LINE
  8
0
 62
     0
 10
264.269
 20
91.8602
 30
0.0
 11
250.27
 21
91.8602
 31
0.0
  0
LINE
  8
0
 62
     0
 10
250.27
 20
91.8602
 30
0.0
 11
250.27
 21
105.859
 31
0.0
  0
LINE
  8
0
 62
     0
 10
59.7697
 20
105.859
 30
0.0
 11
73.769
 21
105.859
 31
0.0
  0
LINE
  8
0
 62
     0
 10
73.769
 20
105.859
 30
0.0
 11
73.769
 21
91.8602
 31
0.0
  0
LINE
  8
0
 62
     0
 10
73.769
 20
91.8602
 30
0.0
 11
59.7697
 21
91.8602
 31
0.0
  0
LINE
  8
0
 62
     0
 10
59.7697
 20
91.8602
 30
0.0
 11
59.7697
 21
105.859
 31
0.0
  0
ENDSEC
  0
EOF
