%TF.GenerationSoftware,KiCad,Pcbnew,(5.99.0-1351-gc977addfa)*%
%TF.CreationDate,2020-06-03T21:02:33-07:00*%
%TF.ProjectId,NonSplitKyria,4e6f6e53-706c-4697-944b-797269612e6b,rev?*%
%TF.SameCoordinates,Original*%
%TF.FileFunction,Profile,NP*%
%FSLAX46Y46*%
G04 Gerber Fmt 4.6, Leading zero omitted, Abs format (unit mm)*
G04 Created by KiCad (PCBNEW (5.99.0-1351-gc977addfa)) date 2020-06-03 21:02:33*
%MOMM*%
%LPD*%
G01*
G04 APERTURE LIST*
%TA.AperFunction,Profile*%
%ADD10C,0.200000*%
%TD*%
%ADD11C,-0.000002*%
G04 APERTURE END LIST*
D10*
D11*
X15875000Y-78581250D02*
G75*
G02*
X13493750Y-76200000I0J2381250D01*
G01*
D10*
D11*
X13493750Y-23812500D02*
G75*
G02*
X15875000Y-21431250I2381250J0D01*
G01*
D10*
X32543750Y-21431250D02*
X15875000Y-21431250D01*
X13493750Y-76200000D02*
X13493750Y-23812500D01*
X51593750Y-78581250D02*
X15875000Y-78581250D01*
D11*
X337343750Y-76200000D02*
G75*
G02*
X334962500Y-78581250I-2381250J0D01*
G01*
D10*
D11*
X334962500Y-21431250D02*
G75*
G02*
X337343750Y-23812500I0J-2381250D01*
G01*
D10*
X318293750Y-21431250D02*
X334962500Y-21431250D01*
X337343750Y-76200000D02*
X337343750Y-23812500D01*
X299243750Y-78581250D02*
X334962500Y-78581250D01*
X318293750Y-21431250D02*
X299243750Y-11906250D01*
X280193750Y-7143750D02*
X299243750Y-11906250D01*
X242093750Y-11906250D02*
X261143750Y-7143750D01*
X223043750Y-14287500D02*
X242093750Y-11906250D01*
X108743750Y-11906250D02*
X127793750Y-14287500D01*
X89693750Y-7143750D02*
X108743750Y-11906250D01*
X70643750Y-7143750D02*
X51593750Y-11906250D01*
X32543750Y-21431250D02*
X51593750Y-11906250D01*
X61118750Y-88106250D02*
X51593750Y-78581250D01*
X289718750Y-88106250D02*
X299243750Y-78581250D01*
X168123750Y-9685000D02*
X127793750Y-14287500D01*
X223043750Y-14287500D02*
X183363750Y-9685000D01*
X70643750Y-7143750D02*
X89693750Y-7143750D01*
X280193750Y-7143750D02*
X261143750Y-7143750D01*
X252412500Y-88106250D02*
X289718750Y-88106250D01*
X234156250Y-92868750D02*
X252412500Y-88106250D01*
X217930000Y-102260000D02*
X234156250Y-92868750D01*
X132940000Y-102220000D02*
X217930000Y-102260000D01*
X116681250Y-92868750D02*
X132940000Y-102220000D01*
X98425000Y-88106250D02*
X116681250Y-92868750D01*
X61118750Y-88106250D02*
X98425000Y-88106250D01*
%TO.C,J1*%
X171073750Y-9685000D02*
X168123750Y-9685000D01*
X171073750Y-15285000D02*
X171073750Y-9685000D01*
X179594134Y-15285000D02*
X179493750Y-15285000D01*
X180413750Y-9685000D02*
X180413750Y-15285000D01*
X183363750Y-9685000D02*
X180413750Y-9685000D01*
X178281316Y-15985000D02*
X173206184Y-15985000D01*
X171893366Y-15285000D02*
X171993750Y-15285000D01*
D11*
X172712551Y-15700000D02*
G75*
G03*
X171993750Y-15285000I-718801J-415000D01*
G01*
D10*
D11*
X178774949Y-15700000D02*
G75*
G02*
X179493750Y-15285000I718801J-415000D01*
G01*
D10*
D11*
X171633558Y-15435000D02*
G75*
G02*
X171073750Y-15285000I-259808J150000D01*
G01*
D10*
D11*
X171633558Y-15435000D02*
G75*
G02*
X171893366Y-15285000I259808J-150000D01*
G01*
D10*
D11*
X172712551Y-15700000D02*
G75*
G03*
X173206185Y-15985000I493634J285000D01*
G01*
D10*
D11*
X178774949Y-15700000D02*
G75*
G02*
X178281315Y-15985000I-493634J285000D01*
G01*
D10*
D11*
X179853942Y-15435000D02*
G75*
G03*
X179594134Y-15285000I-259808J-150000D01*
G01*
D10*
D11*
X179853942Y-15435000D02*
G75*
G03*
X180413750Y-15285000I259808J150000D01*
G01*
%TD*%
M02*
