M48
; DRILL file {KiCad (5.99.0-1351-gc977addfa)} date 06/03/20 21:02:39
; FORMAT={3:3/ absolute / metric / suppress leading zeros}
; #@! TF.CreationDate,2020-06-03T21:02:39-07:00
; #@! TF.GenerationSoftware,Kicad,Pcbnew,(5.99.0-1351-gc977addfa)
FMAT,2
METRIC,TZ
T1C0.400
T2C0.500
T3C1.470
T4C0.400
T5C1.750
T6C3.988
%
G90
G05
T1
X38350Y-25151
X51594Y-26194
X55563Y-18256
X70644Y-20638
X80169Y-7938
X89694Y-20638
X108744Y-23019
X123031Y-21431
X127794Y-42863
X166388Y-32600
X170913Y-26575
X172244Y-56356
X172244Y-65087
X172244Y-73819
X172560Y-21397
X173175Y-47387
X173831Y-60325
X175575Y-32563
X178188Y-21475
X178594Y-61119
X178594Y-77788
X179563Y-32550
X180181Y-56356
X180181Y-65087
X180181Y-73819
X182075Y-32563
X183138Y-47375
X231775Y-19050
X242094Y-22225
X242094Y-42069
X242094Y-60325
X261144Y-19844
X280194Y-22225
X294481Y-24606
X305000Y-25151
X324075Y-24900
T3
X66834Y-76041
X73184Y-73501
X304959Y-66516
X311309Y-63976
X19209Y-66516
X25559Y-63976
X38259Y-66516
X44609Y-63976
X266859Y-14129
X273209Y-11589
X247809Y-18891
X254159Y-16351
X304959Y-47466
X311309Y-44926
X95409Y-37941
X101759Y-35401
X285909Y-37941
X292259Y-35401
X266859Y-33179
X273209Y-30639
X114459Y-40322
X120809Y-37783
X19209Y-47466
X25559Y-44926
X247809Y-37941
X254159Y-35401
X228759Y-40322
X235109Y-37783
X324009Y-47466
X330359Y-44926
X76359Y-33179
X82709Y-30639
X57309Y-37941
X63659Y-35401
X38259Y-47466
X44609Y-44926
X324009Y-28416
X330359Y-25876
X304959Y-28416
X311309Y-25876
X285909Y-18891
X292259Y-16351
X266859Y-52229
X273209Y-49689
X247809Y-56991
X254159Y-54451
X228759Y-59372
X235109Y-56832
X114459Y-59372
X120809Y-56832
X95409Y-56991
X101759Y-54451
X285909Y-56991
X292259Y-54451
X324009Y-66516
X330359Y-63976
X76359Y-52229
X82709Y-49689
X57309Y-56991
X63659Y-54451
X19209Y-28416
X25559Y-25876
X228759Y-21272
X235109Y-18733
X38259Y-28416
X44609Y-25876
X114459Y-21272
X120809Y-18733
X57309Y-18891
X63659Y-16351
X76359Y-14129
X82709Y-11589
X95409Y-18891
X101759Y-16351
X257334Y-76041
X263684Y-73501
X236237Y-79858
X241714Y-75761
X107252Y-77860
X114043Y-77050
X85884Y-76041
X92234Y-73501
X276384Y-76041
X282734Y-73501
X127445Y-85120
X134215Y-86096
X216830Y-88955
X221060Y-83581
T4
X171994Y-16115
X179494Y-16115
T5
X65564Y-78581
X75724Y-78581
X303689Y-69056
X313849Y-69056
X17939Y-69056
X28099Y-69056
X36989Y-69056
X47149Y-69056
X265589Y-16669
X275749Y-16669
X246539Y-21431
X256699Y-21431
X303689Y-50006
X313849Y-50006
X94139Y-40481
X104299Y-40481
X284639Y-40481
X294799Y-40481
X265589Y-35719
X275749Y-35719
X113189Y-42863
X123349Y-42863
X17939Y-50006
X28099Y-50006
X246539Y-40481
X256699Y-40481
X227489Y-42863
X237649Y-42863
X322739Y-50006
X332899Y-50006
X75089Y-35719
X85249Y-35719
X56039Y-40481
X66199Y-40481
X36989Y-50006
X47149Y-50006
X322739Y-30956
X332899Y-30956
X303689Y-30956
X313849Y-30956
X284639Y-21431
X294799Y-21431
X265589Y-54769
X275749Y-54769
X246539Y-59531
X256699Y-59531
X227489Y-61913
X237649Y-61913
X113189Y-61913
X123349Y-61913
X94139Y-59531
X104299Y-59531
X284639Y-59531
X294799Y-59531
X322739Y-69056
X332899Y-69056
X75089Y-54769
X85249Y-54769
X56039Y-59531
X66199Y-59531
X17939Y-30956
X28099Y-30956
X227489Y-23813
X237649Y-23813
X36989Y-30956
X47149Y-30956
X113189Y-23813
X123349Y-23813
X56039Y-21431
X66199Y-21431
X75089Y-16669
X85249Y-16669
X94139Y-21431
X104299Y-21431
X256064Y-78581
X266224Y-78581
X235668Y-82640
X245482Y-80010
X105368Y-79985
X115182Y-82615
X84614Y-78581
X94774Y-78581
X275114Y-78581
X285274Y-78581
X125076Y-86685
X133874Y-91765
X217001Y-91790
X225799Y-86710
T6
X70644Y-78581
X308769Y-69056
X23019Y-69056
X42069Y-69056
X270669Y-16669
X251619Y-21431
X308769Y-50006
X99219Y-40481
X289719Y-40481
X270669Y-35719
X118269Y-42863
X23019Y-50006
X251619Y-40481
X232569Y-42863
X327819Y-50006
X80169Y-35719
X61119Y-40481
X42069Y-50006
X327819Y-30956
X308769Y-30956
X289719Y-21431
X270669Y-54769
X251619Y-59531
X232569Y-61913
X118269Y-61913
X99219Y-59531
X289719Y-59531
X327819Y-69056
X80169Y-54769
X61119Y-59531
X23019Y-30956
X232569Y-23813
X42069Y-30956
X118269Y-23813
X61119Y-21431
X80169Y-16669
X99219Y-21431
X261144Y-78581
X240575Y-81325
X110275Y-81300
X89694Y-78581
X280194Y-78581
X129475Y-89225
X221400Y-89250
T2
G00X170169Y-12010
M15
G01X170169Y-10860
M16
G05
G00X170169Y-16610
M15
G01X170169Y-15460
M16
G05
G00X181319Y-12010
M15
G01X181319Y-10860
M16
G05
G00X181319Y-16610
M15
G01X181319Y-15460
M16
G05
T0
M30
