%TF.GenerationSoftware,KiCad,Pcbnew,(5.99.0-1351-gc977addfa)*%
%TF.CreationDate,2020-06-03T20:56:01-07:00*%
%TF.ProjectId,NonSplitKyria,4e6f6e53-706c-4697-944b-797269612e6b,rev?*%
%TF.SameCoordinates,Original*%
%TF.FileFunction,Legend,Bot*%
%TF.FilePolarity,Positive*%
%FSLAX46Y46*%
G04 Gerber Fmt 4.6, Leading zero omitted, Abs format (unit mm)*
G04 Created by KiCad (PCBNEW (5.99.0-1351-gc977addfa)) date 2020-06-03 20:56:01*
%MOMM*%
%LPD*%
G01*
G04 APERTURE LIST*
%ADD10C,0.200000*%
G04 APERTURE END LIST*
%TO.C,REF\u002A\u002A*%
G36*
X208611177Y-101326471D02*
G01*
X201638628Y-101326471D01*
X201638628Y-99608235D01*
X208611177Y-99608235D01*
X208611177Y-101326471D01*
G37*
D10*
X208611177Y-101326471D02*
X201638628Y-101326471D01*
X201638628Y-99608235D01*
X208611177Y-99608235D01*
X208611177Y-101326471D01*
G36*
X207103486Y-90915300D02*
G01*
X207182013Y-90917451D01*
X207316275Y-90917451D01*
X207316275Y-91141569D01*
X207000339Y-91141569D01*
X206970841Y-91493645D01*
X206966880Y-91541779D01*
X206957653Y-91662272D01*
X206951134Y-91760319D01*
X206947888Y-91826866D01*
X206948478Y-91852857D01*
X206957060Y-91845385D01*
X206996217Y-91806437D01*
X207063912Y-91737404D01*
X207156718Y-91641866D01*
X207271211Y-91523400D01*
X207403963Y-91385586D01*
X207551550Y-91232002D01*
X207710546Y-91066226D01*
X207877525Y-90891838D01*
X208049061Y-90712415D01*
X208221729Y-90531537D01*
X208392103Y-90352782D01*
X208556757Y-90179729D01*
X208712266Y-90015956D01*
X208855204Y-89865041D01*
X208982145Y-89730564D01*
X209089664Y-89616103D01*
X209281779Y-89410882D01*
X209283529Y-89760520D01*
X206904931Y-92262026D01*
X206881157Y-92547099D01*
X206786037Y-93687729D01*
X206769225Y-93890036D01*
X206748365Y-94143172D01*
X206729113Y-94379146D01*
X206711836Y-94593320D01*
X206696904Y-94781058D01*
X206684685Y-94937720D01*
X206675546Y-95058669D01*
X206669856Y-95139266D01*
X206667983Y-95174873D01*
X206672927Y-95191189D01*
X206695148Y-95226420D01*
X206737292Y-95279519D01*
X206757630Y-95302727D01*
X206801601Y-95352903D01*
X206890320Y-95448991D01*
X207005692Y-95570204D01*
X207149962Y-95718960D01*
X207325372Y-95897678D01*
X207534167Y-96108777D01*
X207671523Y-96247301D01*
X207863001Y-96440518D01*
X208053806Y-96633176D01*
X208238204Y-96819478D01*
X208410459Y-96993625D01*
X208564833Y-97149820D01*
X208695592Y-97282266D01*
X208796999Y-97385164D01*
X209194488Y-97789089D01*
X209122291Y-97864447D01*
X209105264Y-97881425D01*
X209055032Y-97923118D01*
X209020571Y-97939804D01*
X208993592Y-97925559D01*
X208943432Y-97882811D01*
X208883298Y-97821520D01*
X208846696Y-97782807D01*
X208778434Y-97712115D01*
X208681958Y-97612962D01*
X208560674Y-97488824D01*
X208417989Y-97343180D01*
X208257310Y-97179506D01*
X208082043Y-97001281D01*
X207895595Y-96811981D01*
X207701374Y-96615085D01*
X206627200Y-95526934D01*
X206583444Y-96092144D01*
X206573906Y-96212782D01*
X206559976Y-96374947D01*
X206547413Y-96497774D01*
X206535284Y-96587720D01*
X206522659Y-96651239D01*
X206508607Y-96694789D01*
X206492197Y-96724825D01*
X206469229Y-96766805D01*
X206450331Y-96843980D01*
X206444706Y-96955168D01*
X206444706Y-97118039D01*
X205996471Y-97118039D01*
X205996471Y-96769412D01*
X204321867Y-96769412D01*
X204225068Y-96879381D01*
X204198596Y-96908017D01*
X204055121Y-97023061D01*
X203893014Y-97093886D01*
X203717488Y-97118039D01*
X203562605Y-97105234D01*
X203387422Y-97051250D01*
X203237454Y-96954766D01*
X203208226Y-96927191D01*
X203135181Y-96837924D01*
X203071094Y-96733934D01*
X203025137Y-96631433D01*
X203006485Y-96546630D01*
X203006125Y-96534320D01*
X203003442Y-96489212D01*
X202996427Y-96458054D01*
X202981752Y-96443311D01*
X202956089Y-96447446D01*
X202916108Y-96472922D01*
X202858483Y-96522203D01*
X202779884Y-96597752D01*
X202676983Y-96702033D01*
X202546451Y-96837509D01*
X202384960Y-97006644D01*
X202298941Y-97096927D01*
X202155157Y-97248089D01*
X202019121Y-97391403D01*
X201896167Y-97521235D01*
X201791624Y-97631953D01*
X201710824Y-97717926D01*
X201659098Y-97773521D01*
X201517706Y-97927353D01*
X201430316Y-97840196D01*
X201342925Y-97753039D01*
X202423875Y-96620000D01*
X202492032Y-96548510D01*
X202734512Y-96293204D01*
X202942662Y-96072355D01*
X203117105Y-95885276D01*
X203258465Y-95731283D01*
X203358421Y-95619677D01*
X203767685Y-95619677D01*
X203770903Y-95645937D01*
X203771465Y-95648680D01*
X203798284Y-95710883D01*
X203851854Y-95739866D01*
X204016981Y-95801654D01*
X204164101Y-95904585D01*
X204279812Y-96040742D01*
X204359116Y-96204173D01*
X204397012Y-96388925D01*
X204409564Y-96545294D01*
X206289895Y-96545294D01*
X206303005Y-96489265D01*
X206305324Y-96475515D01*
X206312530Y-96414027D01*
X206322364Y-96314611D01*
X206334095Y-96185185D01*
X206346991Y-96033668D01*
X206360323Y-95867981D01*
X206404531Y-95302727D01*
X205808636Y-94697589D01*
X205699337Y-94586962D01*
X205565608Y-94452660D01*
X205445636Y-94333351D01*
X205343630Y-94233162D01*
X205263799Y-94156219D01*
X205210352Y-94106650D01*
X205187497Y-94088580D01*
X205172172Y-94097214D01*
X205126527Y-94136496D01*
X205057834Y-94202115D01*
X204972238Y-94288153D01*
X204875882Y-94388692D01*
X204850747Y-94415355D01*
X204738042Y-94534623D01*
X204603741Y-94676397D01*
X204457957Y-94830021D01*
X204310800Y-94984837D01*
X204172383Y-95130186D01*
X204164068Y-95138907D01*
X204035380Y-95274319D01*
X203937184Y-95379174D01*
X203865597Y-95458461D01*
X203816736Y-95517166D01*
X203786719Y-95560279D01*
X203771663Y-95592787D01*
X203767685Y-95619677D01*
X203358421Y-95619677D01*
X203367365Y-95609691D01*
X203444430Y-95519815D01*
X203490284Y-95460970D01*
X203505550Y-95432471D01*
X203505551Y-95432302D01*
X203503458Y-95396784D01*
X203497341Y-95317168D01*
X203487679Y-95198870D01*
X203474953Y-95047312D01*
X203459641Y-94867911D01*
X203442222Y-94666086D01*
X203423177Y-94447256D01*
X203402983Y-94216840D01*
X203382120Y-93980257D01*
X203361068Y-93742926D01*
X203340306Y-93510265D01*
X203320313Y-93287693D01*
X203301568Y-93080630D01*
X203284550Y-92894494D01*
X203269739Y-92734704D01*
X203257614Y-92606679D01*
X203248655Y-92515837D01*
X203243339Y-92467598D01*
X203232622Y-92386801D01*
X203488461Y-92386801D01*
X203491739Y-92448037D01*
X203498950Y-92551018D01*
X203509735Y-92691297D01*
X203523732Y-92864432D01*
X203540579Y-93065976D01*
X203559917Y-93291484D01*
X203581384Y-93536512D01*
X203604619Y-93796615D01*
X203622783Y-93997210D01*
X203645533Y-94245981D01*
X203666833Y-94476175D01*
X203686259Y-94683359D01*
X203703389Y-94863100D01*
X203717798Y-95010964D01*
X203729065Y-95122519D01*
X203736764Y-95193332D01*
X203740473Y-95218970D01*
X203751724Y-95211027D01*
X203792981Y-95172038D01*
X203860021Y-95105068D01*
X203948228Y-95014990D01*
X204052987Y-94906680D01*
X204169682Y-94785013D01*
X204293700Y-94654863D01*
X204420424Y-94521104D01*
X204545240Y-94388612D01*
X204663532Y-94262261D01*
X204770686Y-94146926D01*
X204862086Y-94047481D01*
X204933117Y-93968801D01*
X204979164Y-93915761D01*
X204992617Y-93897337D01*
X205352699Y-93897337D01*
X205898703Y-94442917D01*
X206032221Y-94576110D01*
X206158058Y-94700751D01*
X206255538Y-94795688D01*
X206328231Y-94863999D01*
X206379710Y-94908767D01*
X206413546Y-94933070D01*
X206433311Y-94939991D01*
X206442577Y-94932608D01*
X206444916Y-94914004D01*
X206446415Y-94884111D01*
X206451817Y-94807139D01*
X206460743Y-94690320D01*
X206472765Y-94538975D01*
X206487454Y-94358428D01*
X206504379Y-94154000D01*
X206523113Y-93931016D01*
X206543225Y-93694797D01*
X206560981Y-93486604D01*
X206579483Y-93267322D01*
X206596072Y-93068219D01*
X206610352Y-92894200D01*
X206621922Y-92750171D01*
X206630386Y-92641041D01*
X206635344Y-92571714D01*
X206636398Y-92547099D01*
X206635563Y-92547562D01*
X206612046Y-92570222D01*
X206559806Y-92623392D01*
X206483442Y-92702250D01*
X206387558Y-92801972D01*
X206276755Y-92917737D01*
X206155633Y-93044720D01*
X206028794Y-93178100D01*
X205900840Y-93313054D01*
X205776372Y-93444759D01*
X205659992Y-93568393D01*
X205556301Y-93679132D01*
X205356526Y-93893235D01*
X205352699Y-93897337D01*
X204992617Y-93897337D01*
X204995613Y-93893235D01*
X204979489Y-93871406D01*
X204932612Y-93819154D01*
X204859338Y-93740984D01*
X204764026Y-93641300D01*
X204651038Y-93524508D01*
X204524735Y-93395016D01*
X204389478Y-93257230D01*
X204249629Y-93115554D01*
X204109548Y-92974396D01*
X203973597Y-92838162D01*
X203846136Y-92711258D01*
X203731528Y-92598090D01*
X203634132Y-92503064D01*
X203558311Y-92430587D01*
X203508426Y-92385064D01*
X203488836Y-92370902D01*
X203488461Y-92386801D01*
X203232622Y-92386801D01*
X203229301Y-92361765D01*
X202684510Y-92361765D01*
X202683520Y-91728204D01*
X202883726Y-91728204D01*
X202883726Y-92162549D01*
X203045588Y-92162549D01*
X203059988Y-92162536D01*
X203141293Y-92160801D01*
X203185509Y-92153383D01*
X203203831Y-92136358D01*
X203207451Y-92105800D01*
X203191507Y-92060883D01*
X203136895Y-91986161D01*
X203045588Y-91888628D01*
X202883726Y-91728204D01*
X202683520Y-91728204D01*
X202683206Y-91527549D01*
X201788614Y-90618628D01*
X200894022Y-89709706D01*
X200892795Y-89537248D01*
X200891569Y-89364791D01*
X201964581Y-90452395D01*
X202068291Y-90557446D01*
X202283492Y-90774842D01*
X202467482Y-90959696D01*
X202622639Y-91114283D01*
X202751340Y-91240878D01*
X202855962Y-91341755D01*
X202938882Y-91419189D01*
X203002478Y-91475456D01*
X203049126Y-91512831D01*
X203081204Y-91533587D01*
X203101089Y-91540000D01*
X203134617Y-91538058D01*
X203153440Y-91523874D01*
X203156686Y-91485069D01*
X203148881Y-91409265D01*
X203143500Y-91361539D01*
X203136013Y-91281768D01*
X203132996Y-91228726D01*
X203131519Y-91210441D01*
X203117124Y-91190857D01*
X203077362Y-91184367D01*
X203000168Y-91187200D01*
X202980459Y-91188310D01*
X202901562Y-91187058D01*
X202845442Y-91169722D01*
X202805887Y-91141569D01*
X203366863Y-91141569D01*
X203375104Y-91234951D01*
X203378911Y-91277320D01*
X203390772Y-91392997D01*
X203402459Y-91469186D01*
X203416125Y-91513805D01*
X203433920Y-91534771D01*
X203457996Y-91540000D01*
X203479644Y-91543562D01*
X203494000Y-91560579D01*
X203502021Y-91600137D01*
X203505512Y-91671323D01*
X203506275Y-91783219D01*
X203506275Y-92026438D01*
X203585884Y-92105800D01*
X203780196Y-92299510D01*
X204054118Y-92572582D01*
X204054118Y-92361765D01*
X205548235Y-92361765D01*
X205548235Y-92834902D01*
X204323350Y-92834902D01*
X204738760Y-93264461D01*
X204818328Y-93346504D01*
X204928355Y-93459121D01*
X205023894Y-93555926D01*
X205099942Y-93631893D01*
X205151496Y-93681996D01*
X205173552Y-93701208D01*
X205181935Y-93695910D01*
X205221246Y-93660294D01*
X205289030Y-93594343D01*
X205381665Y-93501722D01*
X205495531Y-93386093D01*
X205627006Y-93251118D01*
X205772470Y-93100461D01*
X205928300Y-92937783D01*
X206084930Y-92773397D01*
X206238471Y-92611386D01*
X206362987Y-92478595D01*
X206461523Y-92371503D01*
X206537126Y-92286589D01*
X206592841Y-92220332D01*
X206631713Y-92169214D01*
X206656788Y-92129712D01*
X206671111Y-92098307D01*
X206677728Y-92071477D01*
X206679482Y-92058409D01*
X206687261Y-91986399D01*
X206697106Y-91880387D01*
X206707934Y-91752460D01*
X206718662Y-91614706D01*
X206722299Y-91566728D01*
X206732809Y-91437097D01*
X206742830Y-91325283D01*
X206751375Y-91241909D01*
X206757456Y-91197598D01*
X206769380Y-91141569D01*
X203366863Y-91141569D01*
X202805887Y-91141569D01*
X202790130Y-91130355D01*
X202780604Y-91122068D01*
X202702699Y-91021707D01*
X202671846Y-90917451D01*
X203346755Y-90917451D01*
X206148064Y-90917451D01*
X206144007Y-90817843D01*
X206569216Y-90817843D01*
X206569216Y-90917451D01*
X206682151Y-90917451D01*
X206715986Y-90917212D01*
X206766120Y-90912855D01*
X206780593Y-90898740D01*
X206769358Y-90869379D01*
X206766038Y-90863781D01*
X206728769Y-90820732D01*
X206674774Y-90772957D01*
X206620914Y-90734208D01*
X206584048Y-90718235D01*
X206580733Y-90720760D01*
X206572508Y-90755443D01*
X206569216Y-90817843D01*
X206144007Y-90817843D01*
X206140748Y-90737854D01*
X206133431Y-90558257D01*
X205984020Y-90528245D01*
X205909091Y-90514633D01*
X205783963Y-90495574D01*
X205666520Y-90481197D01*
X205498431Y-90464161D01*
X205498431Y-90668431D01*
X204352941Y-90668431D01*
X204352941Y-90488379D01*
X204209755Y-90505470D01*
X203990977Y-90542100D01*
X203770793Y-90608330D01*
X203588664Y-90700681D01*
X203441504Y-90820419D01*
X203346755Y-90917451D01*
X202671846Y-90917451D01*
X202668418Y-90905869D01*
X202678919Y-90784354D01*
X202735361Y-90666961D01*
X202740824Y-90659651D01*
X202816254Y-90596763D01*
X202914588Y-90559564D01*
X203020591Y-90549669D01*
X203119028Y-90568695D01*
X203194664Y-90618256D01*
X203220272Y-90643557D01*
X203245220Y-90649690D01*
X203280944Y-90630720D01*
X203341269Y-90583358D01*
X203359777Y-90568801D01*
X203502676Y-90476927D01*
X203518653Y-90469216D01*
X204552157Y-90469216D01*
X205299216Y-90469216D01*
X205299216Y-90344706D01*
X204552157Y-90344706D01*
X204552157Y-90469216D01*
X203518653Y-90469216D01*
X203671968Y-90395224D01*
X203851891Y-90329579D01*
X204026680Y-90285876D01*
X204180574Y-90270000D01*
X204196924Y-90269874D01*
X204287799Y-90261027D01*
X204337705Y-90236221D01*
X204352941Y-90192630D01*
X204354731Y-90178897D01*
X204364512Y-90167085D01*
X204388269Y-90158439D01*
X204431974Y-90152467D01*
X204501596Y-90148677D01*
X204603108Y-90146579D01*
X204742481Y-90145681D01*
X204925686Y-90145490D01*
X205097346Y-90145826D01*
X205243246Y-90147181D01*
X205350055Y-90149915D01*
X205423374Y-90154381D01*
X205468808Y-90160933D01*
X205491959Y-90169926D01*
X205498431Y-90181715D01*
X205519718Y-90210660D01*
X205579363Y-90229132D01*
X205602192Y-90232363D01*
X205680030Y-90243739D01*
X205783608Y-90259159D01*
X205896863Y-90276240D01*
X205959323Y-90284935D01*
X206050733Y-90294352D01*
X206115230Y-90296624D01*
X206141732Y-90291078D01*
X206146257Y-90287465D01*
X206188037Y-90278543D01*
X206263193Y-90272331D01*
X206359624Y-90270000D01*
X206569216Y-90270000D01*
X206569240Y-90344706D01*
X206569241Y-90350931D01*
X206570220Y-90376578D01*
X206582956Y-90419638D01*
X206619205Y-90456155D01*
X206689917Y-90499625D01*
X206751991Y-90539339D01*
X206846493Y-90615587D01*
X206932136Y-90701185D01*
X206997648Y-90784456D01*
X207031758Y-90853724D01*
X207040115Y-90880416D01*
X207055597Y-90898740D01*
X207060817Y-90904919D01*
X207103486Y-90915300D01*
G37*
X207103486Y-90915300D02*
X207182013Y-90917451D01*
X207316275Y-90917451D01*
X207316275Y-91141569D01*
X207000339Y-91141569D01*
X206970841Y-91493645D01*
X206966880Y-91541779D01*
X206957653Y-91662272D01*
X206951134Y-91760319D01*
X206947888Y-91826866D01*
X206948478Y-91852857D01*
X206957060Y-91845385D01*
X206996217Y-91806437D01*
X207063912Y-91737404D01*
X207156718Y-91641866D01*
X207271211Y-91523400D01*
X207403963Y-91385586D01*
X207551550Y-91232002D01*
X207710546Y-91066226D01*
X207877525Y-90891838D01*
X208049061Y-90712415D01*
X208221729Y-90531537D01*
X208392103Y-90352782D01*
X208556757Y-90179729D01*
X208712266Y-90015956D01*
X208855204Y-89865041D01*
X208982145Y-89730564D01*
X209089664Y-89616103D01*
X209281779Y-89410882D01*
X209283529Y-89760520D01*
X206904931Y-92262026D01*
X206881157Y-92547099D01*
X206786037Y-93687729D01*
X206769225Y-93890036D01*
X206748365Y-94143172D01*
X206729113Y-94379146D01*
X206711836Y-94593320D01*
X206696904Y-94781058D01*
X206684685Y-94937720D01*
X206675546Y-95058669D01*
X206669856Y-95139266D01*
X206667983Y-95174873D01*
X206672927Y-95191189D01*
X206695148Y-95226420D01*
X206737292Y-95279519D01*
X206757630Y-95302727D01*
X206801601Y-95352903D01*
X206890320Y-95448991D01*
X207005692Y-95570204D01*
X207149962Y-95718960D01*
X207325372Y-95897678D01*
X207534167Y-96108777D01*
X207671523Y-96247301D01*
X207863001Y-96440518D01*
X208053806Y-96633176D01*
X208238204Y-96819478D01*
X208410459Y-96993625D01*
X208564833Y-97149820D01*
X208695592Y-97282266D01*
X208796999Y-97385164D01*
X209194488Y-97789089D01*
X209122291Y-97864447D01*
X209105264Y-97881425D01*
X209055032Y-97923118D01*
X209020571Y-97939804D01*
X208993592Y-97925559D01*
X208943432Y-97882811D01*
X208883298Y-97821520D01*
X208846696Y-97782807D01*
X208778434Y-97712115D01*
X208681958Y-97612962D01*
X208560674Y-97488824D01*
X208417989Y-97343180D01*
X208257310Y-97179506D01*
X208082043Y-97001281D01*
X207895595Y-96811981D01*
X207701374Y-96615085D01*
X206627200Y-95526934D01*
X206583444Y-96092144D01*
X206573906Y-96212782D01*
X206559976Y-96374947D01*
X206547413Y-96497774D01*
X206535284Y-96587720D01*
X206522659Y-96651239D01*
X206508607Y-96694789D01*
X206492197Y-96724825D01*
X206469229Y-96766805D01*
X206450331Y-96843980D01*
X206444706Y-96955168D01*
X206444706Y-97118039D01*
X205996471Y-97118039D01*
X205996471Y-96769412D01*
X204321867Y-96769412D01*
X204225068Y-96879381D01*
X204198596Y-96908017D01*
X204055121Y-97023061D01*
X203893014Y-97093886D01*
X203717488Y-97118039D01*
X203562605Y-97105234D01*
X203387422Y-97051250D01*
X203237454Y-96954766D01*
X203208226Y-96927191D01*
X203135181Y-96837924D01*
X203071094Y-96733934D01*
X203025137Y-96631433D01*
X203006485Y-96546630D01*
X203006125Y-96534320D01*
X203003442Y-96489212D01*
X202996427Y-96458054D01*
X202981752Y-96443311D01*
X202956089Y-96447446D01*
X202916108Y-96472922D01*
X202858483Y-96522203D01*
X202779884Y-96597752D01*
X202676983Y-96702033D01*
X202546451Y-96837509D01*
X202384960Y-97006644D01*
X202298941Y-97096927D01*
X202155157Y-97248089D01*
X202019121Y-97391403D01*
X201896167Y-97521235D01*
X201791624Y-97631953D01*
X201710824Y-97717926D01*
X201659098Y-97773521D01*
X201517706Y-97927353D01*
X201430316Y-97840196D01*
X201342925Y-97753039D01*
X202423875Y-96620000D01*
X202492032Y-96548510D01*
X202734512Y-96293204D01*
X202942662Y-96072355D01*
X203117105Y-95885276D01*
X203258465Y-95731283D01*
X203358421Y-95619677D01*
X203767685Y-95619677D01*
X203770903Y-95645937D01*
X203771465Y-95648680D01*
X203798284Y-95710883D01*
X203851854Y-95739866D01*
X204016981Y-95801654D01*
X204164101Y-95904585D01*
X204279812Y-96040742D01*
X204359116Y-96204173D01*
X204397012Y-96388925D01*
X204409564Y-96545294D01*
X206289895Y-96545294D01*
X206303005Y-96489265D01*
X206305324Y-96475515D01*
X206312530Y-96414027D01*
X206322364Y-96314611D01*
X206334095Y-96185185D01*
X206346991Y-96033668D01*
X206360323Y-95867981D01*
X206404531Y-95302727D01*
X205808636Y-94697589D01*
X205699337Y-94586962D01*
X205565608Y-94452660D01*
X205445636Y-94333351D01*
X205343630Y-94233162D01*
X205263799Y-94156219D01*
X205210352Y-94106650D01*
X205187497Y-94088580D01*
X205172172Y-94097214D01*
X205126527Y-94136496D01*
X205057834Y-94202115D01*
X204972238Y-94288153D01*
X204875882Y-94388692D01*
X204850747Y-94415355D01*
X204738042Y-94534623D01*
X204603741Y-94676397D01*
X204457957Y-94830021D01*
X204310800Y-94984837D01*
X204172383Y-95130186D01*
X204164068Y-95138907D01*
X204035380Y-95274319D01*
X203937184Y-95379174D01*
X203865597Y-95458461D01*
X203816736Y-95517166D01*
X203786719Y-95560279D01*
X203771663Y-95592787D01*
X203767685Y-95619677D01*
X203358421Y-95619677D01*
X203367365Y-95609691D01*
X203444430Y-95519815D01*
X203490284Y-95460970D01*
X203505550Y-95432471D01*
X203505551Y-95432302D01*
X203503458Y-95396784D01*
X203497341Y-95317168D01*
X203487679Y-95198870D01*
X203474953Y-95047312D01*
X203459641Y-94867911D01*
X203442222Y-94666086D01*
X203423177Y-94447256D01*
X203402983Y-94216840D01*
X203382120Y-93980257D01*
X203361068Y-93742926D01*
X203340306Y-93510265D01*
X203320313Y-93287693D01*
X203301568Y-93080630D01*
X203284550Y-92894494D01*
X203269739Y-92734704D01*
X203257614Y-92606679D01*
X203248655Y-92515837D01*
X203243339Y-92467598D01*
X203232622Y-92386801D01*
X203488461Y-92386801D01*
X203491739Y-92448037D01*
X203498950Y-92551018D01*
X203509735Y-92691297D01*
X203523732Y-92864432D01*
X203540579Y-93065976D01*
X203559917Y-93291484D01*
X203581384Y-93536512D01*
X203604619Y-93796615D01*
X203622783Y-93997210D01*
X203645533Y-94245981D01*
X203666833Y-94476175D01*
X203686259Y-94683359D01*
X203703389Y-94863100D01*
X203717798Y-95010964D01*
X203729065Y-95122519D01*
X203736764Y-95193332D01*
X203740473Y-95218970D01*
X203751724Y-95211027D01*
X203792981Y-95172038D01*
X203860021Y-95105068D01*
X203948228Y-95014990D01*
X204052987Y-94906680D01*
X204169682Y-94785013D01*
X204293700Y-94654863D01*
X204420424Y-94521104D01*
X204545240Y-94388612D01*
X204663532Y-94262261D01*
X204770686Y-94146926D01*
X204862086Y-94047481D01*
X204933117Y-93968801D01*
X204979164Y-93915761D01*
X204992617Y-93897337D01*
X205352699Y-93897337D01*
X205898703Y-94442917D01*
X206032221Y-94576110D01*
X206158058Y-94700751D01*
X206255538Y-94795688D01*
X206328231Y-94863999D01*
X206379710Y-94908767D01*
X206413546Y-94933070D01*
X206433311Y-94939991D01*
X206442577Y-94932608D01*
X206444916Y-94914004D01*
X206446415Y-94884111D01*
X206451817Y-94807139D01*
X206460743Y-94690320D01*
X206472765Y-94538975D01*
X206487454Y-94358428D01*
X206504379Y-94154000D01*
X206523113Y-93931016D01*
X206543225Y-93694797D01*
X206560981Y-93486604D01*
X206579483Y-93267322D01*
X206596072Y-93068219D01*
X206610352Y-92894200D01*
X206621922Y-92750171D01*
X206630386Y-92641041D01*
X206635344Y-92571714D01*
X206636398Y-92547099D01*
X206635563Y-92547562D01*
X206612046Y-92570222D01*
X206559806Y-92623392D01*
X206483442Y-92702250D01*
X206387558Y-92801972D01*
X206276755Y-92917737D01*
X206155633Y-93044720D01*
X206028794Y-93178100D01*
X205900840Y-93313054D01*
X205776372Y-93444759D01*
X205659992Y-93568393D01*
X205556301Y-93679132D01*
X205356526Y-93893235D01*
X205352699Y-93897337D01*
X204992617Y-93897337D01*
X204995613Y-93893235D01*
X204979489Y-93871406D01*
X204932612Y-93819154D01*
X204859338Y-93740984D01*
X204764026Y-93641300D01*
X204651038Y-93524508D01*
X204524735Y-93395016D01*
X204389478Y-93257230D01*
X204249629Y-93115554D01*
X204109548Y-92974396D01*
X203973597Y-92838162D01*
X203846136Y-92711258D01*
X203731528Y-92598090D01*
X203634132Y-92503064D01*
X203558311Y-92430587D01*
X203508426Y-92385064D01*
X203488836Y-92370902D01*
X203488461Y-92386801D01*
X203232622Y-92386801D01*
X203229301Y-92361765D01*
X202684510Y-92361765D01*
X202683520Y-91728204D01*
X202883726Y-91728204D01*
X202883726Y-92162549D01*
X203045588Y-92162549D01*
X203059988Y-92162536D01*
X203141293Y-92160801D01*
X203185509Y-92153383D01*
X203203831Y-92136358D01*
X203207451Y-92105800D01*
X203191507Y-92060883D01*
X203136895Y-91986161D01*
X203045588Y-91888628D01*
X202883726Y-91728204D01*
X202683520Y-91728204D01*
X202683206Y-91527549D01*
X201788614Y-90618628D01*
X200894022Y-89709706D01*
X200892795Y-89537248D01*
X200891569Y-89364791D01*
X201964581Y-90452395D01*
X202068291Y-90557446D01*
X202283492Y-90774842D01*
X202467482Y-90959696D01*
X202622639Y-91114283D01*
X202751340Y-91240878D01*
X202855962Y-91341755D01*
X202938882Y-91419189D01*
X203002478Y-91475456D01*
X203049126Y-91512831D01*
X203081204Y-91533587D01*
X203101089Y-91540000D01*
X203134617Y-91538058D01*
X203153440Y-91523874D01*
X203156686Y-91485069D01*
X203148881Y-91409265D01*
X203143500Y-91361539D01*
X203136013Y-91281768D01*
X203132996Y-91228726D01*
X203131519Y-91210441D01*
X203117124Y-91190857D01*
X203077362Y-91184367D01*
X203000168Y-91187200D01*
X202980459Y-91188310D01*
X202901562Y-91187058D01*
X202845442Y-91169722D01*
X202805887Y-91141569D01*
X203366863Y-91141569D01*
X203375104Y-91234951D01*
X203378911Y-91277320D01*
X203390772Y-91392997D01*
X203402459Y-91469186D01*
X203416125Y-91513805D01*
X203433920Y-91534771D01*
X203457996Y-91540000D01*
X203479644Y-91543562D01*
X203494000Y-91560579D01*
X203502021Y-91600137D01*
X203505512Y-91671323D01*
X203506275Y-91783219D01*
X203506275Y-92026438D01*
X203585884Y-92105800D01*
X203780196Y-92299510D01*
X204054118Y-92572582D01*
X204054118Y-92361765D01*
X205548235Y-92361765D01*
X205548235Y-92834902D01*
X204323350Y-92834902D01*
X204738760Y-93264461D01*
X204818328Y-93346504D01*
X204928355Y-93459121D01*
X205023894Y-93555926D01*
X205099942Y-93631893D01*
X205151496Y-93681996D01*
X205173552Y-93701208D01*
X205181935Y-93695910D01*
X205221246Y-93660294D01*
X205289030Y-93594343D01*
X205381665Y-93501722D01*
X205495531Y-93386093D01*
X205627006Y-93251118D01*
X205772470Y-93100461D01*
X205928300Y-92937783D01*
X206084930Y-92773397D01*
X206238471Y-92611386D01*
X206362987Y-92478595D01*
X206461523Y-92371503D01*
X206537126Y-92286589D01*
X206592841Y-92220332D01*
X206631713Y-92169214D01*
X206656788Y-92129712D01*
X206671111Y-92098307D01*
X206677728Y-92071477D01*
X206679482Y-92058409D01*
X206687261Y-91986399D01*
X206697106Y-91880387D01*
X206707934Y-91752460D01*
X206718662Y-91614706D01*
X206722299Y-91566728D01*
X206732809Y-91437097D01*
X206742830Y-91325283D01*
X206751375Y-91241909D01*
X206757456Y-91197598D01*
X206769380Y-91141569D01*
X203366863Y-91141569D01*
X202805887Y-91141569D01*
X202790130Y-91130355D01*
X202780604Y-91122068D01*
X202702699Y-91021707D01*
X202671846Y-90917451D01*
X203346755Y-90917451D01*
X206148064Y-90917451D01*
X206144007Y-90817843D01*
X206569216Y-90817843D01*
X206569216Y-90917451D01*
X206682151Y-90917451D01*
X206715986Y-90917212D01*
X206766120Y-90912855D01*
X206780593Y-90898740D01*
X206769358Y-90869379D01*
X206766038Y-90863781D01*
X206728769Y-90820732D01*
X206674774Y-90772957D01*
X206620914Y-90734208D01*
X206584048Y-90718235D01*
X206580733Y-90720760D01*
X206572508Y-90755443D01*
X206569216Y-90817843D01*
X206144007Y-90817843D01*
X206140748Y-90737854D01*
X206133431Y-90558257D01*
X205984020Y-90528245D01*
X205909091Y-90514633D01*
X205783963Y-90495574D01*
X205666520Y-90481197D01*
X205498431Y-90464161D01*
X205498431Y-90668431D01*
X204352941Y-90668431D01*
X204352941Y-90488379D01*
X204209755Y-90505470D01*
X203990977Y-90542100D01*
X203770793Y-90608330D01*
X203588664Y-90700681D01*
X203441504Y-90820419D01*
X203346755Y-90917451D01*
X202671846Y-90917451D01*
X202668418Y-90905869D01*
X202678919Y-90784354D01*
X202735361Y-90666961D01*
X202740824Y-90659651D01*
X202816254Y-90596763D01*
X202914588Y-90559564D01*
X203020591Y-90549669D01*
X203119028Y-90568695D01*
X203194664Y-90618256D01*
X203220272Y-90643557D01*
X203245220Y-90649690D01*
X203280944Y-90630720D01*
X203341269Y-90583358D01*
X203359777Y-90568801D01*
X203502676Y-90476927D01*
X203518653Y-90469216D01*
X204552157Y-90469216D01*
X205299216Y-90469216D01*
X205299216Y-90344706D01*
X204552157Y-90344706D01*
X204552157Y-90469216D01*
X203518653Y-90469216D01*
X203671968Y-90395224D01*
X203851891Y-90329579D01*
X204026680Y-90285876D01*
X204180574Y-90270000D01*
X204196924Y-90269874D01*
X204287799Y-90261027D01*
X204337705Y-90236221D01*
X204352941Y-90192630D01*
X204354731Y-90178897D01*
X204364512Y-90167085D01*
X204388269Y-90158439D01*
X204431974Y-90152467D01*
X204501596Y-90148677D01*
X204603108Y-90146579D01*
X204742481Y-90145681D01*
X204925686Y-90145490D01*
X205097346Y-90145826D01*
X205243246Y-90147181D01*
X205350055Y-90149915D01*
X205423374Y-90154381D01*
X205468808Y-90160933D01*
X205491959Y-90169926D01*
X205498431Y-90181715D01*
X205519718Y-90210660D01*
X205579363Y-90229132D01*
X205602192Y-90232363D01*
X205680030Y-90243739D01*
X205783608Y-90259159D01*
X205896863Y-90276240D01*
X205959323Y-90284935D01*
X206050733Y-90294352D01*
X206115230Y-90296624D01*
X206141732Y-90291078D01*
X206146257Y-90287465D01*
X206188037Y-90278543D01*
X206263193Y-90272331D01*
X206359624Y-90270000D01*
X206569216Y-90270000D01*
X206569240Y-90344706D01*
X206569241Y-90350931D01*
X206570220Y-90376578D01*
X206582956Y-90419638D01*
X206619205Y-90456155D01*
X206689917Y-90499625D01*
X206751991Y-90539339D01*
X206846493Y-90615587D01*
X206932136Y-90701185D01*
X206997648Y-90784456D01*
X207031758Y-90853724D01*
X207040115Y-90880416D01*
X207055597Y-90898740D01*
X207060817Y-90904919D01*
X207103486Y-90915300D01*
%TO.C,G\u002A\u002A\u002A*%
G36*
X209517069Y-50858169D02*
G01*
X209505796Y-50930468D01*
X206227802Y-54204687D01*
X205865250Y-54565202D01*
X204821979Y-55586462D01*
X203796871Y-56568580D01*
X202854853Y-57450502D01*
X202060854Y-58171171D01*
X201479801Y-58669531D01*
X201100021Y-58983902D01*
X200538351Y-59501642D01*
X200433310Y-59598468D01*
X200025517Y-60100572D01*
X199849658Y-60488909D01*
X199819871Y-60554687D01*
X199796294Y-60641267D01*
X199704821Y-60984444D01*
X199598054Y-61398248D01*
X199466360Y-61922097D01*
X199300105Y-62595409D01*
X199089655Y-63457605D01*
X198825377Y-64548102D01*
X198497636Y-65906320D01*
X198096798Y-67571677D01*
X197613230Y-69583593D01*
X196183008Y-75536718D01*
X194524359Y-77416413D01*
X193389125Y-78702938D01*
X192865711Y-79296108D01*
X186368402Y-81959577D01*
X185187812Y-82439398D01*
X183639653Y-83056342D01*
X182184215Y-83622987D01*
X180876155Y-84118703D01*
X179770130Y-84522857D01*
X178920797Y-84814817D01*
X178382812Y-84973952D01*
X178147384Y-85029241D01*
X177300559Y-85214790D01*
X176658110Y-85307376D01*
X176072894Y-85310238D01*
X175397769Y-85226615D01*
X174485593Y-85059746D01*
X174172254Y-84988638D01*
X173270978Y-84722103D01*
X172030847Y-84294250D01*
X170446777Y-83703210D01*
X168513683Y-82947114D01*
X166226481Y-82024094D01*
X159527181Y-79288071D01*
X159017855Y-78711451D01*
X160301271Y-78711451D01*
X160398546Y-78839250D01*
X160777430Y-79077756D01*
X161346962Y-79342406D01*
X161646667Y-79464701D01*
X162344572Y-79749757D01*
X163299711Y-80140061D01*
X164447191Y-80609092D01*
X165722121Y-81130327D01*
X167059608Y-81677243D01*
X167554747Y-81879428D01*
X168873964Y-82413297D01*
X169872246Y-82806821D01*
X170583226Y-83071158D01*
X171040538Y-83217467D01*
X171277815Y-83256907D01*
X171328690Y-83200635D01*
X171226796Y-83059812D01*
X170991089Y-82858129D01*
X170550620Y-82559781D01*
X171635937Y-82559781D01*
X171732801Y-82701455D01*
X172064042Y-83032592D01*
X172255224Y-83200635D01*
X172549324Y-83459141D01*
X172673691Y-83561197D01*
X173302838Y-83994392D01*
X173980553Y-84279292D01*
X174880965Y-84493116D01*
X174964488Y-84508972D01*
X175655532Y-84634216D01*
X176168775Y-84717024D01*
X176398437Y-84740174D01*
X176592621Y-84699840D01*
X177076519Y-84602278D01*
X177731532Y-84471588D01*
X178393011Y-84309316D01*
X179129079Y-83986372D01*
X179691439Y-83559457D01*
X180779081Y-83559457D01*
X180940133Y-83497769D01*
X181418672Y-83305319D01*
X182159115Y-83004398D01*
X183106212Y-82617712D01*
X184204708Y-82167970D01*
X185399351Y-81677878D01*
X186634888Y-81170145D01*
X187856067Y-80667478D01*
X189007634Y-80192584D01*
X190034337Y-79768171D01*
X190880924Y-79416947D01*
X191492141Y-79161618D01*
X191812736Y-79024893D01*
X191915812Y-78975699D01*
X192034050Y-78875001D01*
X192066621Y-78702938D01*
X191997651Y-78401596D01*
X191811265Y-77913062D01*
X191491590Y-77179422D01*
X191022752Y-76142763D01*
X190810839Y-75679960D01*
X190398729Y-74801293D01*
X190055136Y-74097036D01*
X189811064Y-73629891D01*
X189697516Y-73462560D01*
X189582131Y-73586614D01*
X189270743Y-73988019D01*
X188804347Y-74616602D01*
X188221446Y-75420385D01*
X187560547Y-76347387D01*
X187126722Y-76964607D01*
X186472218Y-77922821D01*
X186014368Y-78644772D01*
X185723753Y-79181957D01*
X185570957Y-79585872D01*
X185526562Y-79908017D01*
X185523174Y-80093826D01*
X185475173Y-80357171D01*
X185320275Y-80582779D01*
X184996240Y-80824010D01*
X184440828Y-81134227D01*
X183591797Y-81566792D01*
X182986548Y-81884144D01*
X182189843Y-82341407D01*
X181842719Y-82565683D01*
X181553106Y-82752802D01*
X181175956Y-83056883D01*
X181101547Y-83137725D01*
X180841120Y-83443039D01*
X180779081Y-83559457D01*
X179691439Y-83559457D01*
X179815125Y-83465561D01*
X180177473Y-83133073D01*
X180554150Y-82764431D01*
X180723681Y-82565683D01*
X180694408Y-82529267D01*
X180382928Y-82425037D01*
X179802250Y-82300084D01*
X179036962Y-82174049D01*
X178096988Y-82004055D01*
X177263594Y-81776380D01*
X176729301Y-81531619D01*
X176638503Y-81468856D01*
X176280462Y-81260744D01*
X176012830Y-81280666D01*
X175637895Y-81527959D01*
X175199756Y-81744224D01*
X174401762Y-81976750D01*
X173372266Y-82169016D01*
X173007950Y-82225529D01*
X172304855Y-82354613D01*
X171817950Y-82472685D01*
X171635937Y-82559781D01*
X170550620Y-82559781D01*
X170419192Y-82470760D01*
X169658299Y-82019779D01*
X168808203Y-81566792D01*
X168288387Y-81304031D01*
X167613030Y-80947204D01*
X167196097Y-80682551D01*
X166975348Y-80456710D01*
X166888542Y-80216320D01*
X166873437Y-79908017D01*
X166861762Y-79745358D01*
X166763930Y-79386557D01*
X166542201Y-78918856D01*
X166167157Y-78290760D01*
X165609380Y-77450769D01*
X164839453Y-76347387D01*
X164251552Y-75522298D01*
X163656988Y-74701543D01*
X163174137Y-74050006D01*
X162841594Y-73619681D01*
X162697957Y-73462560D01*
X162696937Y-73462588D01*
X162581798Y-73636437D01*
X162345781Y-74094656D01*
X162024507Y-74759233D01*
X161653597Y-75552155D01*
X161268673Y-76395407D01*
X160905357Y-77210976D01*
X160599270Y-77920848D01*
X160386034Y-78447011D01*
X160301271Y-78711451D01*
X159017855Y-78711451D01*
X157870401Y-77412394D01*
X156213622Y-75536718D01*
X154797476Y-69682812D01*
X154711362Y-69326873D01*
X154191366Y-67179627D01*
X153754788Y-65382178D01*
X153393563Y-63903152D01*
X153099621Y-62711180D01*
X152864897Y-61774888D01*
X152681324Y-61062905D01*
X152540834Y-60543859D01*
X152460025Y-60269974D01*
X153207628Y-60269974D01*
X153235005Y-60529656D01*
X153361250Y-60986315D01*
X153428846Y-61225147D01*
X153586689Y-61837512D01*
X153813253Y-62747751D01*
X154096390Y-63906098D01*
X154423955Y-65262786D01*
X154783803Y-66768048D01*
X155163786Y-68372116D01*
X155459369Y-69618974D01*
X155863293Y-71291470D01*
X156199979Y-72635814D01*
X156479740Y-73688550D01*
X156712887Y-74486222D01*
X156909736Y-75065376D01*
X157080598Y-75462555D01*
X157235786Y-75714304D01*
X157590547Y-76145549D01*
X158118898Y-76761822D01*
X158682216Y-77399633D01*
X159642748Y-78468798D01*
X160952495Y-75573779D01*
X162262241Y-72678759D01*
X162211468Y-72517054D01*
X163191425Y-72517054D01*
X163192354Y-72585254D01*
X163231525Y-72678759D01*
X163348741Y-72958572D01*
X163702213Y-73577063D01*
X164222225Y-74389519D01*
X164878228Y-75344735D01*
X166675000Y-77885842D01*
X166675877Y-77033267D01*
X167347087Y-77033267D01*
X167388584Y-78077776D01*
X167521232Y-80221958D01*
X169078086Y-81004729D01*
X169545869Y-81234146D01*
X170267102Y-81538356D01*
X170913713Y-81704872D01*
X171601227Y-81746661D01*
X172445172Y-81676693D01*
X173561075Y-81507933D01*
X173861094Y-81456376D01*
X174738478Y-81254265D01*
X175304528Y-80974416D01*
X175626089Y-80538690D01*
X175770007Y-79868947D01*
X175803125Y-78887049D01*
X175803125Y-77238734D01*
X176596875Y-77238734D01*
X176596875Y-78887049D01*
X176605969Y-79518505D01*
X176686063Y-80266180D01*
X176903306Y-80769593D01*
X177322239Y-81098585D01*
X178007407Y-81322995D01*
X179023351Y-81512664D01*
X179707311Y-81619693D01*
X180612560Y-81727164D01*
X181314818Y-81732268D01*
X181930434Y-81621131D01*
X182575755Y-81379875D01*
X183367130Y-80994626D01*
X184878791Y-80221591D01*
X185011428Y-78077592D01*
X185036911Y-77582876D01*
X185055297Y-76591441D01*
X185025443Y-75789423D01*
X184949615Y-75279343D01*
X184946441Y-75269093D01*
X184722172Y-74851433D01*
X184270177Y-74222842D01*
X183641916Y-73450212D01*
X182888845Y-72600436D01*
X182098160Y-71707597D01*
X181255834Y-70693555D01*
X180489923Y-69712964D01*
X179901106Y-68890828D01*
X179552150Y-68374345D01*
X179153079Y-67807193D01*
X178880554Y-67449558D01*
X178779687Y-67362906D01*
X178780383Y-67379499D01*
X178845076Y-67720921D01*
X178997656Y-68344566D01*
X179213543Y-69162558D01*
X179468156Y-70087020D01*
X179736913Y-71030076D01*
X179995234Y-71903848D01*
X180119815Y-72303645D01*
X180218537Y-72620460D01*
X180382243Y-73092036D01*
X180404273Y-73148362D01*
X180437452Y-73233194D01*
X180602619Y-73714698D01*
X180644243Y-74097218D01*
X180644423Y-74098880D01*
X180560285Y-74543048D01*
X180347628Y-75204506D01*
X180292267Y-75367673D01*
X180070935Y-75952438D01*
X179850419Y-76285778D01*
X179531889Y-76472632D01*
X179016519Y-76617941D01*
X178794940Y-76672884D01*
X178016809Y-76868977D01*
X177341016Y-77043198D01*
X176596875Y-77238734D01*
X175803125Y-77238734D01*
X175058984Y-77043198D01*
X174873789Y-76994898D01*
X174135067Y-76806001D01*
X173383481Y-76617941D01*
X173255033Y-76585931D01*
X172788813Y-76440621D01*
X172498849Y-76231907D01*
X172286311Y-75854849D01*
X172052372Y-75204506D01*
X171974371Y-74972574D01*
X171800582Y-74397262D01*
X171753795Y-73990410D01*
X171758012Y-73969216D01*
X172445946Y-73969216D01*
X172479417Y-74286908D01*
X172599394Y-74842351D01*
X172758499Y-75402345D01*
X172906038Y-75768635D01*
X172906567Y-75769330D01*
X173099388Y-75830911D01*
X173521500Y-75929989D01*
X173812634Y-75986597D01*
X173945695Y-75973441D01*
X173758289Y-75830967D01*
X173580795Y-75660208D01*
X173253490Y-75188280D01*
X172931188Y-74578207D01*
X172707726Y-74125858D01*
X172518174Y-73862973D01*
X172445946Y-73969216D01*
X171758012Y-73969216D01*
X171832847Y-73593171D01*
X171998675Y-73148362D01*
X173073025Y-73148362D01*
X173091816Y-73255016D01*
X173232837Y-73636404D01*
X173469900Y-74191062D01*
X173809359Y-74819236D01*
X174295927Y-75370595D01*
X175025246Y-75909269D01*
X175126173Y-75973441D01*
X175587338Y-76266663D01*
X176019906Y-76527216D01*
X176215871Y-76625882D01*
X176399559Y-76530894D01*
X176823230Y-76271316D01*
X177288389Y-75971166D01*
X178429839Y-75971166D01*
X178581250Y-76003759D01*
X179087945Y-75922443D01*
X179485735Y-75638503D01*
X179743168Y-75058189D01*
X179867526Y-74601932D01*
X179954189Y-74097218D01*
X179907954Y-73909858D01*
X179741826Y-74062603D01*
X179468812Y-74578207D01*
X179255641Y-74998015D01*
X178920593Y-75522133D01*
X178641711Y-75812407D01*
X178635170Y-75816221D01*
X178429839Y-75971166D01*
X177288389Y-75971166D01*
X177390625Y-75905197D01*
X178001663Y-75458885D01*
X178534668Y-74894920D01*
X178930100Y-74189232D01*
X179109370Y-73776198D01*
X179281203Y-73336510D01*
X179326975Y-73148362D01*
X179310787Y-73144221D01*
X179026873Y-73146732D01*
X178469543Y-73178706D01*
X177737891Y-73234754D01*
X176854130Y-73279874D01*
X175698723Y-73283392D01*
X174662109Y-73234754D01*
X174484115Y-73220056D01*
X173783677Y-73169052D01*
X173280282Y-73143358D01*
X173073025Y-73148362D01*
X171998675Y-73148362D01*
X172036576Y-73046701D01*
X172188692Y-72618270D01*
X172294967Y-72284025D01*
X173118839Y-72284025D01*
X173122487Y-72426132D01*
X173152914Y-72439889D01*
X173483417Y-72483825D01*
X174096440Y-72521480D01*
X174903447Y-72551271D01*
X175815906Y-72571614D01*
X176745280Y-72580923D01*
X177603035Y-72577616D01*
X178300638Y-72560108D01*
X178749554Y-72526815D01*
X179108634Y-72457339D01*
X179319372Y-72303645D01*
X179293246Y-72000427D01*
X179293032Y-71999661D01*
X179198292Y-71642954D01*
X179030179Y-70993875D01*
X178812394Y-70144453D01*
X178568636Y-69186718D01*
X178329108Y-68244112D01*
X178091746Y-67313681D01*
X177897331Y-66555350D01*
X177773051Y-66075447D01*
X177590210Y-65646519D01*
X177082142Y-65171184D01*
X176366983Y-64985727D01*
X175509315Y-65117480D01*
X175231310Y-65225154D01*
X174848165Y-65531969D01*
X174629655Y-66075447D01*
X174240247Y-67585689D01*
X173843263Y-69144496D01*
X173538855Y-70367503D01*
X173320798Y-71280940D01*
X173182868Y-71911037D01*
X173118839Y-72284025D01*
X172294967Y-72284025D01*
X172417687Y-71898062D01*
X172680327Y-71020492D01*
X172951521Y-70074998D01*
X173206178Y-69151018D01*
X173419206Y-68337991D01*
X173565514Y-67725355D01*
X173620011Y-67402547D01*
X173563388Y-67426142D01*
X173331373Y-67705130D01*
X172961589Y-68213207D01*
X172498894Y-68890828D01*
X171934499Y-69680471D01*
X171173130Y-70657593D01*
X170331788Y-71672584D01*
X169511155Y-72600436D01*
X169482479Y-72631589D01*
X168733007Y-73479749D01*
X168110195Y-74248357D01*
X167665502Y-74870519D01*
X167450385Y-75279343D01*
X167409700Y-75472720D01*
X167354881Y-76130747D01*
X167347087Y-77033267D01*
X166675877Y-77033267D01*
X166676107Y-76810499D01*
X166676280Y-76745850D01*
X166709136Y-75938352D01*
X166827039Y-75264105D01*
X167070926Y-74642213D01*
X167481734Y-73991780D01*
X168100400Y-73231910D01*
X168967860Y-72281706D01*
X170178674Y-70892964D01*
X171418335Y-69295679D01*
X172553839Y-67660114D01*
X173126880Y-66771059D01*
X173608511Y-65991604D01*
X173920164Y-65427066D01*
X174091171Y-65017077D01*
X174150863Y-64701273D01*
X174128574Y-64419288D01*
X174098116Y-64270442D01*
X173962291Y-63937403D01*
X173675809Y-63764631D01*
X173115918Y-63660099D01*
X172938028Y-63638582D01*
X172547142Y-63628105D01*
X172141226Y-63697387D01*
X171636407Y-63873022D01*
X170948810Y-64181599D01*
X169994563Y-64649711D01*
X167766406Y-65761750D01*
X167717727Y-65832273D01*
X165533900Y-68996115D01*
X165443003Y-69127907D01*
X164758085Y-70127912D01*
X164153967Y-71021694D01*
X163667150Y-71754388D01*
X163334135Y-72271129D01*
X163191425Y-72517054D01*
X162211468Y-72517054D01*
X160997490Y-68650707D01*
X160927055Y-68426369D01*
X160357533Y-66612729D01*
X159892472Y-65137909D01*
X159518221Y-63966279D01*
X159277446Y-63233593D01*
X159993225Y-63233593D01*
X160006079Y-63277980D01*
X160123743Y-63668865D01*
X160334516Y-64359529D01*
X160619050Y-65286875D01*
X160957993Y-66387804D01*
X161331996Y-67599218D01*
X161442871Y-67956793D01*
X161807419Y-69117095D01*
X162133028Y-70130738D01*
X162400530Y-70939471D01*
X162590754Y-71485044D01*
X162684532Y-71709207D01*
X162707515Y-71703636D01*
X162908796Y-71490672D01*
X163274516Y-71030984D01*
X163760952Y-70385911D01*
X164324382Y-69616796D01*
X164921086Y-68784978D01*
X165507341Y-67951798D01*
X166039426Y-67178597D01*
X166473618Y-66526715D01*
X166766196Y-66057494D01*
X166873437Y-65832273D01*
X166716306Y-65775298D01*
X166261275Y-65731018D01*
X165612703Y-65714062D01*
X165081709Y-65705533D01*
X164051369Y-65658790D01*
X163116219Y-65584901D01*
X161880470Y-65455739D01*
X160880929Y-64146229D01*
X160680498Y-63888853D01*
X160293552Y-63429238D01*
X160049110Y-63195036D01*
X159993225Y-63233593D01*
X159277446Y-63233593D01*
X159221125Y-63062209D01*
X158987535Y-62390069D01*
X158803796Y-61914230D01*
X158656257Y-61599062D01*
X158531265Y-61408935D01*
X158415169Y-61308218D01*
X158294315Y-61261283D01*
X158155052Y-61232500D01*
X158138550Y-61229089D01*
X157632505Y-61122643D01*
X156858810Y-60957948D01*
X156710075Y-60926104D01*
X159273967Y-60926104D01*
X160742062Y-62916218D01*
X161297529Y-63663599D01*
X161758674Y-64252439D01*
X162099993Y-64620321D01*
X162381378Y-64820619D01*
X162662719Y-64906709D01*
X163003906Y-64931963D01*
X163172472Y-64938514D01*
X163844260Y-64973206D01*
X164713850Y-65025818D01*
X165636498Y-65087782D01*
X167475340Y-65217968D01*
X169793470Y-64055586D01*
X170093197Y-63905871D01*
X171001626Y-63466023D01*
X171663020Y-63181351D01*
X172157397Y-63024957D01*
X172564776Y-62969944D01*
X172965175Y-62989413D01*
X173093257Y-63002471D01*
X173638372Y-62998538D01*
X173818750Y-62854432D01*
X173806665Y-62760546D01*
X173721168Y-62323998D01*
X173567164Y-61612184D01*
X173360618Y-60697964D01*
X173117497Y-59654198D01*
X173000392Y-59157184D01*
X172754982Y-58107707D01*
X172542855Y-57190179D01*
X172383526Y-56489318D01*
X172296509Y-56089843D01*
X172280925Y-56016035D01*
X172163975Y-55639314D01*
X171957046Y-55278301D01*
X171605186Y-54867048D01*
X171053446Y-54339608D01*
X170246875Y-53630033D01*
X169604858Y-53106261D01*
X168897546Y-52637503D01*
X168103119Y-52252161D01*
X167071152Y-51866713D01*
X166361009Y-51608403D01*
X165407416Y-51183187D01*
X164538639Y-50663357D01*
X163576666Y-49951344D01*
X161968060Y-48685095D01*
X160758324Y-51727663D01*
X159548589Y-54770231D01*
X159411278Y-57848167D01*
X159273967Y-60926104D01*
X156710075Y-60926104D01*
X155931878Y-60759494D01*
X154966125Y-60551777D01*
X154075962Y-60359287D01*
X153894061Y-60322031D01*
X153432727Y-60251440D01*
X153214386Y-60256967D01*
X153207628Y-60269974D01*
X152460025Y-60269974D01*
X152435360Y-60186378D01*
X152356836Y-59959092D01*
X152297193Y-59830627D01*
X152248366Y-59769612D01*
X151932942Y-59506308D01*
X153245911Y-59506308D01*
X155545221Y-59959052D01*
X156410124Y-60129824D01*
X157258314Y-60298287D01*
X157907908Y-60428392D01*
X158263479Y-60501111D01*
X158350779Y-60517104D01*
X158488806Y-60503166D01*
X158586607Y-60380034D01*
X158654701Y-60090208D01*
X158703609Y-59576193D01*
X158743852Y-58780490D01*
X158785949Y-57645603D01*
X158889471Y-54700781D01*
X160125973Y-51564961D01*
X160445338Y-50746047D01*
X160799951Y-49811696D01*
X161073647Y-49060761D01*
X161244096Y-48554866D01*
X161269467Y-48442211D01*
X162687165Y-48442211D01*
X162722786Y-48510649D01*
X162754914Y-48535105D01*
X163028539Y-48747380D01*
X163509327Y-49122180D01*
X164118937Y-49598464D01*
X164450316Y-49847935D01*
X165717949Y-50623779D01*
X167194718Y-51245995D01*
X167272487Y-51273372D01*
X168219382Y-51612111D01*
X168908389Y-51888244D01*
X169448483Y-52166361D01*
X169948640Y-52511054D01*
X170517836Y-52986915D01*
X171265048Y-53658535D01*
X171449376Y-53825991D01*
X172078578Y-54415017D01*
X172487013Y-54858638D01*
X172738180Y-55250660D01*
X172895577Y-55684886D01*
X173022699Y-56255122D01*
X173140650Y-56821050D01*
X173341738Y-57738639D01*
X173580792Y-58796176D01*
X173827987Y-59860156D01*
X174044548Y-60800953D01*
X174275215Y-61849218D01*
X174484150Y-62842293D01*
X174486567Y-62854432D01*
X174654390Y-63697315D01*
X174768974Y-64331426D01*
X174810937Y-64661764D01*
X174823919Y-64668926D01*
X175062093Y-64607095D01*
X175505469Y-64437007D01*
X175930881Y-64283651D01*
X176364966Y-64260800D01*
X176894531Y-64437007D01*
X177027352Y-64491535D01*
X177427941Y-64640958D01*
X177589334Y-64674928D01*
X177590312Y-64668161D01*
X178248167Y-64668161D01*
X178253408Y-64701273D01*
X178296923Y-64976234D01*
X178453218Y-65371511D01*
X178746282Y-65914018D01*
X179205344Y-66663780D01*
X179859633Y-67680822D01*
X180432616Y-68530428D01*
X181389122Y-69844564D01*
X182358166Y-71067805D01*
X183239968Y-72070576D01*
X183893522Y-72771708D01*
X184506203Y-73451535D01*
X184978901Y-74000213D01*
X185243624Y-74340706D01*
X185417513Y-74752575D01*
X185586779Y-75460542D01*
X185699415Y-76295824D01*
X185724860Y-76591441D01*
X185824219Y-77745792D01*
X187575252Y-75284798D01*
X187706998Y-75098688D01*
X188366131Y-74132340D01*
X188853056Y-73354169D01*
X189143314Y-72805371D01*
X189173574Y-72683584D01*
X190137017Y-72683584D01*
X191411330Y-75490342D01*
X191666501Y-76050908D01*
X192078307Y-76948842D01*
X192415181Y-77674803D01*
X192647674Y-78165539D01*
X192746337Y-78357795D01*
X192819345Y-78308357D01*
X193100038Y-78030604D01*
X193528387Y-77573854D01*
X194038654Y-77010944D01*
X194565098Y-76414713D01*
X195041980Y-75857998D01*
X195403562Y-75413638D01*
X195501269Y-75165726D01*
X195679673Y-74573278D01*
X195924951Y-73684096D01*
X196225116Y-72543750D01*
X196568179Y-71197813D01*
X196942151Y-69691856D01*
X197335045Y-68071451D01*
X197710261Y-66507258D01*
X198075449Y-64988250D01*
X198404260Y-63623972D01*
X198685511Y-62460678D01*
X198908017Y-61544619D01*
X199060596Y-60922049D01*
X199132065Y-60639220D01*
X199168983Y-60488909D01*
X199144844Y-60352067D01*
X198958237Y-60312828D01*
X198533279Y-60362969D01*
X197794089Y-60494271D01*
X196996074Y-60637903D01*
X195948689Y-60820693D01*
X195521104Y-60892703D01*
X195037977Y-60974067D01*
X194765123Y-61019313D01*
X194174551Y-61139059D01*
X193839640Y-61285423D01*
X193657848Y-61522096D01*
X193526634Y-61912766D01*
X193429240Y-62236938D01*
X193233347Y-62871494D01*
X193222492Y-62906659D01*
X192930503Y-63842968D01*
X192571750Y-64986815D01*
X192164713Y-66279153D01*
X191727868Y-67660932D01*
X190186567Y-72527142D01*
X190137017Y-72683584D01*
X189173574Y-72683584D01*
X189212446Y-72527142D01*
X189206077Y-72512620D01*
X189036230Y-72226513D01*
X188680714Y-71676737D01*
X188176124Y-70918364D01*
X187559054Y-70006466D01*
X186866100Y-68996115D01*
X184682533Y-65832650D01*
X185526562Y-65832650D01*
X185557864Y-65900809D01*
X185769329Y-66247287D01*
X186147328Y-66829116D01*
X186653093Y-67587076D01*
X187247854Y-68461947D01*
X187839658Y-69324250D01*
X188491612Y-70267927D01*
X188970308Y-70946431D01*
X189304945Y-71396320D01*
X189524722Y-71654152D01*
X189658839Y-71756485D01*
X189736494Y-71739877D01*
X189786886Y-71640886D01*
X189799224Y-71606653D01*
X189973389Y-71094917D01*
X190218668Y-70340324D01*
X190515985Y-69405003D01*
X190846269Y-68351081D01*
X191190445Y-67240685D01*
X191529440Y-66135942D01*
X191844180Y-65098980D01*
X192115593Y-64191927D01*
X192324605Y-63476910D01*
X192452142Y-63016056D01*
X192479131Y-62871494D01*
X192464154Y-62889352D01*
X192250881Y-63160832D01*
X191880653Y-63643487D01*
X191423620Y-64245967D01*
X191042569Y-64744097D01*
X190673462Y-65161674D01*
X190334734Y-65392208D01*
X189908984Y-65509017D01*
X189278808Y-65585420D01*
X188755766Y-65631356D01*
X187730740Y-65690800D01*
X186787297Y-65714062D01*
X186179651Y-65728842D01*
X185707396Y-65771644D01*
X185526562Y-65832650D01*
X184682533Y-65832650D01*
X184633594Y-65761750D01*
X182405437Y-64649711D01*
X181971104Y-64434091D01*
X181137859Y-64035509D01*
X180536407Y-63785410D01*
X180082876Y-63657203D01*
X179693392Y-63624297D01*
X179284082Y-63660099D01*
X179075445Y-63690503D01*
X178612690Y-63806219D01*
X178385601Y-64018471D01*
X178271426Y-64419288D01*
X178248167Y-64668161D01*
X177590312Y-64668161D01*
X177619768Y-64464517D01*
X177713762Y-63946974D01*
X177852376Y-63225764D01*
X177880670Y-63082925D01*
X178581250Y-63082925D01*
X178616881Y-63099117D01*
X178923508Y-63091977D01*
X179441970Y-63029619D01*
X179673045Y-63001019D01*
X180043239Y-62999681D01*
X180448652Y-63080610D01*
X180968322Y-63269370D01*
X181681285Y-63591528D01*
X182666579Y-64072649D01*
X182845654Y-64160875D01*
X183730191Y-64579836D01*
X184489316Y-64912775D01*
X185047228Y-65127784D01*
X185328125Y-65192958D01*
X185584679Y-65166062D01*
X186167654Y-65121643D01*
X186972819Y-65068523D01*
X187907812Y-65013140D01*
X190189844Y-64885117D01*
X193122192Y-60892703D01*
X193018479Y-57895961D01*
X192914766Y-54899218D01*
X191771159Y-52021875D01*
X191544565Y-51455898D01*
X191161137Y-50517729D01*
X190835585Y-49745667D01*
X190596768Y-49207559D01*
X190473547Y-48971255D01*
X190365387Y-48971823D01*
X189992759Y-49152183D01*
X189434375Y-49510185D01*
X188763742Y-50001534D01*
X188413535Y-50266477D01*
X187437806Y-50919603D01*
X186430098Y-51439189D01*
X185210334Y-51922587D01*
X184343207Y-52245957D01*
X183623511Y-52565760D01*
X183032932Y-52922103D01*
X182439816Y-53395710D01*
X181712507Y-54067308D01*
X180212287Y-55494531D01*
X179777419Y-57478906D01*
X179774151Y-57493819D01*
X179450035Y-58977927D01*
X179163117Y-60301538D01*
X178923088Y-61419249D01*
X178739639Y-62285654D01*
X178622463Y-62855348D01*
X178581250Y-63082925D01*
X177880670Y-63082925D01*
X178016243Y-62398525D01*
X178185995Y-61562898D01*
X178342264Y-60816520D01*
X178465683Y-60257031D01*
X178539458Y-59935758D01*
X178734156Y-59072633D01*
X178959903Y-58057587D01*
X179181432Y-57048706D01*
X179621052Y-55031005D01*
X181135136Y-53658369D01*
X181194706Y-53604366D01*
X181926051Y-52948405D01*
X182486934Y-52483721D01*
X182986325Y-52145726D01*
X183533199Y-51869832D01*
X184236527Y-51591450D01*
X185205282Y-51245995D01*
X185636481Y-51086993D01*
X187038431Y-50432885D01*
X188281063Y-49598464D01*
X188501022Y-49426507D01*
X189075045Y-48978334D01*
X189493222Y-48652702D01*
X189677214Y-48510649D01*
X189677214Y-48369527D01*
X189643875Y-48355632D01*
X191111034Y-48355632D01*
X191113589Y-48369527D01*
X191134441Y-48482958D01*
X191278810Y-48927190D01*
X191531000Y-49630046D01*
X191868745Y-50529858D01*
X192269781Y-51564961D01*
X193502037Y-54700781D01*
X193611094Y-57627734D01*
X193627047Y-58083757D01*
X193663062Y-59116912D01*
X193717198Y-59823397D01*
X193829090Y-60253812D01*
X194038369Y-60458754D01*
X194384671Y-60488822D01*
X194907628Y-60394616D01*
X195646875Y-60226734D01*
X196257948Y-60094786D01*
X197210869Y-59892939D01*
X198030387Y-59723413D01*
X199124055Y-59501642D01*
X198095666Y-57496962D01*
X197067276Y-55492283D01*
X197057831Y-55414152D01*
X197789105Y-55414152D01*
X198732536Y-57289888D01*
X199041953Y-57892397D01*
X199397709Y-58550206D01*
X199662483Y-58998402D01*
X199794624Y-59163512D01*
X199923210Y-59106757D01*
X200330569Y-58813229D01*
X200953552Y-58302229D01*
X201750834Y-57610514D01*
X202681090Y-56774841D01*
X203702994Y-55831970D01*
X204775222Y-54818658D01*
X205856447Y-53771662D01*
X208826363Y-50858169D01*
X208066098Y-47421662D01*
X207845988Y-46446980D01*
X207607806Y-45439056D01*
X207403103Y-44622345D01*
X207248406Y-44062473D01*
X207160245Y-43825063D01*
X207153674Y-43822896D01*
X206972930Y-43976211D01*
X206580256Y-44405771D01*
X206003192Y-45078498D01*
X205269281Y-45961316D01*
X204406064Y-47021150D01*
X203441084Y-48224924D01*
X202401882Y-49539562D01*
X197789105Y-55414152D01*
X197057831Y-55414152D01*
X196527643Y-51028563D01*
X196444478Y-50344115D01*
X196294402Y-49127289D01*
X196162262Y-48079300D01*
X196055311Y-47256459D01*
X195980799Y-46715081D01*
X195945979Y-46511479D01*
X195856333Y-46529567D01*
X195469752Y-46658071D01*
X194855445Y-46879422D01*
X194097765Y-47161449D01*
X193281061Y-47471976D01*
X192489685Y-47778831D01*
X191807988Y-48049841D01*
X191320320Y-48252833D01*
X191111034Y-48355632D01*
X189643875Y-48355632D01*
X189592898Y-48334386D01*
X189185222Y-48218431D01*
X188514002Y-48048368D01*
X187658380Y-47842289D01*
X186697497Y-47618284D01*
X185710494Y-47394441D01*
X184776513Y-47188851D01*
X183974696Y-47019605D01*
X183384185Y-46904791D01*
X183084119Y-46862499D01*
X182883956Y-46896005D01*
X182340489Y-47030970D01*
X181542648Y-47251217D01*
X180560724Y-47537191D01*
X179465008Y-47869337D01*
X176204733Y-48876175D01*
X172813611Y-47833407D01*
X169422488Y-46790640D01*
X166119852Y-47531763D01*
X165543391Y-47661533D01*
X164415857Y-47919851D01*
X163611981Y-48113962D01*
X163086249Y-48256983D01*
X162810994Y-48355632D01*
X162793148Y-48362028D01*
X162687165Y-48442211D01*
X161269467Y-48442211D01*
X161288966Y-48355632D01*
X161183039Y-48299125D01*
X160777304Y-48125422D01*
X160149897Y-47873157D01*
X159385170Y-47574504D01*
X158567475Y-47261635D01*
X157781161Y-46966726D01*
X157110580Y-46721947D01*
X156640083Y-46559474D01*
X156454021Y-46511479D01*
X156441218Y-46572441D01*
X156430913Y-46643301D01*
X156384879Y-46959849D01*
X156292772Y-47655588D01*
X156172125Y-48603347D01*
X156030164Y-49746817D01*
X155874118Y-51029687D01*
X155344409Y-55426769D01*
X155336246Y-55494531D01*
X154291078Y-57500419D01*
X153245911Y-59506308D01*
X151932942Y-59506308D01*
X151555797Y-59191482D01*
X150093230Y-57915543D01*
X148528209Y-56489441D01*
X146965734Y-55009746D01*
X145510803Y-53573024D01*
X142900513Y-50930468D01*
X142892975Y-50882592D01*
X143568179Y-50882592D01*
X146570891Y-53783874D01*
X146631302Y-53842209D01*
X147640020Y-54807084D01*
X148651410Y-55759145D01*
X149593965Y-56632125D01*
X150396175Y-57359759D01*
X150986533Y-57875781D01*
X151320606Y-58155175D01*
X151906702Y-58634169D01*
X152342957Y-58975776D01*
X152553467Y-59119734D01*
X152655072Y-59035546D01*
X152907817Y-58663981D01*
X153257944Y-58061810D01*
X153662265Y-57299916D01*
X154617061Y-55426769D01*
X150004121Y-49542950D01*
X149859652Y-49358851D01*
X148829282Y-48055996D01*
X147876649Y-46868669D01*
X147029271Y-45829933D01*
X146314666Y-44972849D01*
X145760353Y-44330481D01*
X145393850Y-43935892D01*
X145242675Y-43822143D01*
X145169032Y-44010757D01*
X145021074Y-44534121D01*
X144821080Y-45322806D01*
X144585598Y-46311246D01*
X144331174Y-47433874D01*
X143568179Y-50882592D01*
X142892975Y-50882592D01*
X141157133Y-39857987D01*
X141809601Y-39857987D01*
X142449574Y-44005165D01*
X142507346Y-44377422D01*
X142702700Y-45605501D01*
X142883359Y-46696774D01*
X143038295Y-47587319D01*
X143156480Y-48213214D01*
X143226885Y-48510537D01*
X143242120Y-48524467D01*
X143343373Y-48328402D01*
X143516350Y-47775296D01*
X143754673Y-46889623D01*
X144051964Y-45695857D01*
X144401846Y-44218471D01*
X144755276Y-42668980D01*
X145407730Y-42668980D01*
X150012623Y-48536052D01*
X150138781Y-48696755D01*
X151168445Y-50005753D01*
X152116959Y-51207077D01*
X152957096Y-52266571D01*
X153661631Y-53150079D01*
X154203336Y-53823445D01*
X154554985Y-54252512D01*
X154689352Y-54403125D01*
X154732524Y-54321539D01*
X154826079Y-53915538D01*
X154945101Y-53232211D01*
X155080522Y-52342506D01*
X155223271Y-51317368D01*
X155364280Y-50227743D01*
X155494479Y-49144578D01*
X155604799Y-48138818D01*
X155686170Y-47281411D01*
X155729523Y-46643301D01*
X155725790Y-46295436D01*
X155654524Y-46178128D01*
X155375577Y-45831499D01*
X156595418Y-45831499D01*
X159005912Y-46763498D01*
X159153866Y-46820683D01*
X160056903Y-47168786D01*
X160818987Y-47461036D01*
X161363754Y-47668233D01*
X161614844Y-47761174D01*
X161732152Y-47694017D01*
X162032965Y-47457812D01*
X163374418Y-47457812D01*
X163457209Y-47448730D01*
X163886446Y-47369227D01*
X164592558Y-47221033D01*
X165500254Y-47020230D01*
X166534247Y-46782898D01*
X169425673Y-46107984D01*
X172853078Y-47179773D01*
X173885802Y-47501931D01*
X174845536Y-47799681D01*
X175605985Y-48033817D01*
X176107355Y-48185935D01*
X176289851Y-48237630D01*
X176432000Y-48189468D01*
X176896960Y-48039045D01*
X177626599Y-47805423D01*
X178560387Y-47507976D01*
X179637790Y-47166079D01*
X182976362Y-46108459D01*
X185866770Y-46783136D01*
X186342218Y-46893274D01*
X187328582Y-47116133D01*
X188154801Y-47295232D01*
X188745569Y-47414486D01*
X189025582Y-47457812D01*
X189031680Y-47429584D01*
X188845109Y-47193380D01*
X188417780Y-46748419D01*
X187787649Y-46132234D01*
X186992677Y-45382356D01*
X186070821Y-44536314D01*
X185099225Y-43655179D01*
X183718528Y-42401918D01*
X182264768Y-41081339D01*
X180860180Y-39804487D01*
X179627002Y-38682408D01*
X179217800Y-38311337D01*
X178301998Y-37492257D01*
X177497177Y-36787957D01*
X176848477Y-36237065D01*
X176401038Y-35878203D01*
X176269687Y-35794439D01*
X177650776Y-35794439D01*
X177699148Y-35882059D01*
X178002681Y-36209873D01*
X178551389Y-36754982D01*
X179317034Y-37490597D01*
X180271374Y-38389928D01*
X181386170Y-39426189D01*
X182633183Y-40572590D01*
X183984172Y-41802343D01*
X185022298Y-42741883D01*
X186319254Y-43912864D01*
X187502986Y-44978463D01*
X188543406Y-45911764D01*
X189410428Y-46685851D01*
X190073965Y-47273809D01*
X190252614Y-47429584D01*
X190503929Y-47648722D01*
X190670234Y-47783675D01*
X190694617Y-47781474D01*
X190996824Y-47687996D01*
X191577563Y-47479481D01*
X192365859Y-47181986D01*
X193290742Y-46821567D01*
X194181255Y-46469598D01*
X196667163Y-46469598D01*
X196707516Y-47057361D01*
X196785385Y-47906920D01*
X196894414Y-48949424D01*
X197028247Y-50116019D01*
X197159666Y-51178945D01*
X197301443Y-52248216D01*
X197429274Y-53135009D01*
X197532929Y-53768700D01*
X197602180Y-54078659D01*
X197618534Y-54105780D01*
X197725917Y-54106862D01*
X197931743Y-53956484D01*
X198256288Y-53631169D01*
X198719830Y-53107441D01*
X199342643Y-52361822D01*
X200145006Y-51370835D01*
X201147193Y-50111005D01*
X202369481Y-48558853D01*
X206992270Y-42668980D01*
X206333350Y-39705583D01*
X206204991Y-39137921D01*
X205979907Y-38189513D01*
X205785656Y-37429765D01*
X205639608Y-36925162D01*
X205559133Y-36742187D01*
X205460815Y-36813132D01*
X205120341Y-37134546D01*
X204579360Y-37677056D01*
X203877292Y-38398645D01*
X203053553Y-39257293D01*
X202147560Y-40210981D01*
X201198731Y-41217689D01*
X200246482Y-42235399D01*
X199330232Y-43222091D01*
X198489397Y-44135747D01*
X197763394Y-44934347D01*
X197191641Y-45575872D01*
X196973401Y-45831253D01*
X196813556Y-46018303D01*
X196668554Y-46219621D01*
X196667163Y-46469598D01*
X194181255Y-46469598D01*
X195796327Y-45831253D01*
X194422129Y-42833341D01*
X194092579Y-42119328D01*
X193651919Y-41180738D01*
X193280279Y-40408030D01*
X193009181Y-39866441D01*
X192870143Y-39621209D01*
X192827724Y-39578270D01*
X192720506Y-39491631D01*
X193585238Y-39491631D01*
X194880825Y-42322743D01*
X195147698Y-42897643D01*
X195584095Y-43801360D01*
X195958942Y-44532975D01*
X196239149Y-45028912D01*
X196391628Y-45225594D01*
X196528328Y-45218308D01*
X196777089Y-44993121D01*
X196853077Y-44889793D01*
X197178217Y-44515413D01*
X197701125Y-43946688D01*
X198369536Y-43240036D01*
X199131186Y-42451877D01*
X199842155Y-41720458D01*
X200779473Y-40751205D01*
X201868220Y-39621751D01*
X203046542Y-38396348D01*
X204252582Y-37139249D01*
X205248761Y-36098323D01*
X206165442Y-36098323D01*
X207561263Y-42323770D01*
X207638752Y-42668980D01*
X207756481Y-43193461D01*
X208084537Y-44650284D01*
X208380381Y-45958250D01*
X208633152Y-47069664D01*
X208831985Y-47936832D01*
X208966019Y-48512061D01*
X209024389Y-48747656D01*
X209043023Y-48789559D01*
X209092633Y-48786432D01*
X209157359Y-48614007D01*
X209244396Y-48235071D01*
X209360935Y-47612412D01*
X209514171Y-46708818D01*
X209711295Y-45487076D01*
X209959502Y-43909973D01*
X210591419Y-39866040D01*
X210129573Y-36220520D01*
X209977012Y-35073795D01*
X209829838Y-34072588D01*
X209698639Y-33281490D01*
X209593590Y-32761846D01*
X209524867Y-32575000D01*
X209524242Y-32575015D01*
X209340184Y-32716099D01*
X208949070Y-33094973D01*
X208407912Y-33654278D01*
X207773725Y-34336661D01*
X206165442Y-36098323D01*
X205248761Y-36098323D01*
X205424484Y-35914707D01*
X205985938Y-35326572D01*
X207049898Y-34205718D01*
X207877371Y-33320127D01*
X208496298Y-32635976D01*
X208934621Y-32119441D01*
X209220280Y-31736698D01*
X209381218Y-31453924D01*
X209445374Y-31237295D01*
X209440691Y-31052988D01*
X209438040Y-31036940D01*
X209361580Y-30545841D01*
X209253611Y-29820370D01*
X209136616Y-29011457D01*
X209117210Y-28876312D01*
X209012954Y-28186673D01*
X208929318Y-27690889D01*
X208882907Y-27488635D01*
X208783793Y-27557007D01*
X208405882Y-27843098D01*
X207777834Y-28327168D01*
X206933947Y-28982320D01*
X205908519Y-29781660D01*
X204735848Y-30698290D01*
X203450234Y-31705316D01*
X202085974Y-32775842D01*
X200677367Y-33882973D01*
X199258711Y-34999812D01*
X197864305Y-36099463D01*
X196528448Y-37155032D01*
X195285437Y-38139622D01*
X194169572Y-39026338D01*
X193585238Y-39491631D01*
X192720506Y-39491631D01*
X192505728Y-39318078D01*
X191971654Y-38925104D01*
X191315727Y-38466380D01*
X189939097Y-37525771D01*
X183913809Y-36632715D01*
X183283739Y-36539818D01*
X181821568Y-36328156D01*
X180502168Y-36142557D01*
X179375465Y-35989704D01*
X178491382Y-35876279D01*
X177899845Y-35808963D01*
X177650776Y-35794439D01*
X176269687Y-35794439D01*
X176200000Y-35749999D01*
X176148040Y-35773535D01*
X176119850Y-35794439D01*
X175837421Y-36003875D01*
X175299467Y-36448558D01*
X174579318Y-37068958D01*
X173722115Y-37826450D01*
X172772998Y-38682408D01*
X171801978Y-39566047D01*
X170421676Y-40821024D01*
X168967952Y-42141758D01*
X167563040Y-43417204D01*
X166329179Y-44536314D01*
X165884564Y-44941667D01*
X165017337Y-45747397D01*
X164294751Y-46439407D01*
X163754764Y-46980167D01*
X163435333Y-47332146D01*
X163374418Y-47457812D01*
X162032965Y-47457812D01*
X162120377Y-47389175D01*
X162747228Y-46862929D01*
X163582359Y-46141777D01*
X164595423Y-45252216D01*
X165756072Y-44220740D01*
X167033961Y-43073848D01*
X168398741Y-41838034D01*
X169481077Y-40850068D01*
X170752382Y-39679474D01*
X171897628Y-38613678D01*
X172888669Y-37679475D01*
X173697358Y-36903657D01*
X174295547Y-36313017D01*
X174655091Y-35934346D01*
X174747840Y-35794439D01*
X174689392Y-35793634D01*
X174292478Y-35830891D01*
X173573743Y-35918168D01*
X172583062Y-36048787D01*
X171370306Y-36216070D01*
X169985348Y-36413340D01*
X168478060Y-36633920D01*
X162444642Y-37528181D01*
X161037555Y-38487726D01*
X160939662Y-38554704D01*
X160455003Y-38901441D01*
X160051804Y-39239453D01*
X159822269Y-39485727D01*
X159695434Y-39621813D01*
X159351265Y-40101592D01*
X158984667Y-40731860D01*
X158561011Y-41565690D01*
X158045667Y-42656152D01*
X157404006Y-44056318D01*
X156595418Y-45831499D01*
X155375577Y-45831499D01*
X155347427Y-45796520D01*
X154834404Y-45202586D01*
X154154758Y-44438587D01*
X153347794Y-43546781D01*
X152452814Y-42569431D01*
X151509123Y-41548794D01*
X150556024Y-40527132D01*
X149632821Y-39546705D01*
X148778817Y-38649772D01*
X148033316Y-37878594D01*
X147435622Y-37275430D01*
X147025038Y-36882541D01*
X146840867Y-36742187D01*
X146806567Y-36797118D01*
X146688496Y-37162172D01*
X146514240Y-37812923D01*
X146301169Y-38682888D01*
X146066650Y-39705583D01*
X145407730Y-42668980D01*
X144755276Y-42668980D01*
X144797940Y-42481938D01*
X146231657Y-36095145D01*
X144624825Y-34335072D01*
X144619159Y-34328867D01*
X143985817Y-33647624D01*
X143446002Y-33089977D01*
X143056759Y-32713308D01*
X142875133Y-32575000D01*
X142806870Y-32759861D01*
X142701981Y-33277815D01*
X142570907Y-34067491D01*
X142423831Y-35067510D01*
X142270937Y-36216493D01*
X141809601Y-39857987D01*
X141157133Y-39857987D01*
X141147631Y-39797640D01*
X142026583Y-33259367D01*
X142172941Y-32184147D01*
X142298202Y-31291818D01*
X142947024Y-31291818D01*
X143023304Y-31557148D01*
X143227974Y-31892113D01*
X143599471Y-32349084D01*
X144176230Y-32980433D01*
X144996688Y-33838534D01*
X146424417Y-35318437D01*
X147171932Y-36095145D01*
X148030952Y-36987714D01*
X149541079Y-38561103D01*
X150932317Y-40014971D01*
X152182186Y-41325688D01*
X153268203Y-42469621D01*
X154167889Y-43423138D01*
X154858761Y-44162608D01*
X155318339Y-44664399D01*
X155524143Y-44904879D01*
X155720896Y-45129844D01*
X155972290Y-45275000D01*
X156080092Y-45188625D01*
X156289472Y-44862456D01*
X156602398Y-44269810D01*
X157031313Y-43385788D01*
X157588661Y-42185496D01*
X158286886Y-40644035D01*
X158807219Y-39485727D01*
X158226657Y-39023387D01*
X157341556Y-38319734D01*
X156127701Y-37357675D01*
X154812926Y-36318300D01*
X153431593Y-35228554D01*
X152018064Y-34115382D01*
X150606699Y-33005731D01*
X149231861Y-31926544D01*
X147927910Y-30904766D01*
X146729209Y-29967344D01*
X145670119Y-29141222D01*
X144785001Y-28453345D01*
X144108216Y-27930658D01*
X143674126Y-27600106D01*
X143517093Y-27488635D01*
X143512308Y-27498693D01*
X143458075Y-27760339D01*
X143369565Y-28297820D01*
X143263384Y-29011457D01*
X143257744Y-29051011D01*
X143140380Y-29860908D01*
X143032863Y-30581294D01*
X142957825Y-31060409D01*
X142947024Y-31291818D01*
X142298202Y-31291818D01*
X142381959Y-30695159D01*
X142576370Y-29363316D01*
X142748873Y-28235903D01*
X142892168Y-27360206D01*
X142998956Y-26783508D01*
X143061936Y-26553097D01*
X143110880Y-26530074D01*
X143205902Y-26549034D01*
X143367308Y-26628997D01*
X143617326Y-26786843D01*
X143978182Y-27039453D01*
X144472105Y-27403708D01*
X145121322Y-27896490D01*
X145948061Y-28534679D01*
X146974550Y-29335158D01*
X148223016Y-30314807D01*
X149715687Y-31490507D01*
X151474791Y-32879140D01*
X153522555Y-34497586D01*
X154762286Y-35475637D01*
X155958055Y-36414693D01*
X157020788Y-37244857D01*
X157914931Y-37938549D01*
X158604928Y-38468191D01*
X159055224Y-38806201D01*
X159230263Y-38925000D01*
X159283551Y-38903398D01*
X159601593Y-38712778D01*
X160128342Y-38367703D01*
X160783772Y-37919944D01*
X162229471Y-36914888D01*
X169232628Y-35877492D01*
X176235786Y-34840096D01*
X190180092Y-36921536D01*
X191621010Y-37923268D01*
X191917751Y-38128126D01*
X192523409Y-38536313D01*
X192963894Y-38819198D01*
X193159675Y-38925000D01*
X193178936Y-38914314D01*
X193435523Y-38726602D01*
X193964987Y-38322590D01*
X194737707Y-37725360D01*
X195724060Y-36957996D01*
X196894424Y-36043582D01*
X198219179Y-35005202D01*
X199668702Y-33865940D01*
X201213372Y-32648879D01*
X201667874Y-32290828D01*
X203194166Y-31095748D01*
X204617250Y-29992515D01*
X205907545Y-29003361D01*
X207035471Y-28150520D01*
X207971449Y-27456223D01*
X208685898Y-26942704D01*
X209149240Y-26632194D01*
X209331893Y-26546926D01*
X209369791Y-26661193D01*
X209464299Y-27129697D01*
X209597562Y-27912690D01*
X209762219Y-28962753D01*
X209950911Y-30232473D01*
X210094020Y-31237295D01*
X210156278Y-31674433D01*
X210370961Y-33241217D01*
X211247457Y-39761341D01*
X211231130Y-39866040D01*
X210376627Y-45345905D01*
X209517069Y-50858169D01*
G37*
X209517069Y-50858169D02*
X209505796Y-50930468D01*
X206227802Y-54204687D01*
X205865250Y-54565202D01*
X204821979Y-55586462D01*
X203796871Y-56568580D01*
X202854853Y-57450502D01*
X202060854Y-58171171D01*
X201479801Y-58669531D01*
X201100021Y-58983902D01*
X200538351Y-59501642D01*
X200433310Y-59598468D01*
X200025517Y-60100572D01*
X199849658Y-60488909D01*
X199819871Y-60554687D01*
X199796294Y-60641267D01*
X199704821Y-60984444D01*
X199598054Y-61398248D01*
X199466360Y-61922097D01*
X199300105Y-62595409D01*
X199089655Y-63457605D01*
X198825377Y-64548102D01*
X198497636Y-65906320D01*
X198096798Y-67571677D01*
X197613230Y-69583593D01*
X196183008Y-75536718D01*
X194524359Y-77416413D01*
X193389125Y-78702938D01*
X192865711Y-79296108D01*
X186368402Y-81959577D01*
X185187812Y-82439398D01*
X183639653Y-83056342D01*
X182184215Y-83622987D01*
X180876155Y-84118703D01*
X179770130Y-84522857D01*
X178920797Y-84814817D01*
X178382812Y-84973952D01*
X178147384Y-85029241D01*
X177300559Y-85214790D01*
X176658110Y-85307376D01*
X176072894Y-85310238D01*
X175397769Y-85226615D01*
X174485593Y-85059746D01*
X174172254Y-84988638D01*
X173270978Y-84722103D01*
X172030847Y-84294250D01*
X170446777Y-83703210D01*
X168513683Y-82947114D01*
X166226481Y-82024094D01*
X159527181Y-79288071D01*
X159017855Y-78711451D01*
X160301271Y-78711451D01*
X160398546Y-78839250D01*
X160777430Y-79077756D01*
X161346962Y-79342406D01*
X161646667Y-79464701D01*
X162344572Y-79749757D01*
X163299711Y-80140061D01*
X164447191Y-80609092D01*
X165722121Y-81130327D01*
X167059608Y-81677243D01*
X167554747Y-81879428D01*
X168873964Y-82413297D01*
X169872246Y-82806821D01*
X170583226Y-83071158D01*
X171040538Y-83217467D01*
X171277815Y-83256907D01*
X171328690Y-83200635D01*
X171226796Y-83059812D01*
X170991089Y-82858129D01*
X170550620Y-82559781D01*
X171635937Y-82559781D01*
X171732801Y-82701455D01*
X172064042Y-83032592D01*
X172255224Y-83200635D01*
X172549324Y-83459141D01*
X172673691Y-83561197D01*
X173302838Y-83994392D01*
X173980553Y-84279292D01*
X174880965Y-84493116D01*
X174964488Y-84508972D01*
X175655532Y-84634216D01*
X176168775Y-84717024D01*
X176398437Y-84740174D01*
X176592621Y-84699840D01*
X177076519Y-84602278D01*
X177731532Y-84471588D01*
X178393011Y-84309316D01*
X179129079Y-83986372D01*
X179691439Y-83559457D01*
X180779081Y-83559457D01*
X180940133Y-83497769D01*
X181418672Y-83305319D01*
X182159115Y-83004398D01*
X183106212Y-82617712D01*
X184204708Y-82167970D01*
X185399351Y-81677878D01*
X186634888Y-81170145D01*
X187856067Y-80667478D01*
X189007634Y-80192584D01*
X190034337Y-79768171D01*
X190880924Y-79416947D01*
X191492141Y-79161618D01*
X191812736Y-79024893D01*
X191915812Y-78975699D01*
X192034050Y-78875001D01*
X192066621Y-78702938D01*
X191997651Y-78401596D01*
X191811265Y-77913062D01*
X191491590Y-77179422D01*
X191022752Y-76142763D01*
X190810839Y-75679960D01*
X190398729Y-74801293D01*
X190055136Y-74097036D01*
X189811064Y-73629891D01*
X189697516Y-73462560D01*
X189582131Y-73586614D01*
X189270743Y-73988019D01*
X188804347Y-74616602D01*
X188221446Y-75420385D01*
X187560547Y-76347387D01*
X187126722Y-76964607D01*
X186472218Y-77922821D01*
X186014368Y-78644772D01*
X185723753Y-79181957D01*
X185570957Y-79585872D01*
X185526562Y-79908017D01*
X185523174Y-80093826D01*
X185475173Y-80357171D01*
X185320275Y-80582779D01*
X184996240Y-80824010D01*
X184440828Y-81134227D01*
X183591797Y-81566792D01*
X182986548Y-81884144D01*
X182189843Y-82341407D01*
X181842719Y-82565683D01*
X181553106Y-82752802D01*
X181175956Y-83056883D01*
X181101547Y-83137725D01*
X180841120Y-83443039D01*
X180779081Y-83559457D01*
X179691439Y-83559457D01*
X179815125Y-83465561D01*
X180177473Y-83133073D01*
X180554150Y-82764431D01*
X180723681Y-82565683D01*
X180694408Y-82529267D01*
X180382928Y-82425037D01*
X179802250Y-82300084D01*
X179036962Y-82174049D01*
X178096988Y-82004055D01*
X177263594Y-81776380D01*
X176729301Y-81531619D01*
X176638503Y-81468856D01*
X176280462Y-81260744D01*
X176012830Y-81280666D01*
X175637895Y-81527959D01*
X175199756Y-81744224D01*
X174401762Y-81976750D01*
X173372266Y-82169016D01*
X173007950Y-82225529D01*
X172304855Y-82354613D01*
X171817950Y-82472685D01*
X171635937Y-82559781D01*
X170550620Y-82559781D01*
X170419192Y-82470760D01*
X169658299Y-82019779D01*
X168808203Y-81566792D01*
X168288387Y-81304031D01*
X167613030Y-80947204D01*
X167196097Y-80682551D01*
X166975348Y-80456710D01*
X166888542Y-80216320D01*
X166873437Y-79908017D01*
X166861762Y-79745358D01*
X166763930Y-79386557D01*
X166542201Y-78918856D01*
X166167157Y-78290760D01*
X165609380Y-77450769D01*
X164839453Y-76347387D01*
X164251552Y-75522298D01*
X163656988Y-74701543D01*
X163174137Y-74050006D01*
X162841594Y-73619681D01*
X162697957Y-73462560D01*
X162696937Y-73462588D01*
X162581798Y-73636437D01*
X162345781Y-74094656D01*
X162024507Y-74759233D01*
X161653597Y-75552155D01*
X161268673Y-76395407D01*
X160905357Y-77210976D01*
X160599270Y-77920848D01*
X160386034Y-78447011D01*
X160301271Y-78711451D01*
X159017855Y-78711451D01*
X157870401Y-77412394D01*
X156213622Y-75536718D01*
X154797476Y-69682812D01*
X154711362Y-69326873D01*
X154191366Y-67179627D01*
X153754788Y-65382178D01*
X153393563Y-63903152D01*
X153099621Y-62711180D01*
X152864897Y-61774888D01*
X152681324Y-61062905D01*
X152540834Y-60543859D01*
X152460025Y-60269974D01*
X153207628Y-60269974D01*
X153235005Y-60529656D01*
X153361250Y-60986315D01*
X153428846Y-61225147D01*
X153586689Y-61837512D01*
X153813253Y-62747751D01*
X154096390Y-63906098D01*
X154423955Y-65262786D01*
X154783803Y-66768048D01*
X155163786Y-68372116D01*
X155459369Y-69618974D01*
X155863293Y-71291470D01*
X156199979Y-72635814D01*
X156479740Y-73688550D01*
X156712887Y-74486222D01*
X156909736Y-75065376D01*
X157080598Y-75462555D01*
X157235786Y-75714304D01*
X157590547Y-76145549D01*
X158118898Y-76761822D01*
X158682216Y-77399633D01*
X159642748Y-78468798D01*
X160952495Y-75573779D01*
X162262241Y-72678759D01*
X162211468Y-72517054D01*
X163191425Y-72517054D01*
X163192354Y-72585254D01*
X163231525Y-72678759D01*
X163348741Y-72958572D01*
X163702213Y-73577063D01*
X164222225Y-74389519D01*
X164878228Y-75344735D01*
X166675000Y-77885842D01*
X166675877Y-77033267D01*
X167347087Y-77033267D01*
X167388584Y-78077776D01*
X167521232Y-80221958D01*
X169078086Y-81004729D01*
X169545869Y-81234146D01*
X170267102Y-81538356D01*
X170913713Y-81704872D01*
X171601227Y-81746661D01*
X172445172Y-81676693D01*
X173561075Y-81507933D01*
X173861094Y-81456376D01*
X174738478Y-81254265D01*
X175304528Y-80974416D01*
X175626089Y-80538690D01*
X175770007Y-79868947D01*
X175803125Y-78887049D01*
X175803125Y-77238734D01*
X176596875Y-77238734D01*
X176596875Y-78887049D01*
X176605969Y-79518505D01*
X176686063Y-80266180D01*
X176903306Y-80769593D01*
X177322239Y-81098585D01*
X178007407Y-81322995D01*
X179023351Y-81512664D01*
X179707311Y-81619693D01*
X180612560Y-81727164D01*
X181314818Y-81732268D01*
X181930434Y-81621131D01*
X182575755Y-81379875D01*
X183367130Y-80994626D01*
X184878791Y-80221591D01*
X185011428Y-78077592D01*
X185036911Y-77582876D01*
X185055297Y-76591441D01*
X185025443Y-75789423D01*
X184949615Y-75279343D01*
X184946441Y-75269093D01*
X184722172Y-74851433D01*
X184270177Y-74222842D01*
X183641916Y-73450212D01*
X182888845Y-72600436D01*
X182098160Y-71707597D01*
X181255834Y-70693555D01*
X180489923Y-69712964D01*
X179901106Y-68890828D01*
X179552150Y-68374345D01*
X179153079Y-67807193D01*
X178880554Y-67449558D01*
X178779687Y-67362906D01*
X178780383Y-67379499D01*
X178845076Y-67720921D01*
X178997656Y-68344566D01*
X179213543Y-69162558D01*
X179468156Y-70087020D01*
X179736913Y-71030076D01*
X179995234Y-71903848D01*
X180119815Y-72303645D01*
X180218537Y-72620460D01*
X180382243Y-73092036D01*
X180404273Y-73148362D01*
X180437452Y-73233194D01*
X180602619Y-73714698D01*
X180644243Y-74097218D01*
X180644423Y-74098880D01*
X180560285Y-74543048D01*
X180347628Y-75204506D01*
X180292267Y-75367673D01*
X180070935Y-75952438D01*
X179850419Y-76285778D01*
X179531889Y-76472632D01*
X179016519Y-76617941D01*
X178794940Y-76672884D01*
X178016809Y-76868977D01*
X177341016Y-77043198D01*
X176596875Y-77238734D01*
X175803125Y-77238734D01*
X175058984Y-77043198D01*
X174873789Y-76994898D01*
X174135067Y-76806001D01*
X173383481Y-76617941D01*
X173255033Y-76585931D01*
X172788813Y-76440621D01*
X172498849Y-76231907D01*
X172286311Y-75854849D01*
X172052372Y-75204506D01*
X171974371Y-74972574D01*
X171800582Y-74397262D01*
X171753795Y-73990410D01*
X171758012Y-73969216D01*
X172445946Y-73969216D01*
X172479417Y-74286908D01*
X172599394Y-74842351D01*
X172758499Y-75402345D01*
X172906038Y-75768635D01*
X172906567Y-75769330D01*
X173099388Y-75830911D01*
X173521500Y-75929989D01*
X173812634Y-75986597D01*
X173945695Y-75973441D01*
X173758289Y-75830967D01*
X173580795Y-75660208D01*
X173253490Y-75188280D01*
X172931188Y-74578207D01*
X172707726Y-74125858D01*
X172518174Y-73862973D01*
X172445946Y-73969216D01*
X171758012Y-73969216D01*
X171832847Y-73593171D01*
X171998675Y-73148362D01*
X173073025Y-73148362D01*
X173091816Y-73255016D01*
X173232837Y-73636404D01*
X173469900Y-74191062D01*
X173809359Y-74819236D01*
X174295927Y-75370595D01*
X175025246Y-75909269D01*
X175126173Y-75973441D01*
X175587338Y-76266663D01*
X176019906Y-76527216D01*
X176215871Y-76625882D01*
X176399559Y-76530894D01*
X176823230Y-76271316D01*
X177288389Y-75971166D01*
X178429839Y-75971166D01*
X178581250Y-76003759D01*
X179087945Y-75922443D01*
X179485735Y-75638503D01*
X179743168Y-75058189D01*
X179867526Y-74601932D01*
X179954189Y-74097218D01*
X179907954Y-73909858D01*
X179741826Y-74062603D01*
X179468812Y-74578207D01*
X179255641Y-74998015D01*
X178920593Y-75522133D01*
X178641711Y-75812407D01*
X178635170Y-75816221D01*
X178429839Y-75971166D01*
X177288389Y-75971166D01*
X177390625Y-75905197D01*
X178001663Y-75458885D01*
X178534668Y-74894920D01*
X178930100Y-74189232D01*
X179109370Y-73776198D01*
X179281203Y-73336510D01*
X179326975Y-73148362D01*
X179310787Y-73144221D01*
X179026873Y-73146732D01*
X178469543Y-73178706D01*
X177737891Y-73234754D01*
X176854130Y-73279874D01*
X175698723Y-73283392D01*
X174662109Y-73234754D01*
X174484115Y-73220056D01*
X173783677Y-73169052D01*
X173280282Y-73143358D01*
X173073025Y-73148362D01*
X171998675Y-73148362D01*
X172036576Y-73046701D01*
X172188692Y-72618270D01*
X172294967Y-72284025D01*
X173118839Y-72284025D01*
X173122487Y-72426132D01*
X173152914Y-72439889D01*
X173483417Y-72483825D01*
X174096440Y-72521480D01*
X174903447Y-72551271D01*
X175815906Y-72571614D01*
X176745280Y-72580923D01*
X177603035Y-72577616D01*
X178300638Y-72560108D01*
X178749554Y-72526815D01*
X179108634Y-72457339D01*
X179319372Y-72303645D01*
X179293246Y-72000427D01*
X179293032Y-71999661D01*
X179198292Y-71642954D01*
X179030179Y-70993875D01*
X178812394Y-70144453D01*
X178568636Y-69186718D01*
X178329108Y-68244112D01*
X178091746Y-67313681D01*
X177897331Y-66555350D01*
X177773051Y-66075447D01*
X177590210Y-65646519D01*
X177082142Y-65171184D01*
X176366983Y-64985727D01*
X175509315Y-65117480D01*
X175231310Y-65225154D01*
X174848165Y-65531969D01*
X174629655Y-66075447D01*
X174240247Y-67585689D01*
X173843263Y-69144496D01*
X173538855Y-70367503D01*
X173320798Y-71280940D01*
X173182868Y-71911037D01*
X173118839Y-72284025D01*
X172294967Y-72284025D01*
X172417687Y-71898062D01*
X172680327Y-71020492D01*
X172951521Y-70074998D01*
X173206178Y-69151018D01*
X173419206Y-68337991D01*
X173565514Y-67725355D01*
X173620011Y-67402547D01*
X173563388Y-67426142D01*
X173331373Y-67705130D01*
X172961589Y-68213207D01*
X172498894Y-68890828D01*
X171934499Y-69680471D01*
X171173130Y-70657593D01*
X170331788Y-71672584D01*
X169511155Y-72600436D01*
X169482479Y-72631589D01*
X168733007Y-73479749D01*
X168110195Y-74248357D01*
X167665502Y-74870519D01*
X167450385Y-75279343D01*
X167409700Y-75472720D01*
X167354881Y-76130747D01*
X167347087Y-77033267D01*
X166675877Y-77033267D01*
X166676107Y-76810499D01*
X166676280Y-76745850D01*
X166709136Y-75938352D01*
X166827039Y-75264105D01*
X167070926Y-74642213D01*
X167481734Y-73991780D01*
X168100400Y-73231910D01*
X168967860Y-72281706D01*
X170178674Y-70892964D01*
X171418335Y-69295679D01*
X172553839Y-67660114D01*
X173126880Y-66771059D01*
X173608511Y-65991604D01*
X173920164Y-65427066D01*
X174091171Y-65017077D01*
X174150863Y-64701273D01*
X174128574Y-64419288D01*
X174098116Y-64270442D01*
X173962291Y-63937403D01*
X173675809Y-63764631D01*
X173115918Y-63660099D01*
X172938028Y-63638582D01*
X172547142Y-63628105D01*
X172141226Y-63697387D01*
X171636407Y-63873022D01*
X170948810Y-64181599D01*
X169994563Y-64649711D01*
X167766406Y-65761750D01*
X167717727Y-65832273D01*
X165533900Y-68996115D01*
X165443003Y-69127907D01*
X164758085Y-70127912D01*
X164153967Y-71021694D01*
X163667150Y-71754388D01*
X163334135Y-72271129D01*
X163191425Y-72517054D01*
X162211468Y-72517054D01*
X160997490Y-68650707D01*
X160927055Y-68426369D01*
X160357533Y-66612729D01*
X159892472Y-65137909D01*
X159518221Y-63966279D01*
X159277446Y-63233593D01*
X159993225Y-63233593D01*
X160006079Y-63277980D01*
X160123743Y-63668865D01*
X160334516Y-64359529D01*
X160619050Y-65286875D01*
X160957993Y-66387804D01*
X161331996Y-67599218D01*
X161442871Y-67956793D01*
X161807419Y-69117095D01*
X162133028Y-70130738D01*
X162400530Y-70939471D01*
X162590754Y-71485044D01*
X162684532Y-71709207D01*
X162707515Y-71703636D01*
X162908796Y-71490672D01*
X163274516Y-71030984D01*
X163760952Y-70385911D01*
X164324382Y-69616796D01*
X164921086Y-68784978D01*
X165507341Y-67951798D01*
X166039426Y-67178597D01*
X166473618Y-66526715D01*
X166766196Y-66057494D01*
X166873437Y-65832273D01*
X166716306Y-65775298D01*
X166261275Y-65731018D01*
X165612703Y-65714062D01*
X165081709Y-65705533D01*
X164051369Y-65658790D01*
X163116219Y-65584901D01*
X161880470Y-65455739D01*
X160880929Y-64146229D01*
X160680498Y-63888853D01*
X160293552Y-63429238D01*
X160049110Y-63195036D01*
X159993225Y-63233593D01*
X159277446Y-63233593D01*
X159221125Y-63062209D01*
X158987535Y-62390069D01*
X158803796Y-61914230D01*
X158656257Y-61599062D01*
X158531265Y-61408935D01*
X158415169Y-61308218D01*
X158294315Y-61261283D01*
X158155052Y-61232500D01*
X158138550Y-61229089D01*
X157632505Y-61122643D01*
X156858810Y-60957948D01*
X156710075Y-60926104D01*
X159273967Y-60926104D01*
X160742062Y-62916218D01*
X161297529Y-63663599D01*
X161758674Y-64252439D01*
X162099993Y-64620321D01*
X162381378Y-64820619D01*
X162662719Y-64906709D01*
X163003906Y-64931963D01*
X163172472Y-64938514D01*
X163844260Y-64973206D01*
X164713850Y-65025818D01*
X165636498Y-65087782D01*
X167475340Y-65217968D01*
X169793470Y-64055586D01*
X170093197Y-63905871D01*
X171001626Y-63466023D01*
X171663020Y-63181351D01*
X172157397Y-63024957D01*
X172564776Y-62969944D01*
X172965175Y-62989413D01*
X173093257Y-63002471D01*
X173638372Y-62998538D01*
X173818750Y-62854432D01*
X173806665Y-62760546D01*
X173721168Y-62323998D01*
X173567164Y-61612184D01*
X173360618Y-60697964D01*
X173117497Y-59654198D01*
X173000392Y-59157184D01*
X172754982Y-58107707D01*
X172542855Y-57190179D01*
X172383526Y-56489318D01*
X172296509Y-56089843D01*
X172280925Y-56016035D01*
X172163975Y-55639314D01*
X171957046Y-55278301D01*
X171605186Y-54867048D01*
X171053446Y-54339608D01*
X170246875Y-53630033D01*
X169604858Y-53106261D01*
X168897546Y-52637503D01*
X168103119Y-52252161D01*
X167071152Y-51866713D01*
X166361009Y-51608403D01*
X165407416Y-51183187D01*
X164538639Y-50663357D01*
X163576666Y-49951344D01*
X161968060Y-48685095D01*
X160758324Y-51727663D01*
X159548589Y-54770231D01*
X159411278Y-57848167D01*
X159273967Y-60926104D01*
X156710075Y-60926104D01*
X155931878Y-60759494D01*
X154966125Y-60551777D01*
X154075962Y-60359287D01*
X153894061Y-60322031D01*
X153432727Y-60251440D01*
X153214386Y-60256967D01*
X153207628Y-60269974D01*
X152460025Y-60269974D01*
X152435360Y-60186378D01*
X152356836Y-59959092D01*
X152297193Y-59830627D01*
X152248366Y-59769612D01*
X151932942Y-59506308D01*
X153245911Y-59506308D01*
X155545221Y-59959052D01*
X156410124Y-60129824D01*
X157258314Y-60298287D01*
X157907908Y-60428392D01*
X158263479Y-60501111D01*
X158350779Y-60517104D01*
X158488806Y-60503166D01*
X158586607Y-60380034D01*
X158654701Y-60090208D01*
X158703609Y-59576193D01*
X158743852Y-58780490D01*
X158785949Y-57645603D01*
X158889471Y-54700781D01*
X160125973Y-51564961D01*
X160445338Y-50746047D01*
X160799951Y-49811696D01*
X161073647Y-49060761D01*
X161244096Y-48554866D01*
X161269467Y-48442211D01*
X162687165Y-48442211D01*
X162722786Y-48510649D01*
X162754914Y-48535105D01*
X163028539Y-48747380D01*
X163509327Y-49122180D01*
X164118937Y-49598464D01*
X164450316Y-49847935D01*
X165717949Y-50623779D01*
X167194718Y-51245995D01*
X167272487Y-51273372D01*
X168219382Y-51612111D01*
X168908389Y-51888244D01*
X169448483Y-52166361D01*
X169948640Y-52511054D01*
X170517836Y-52986915D01*
X171265048Y-53658535D01*
X171449376Y-53825991D01*
X172078578Y-54415017D01*
X172487013Y-54858638D01*
X172738180Y-55250660D01*
X172895577Y-55684886D01*
X173022699Y-56255122D01*
X173140650Y-56821050D01*
X173341738Y-57738639D01*
X173580792Y-58796176D01*
X173827987Y-59860156D01*
X174044548Y-60800953D01*
X174275215Y-61849218D01*
X174484150Y-62842293D01*
X174486567Y-62854432D01*
X174654390Y-63697315D01*
X174768974Y-64331426D01*
X174810937Y-64661764D01*
X174823919Y-64668926D01*
X175062093Y-64607095D01*
X175505469Y-64437007D01*
X175930881Y-64283651D01*
X176364966Y-64260800D01*
X176894531Y-64437007D01*
X177027352Y-64491535D01*
X177427941Y-64640958D01*
X177589334Y-64674928D01*
X177590312Y-64668161D01*
X178248167Y-64668161D01*
X178253408Y-64701273D01*
X178296923Y-64976234D01*
X178453218Y-65371511D01*
X178746282Y-65914018D01*
X179205344Y-66663780D01*
X179859633Y-67680822D01*
X180432616Y-68530428D01*
X181389122Y-69844564D01*
X182358166Y-71067805D01*
X183239968Y-72070576D01*
X183893522Y-72771708D01*
X184506203Y-73451535D01*
X184978901Y-74000213D01*
X185243624Y-74340706D01*
X185417513Y-74752575D01*
X185586779Y-75460542D01*
X185699415Y-76295824D01*
X185724860Y-76591441D01*
X185824219Y-77745792D01*
X187575252Y-75284798D01*
X187706998Y-75098688D01*
X188366131Y-74132340D01*
X188853056Y-73354169D01*
X189143314Y-72805371D01*
X189173574Y-72683584D01*
X190137017Y-72683584D01*
X191411330Y-75490342D01*
X191666501Y-76050908D01*
X192078307Y-76948842D01*
X192415181Y-77674803D01*
X192647674Y-78165539D01*
X192746337Y-78357795D01*
X192819345Y-78308357D01*
X193100038Y-78030604D01*
X193528387Y-77573854D01*
X194038654Y-77010944D01*
X194565098Y-76414713D01*
X195041980Y-75857998D01*
X195403562Y-75413638D01*
X195501269Y-75165726D01*
X195679673Y-74573278D01*
X195924951Y-73684096D01*
X196225116Y-72543750D01*
X196568179Y-71197813D01*
X196942151Y-69691856D01*
X197335045Y-68071451D01*
X197710261Y-66507258D01*
X198075449Y-64988250D01*
X198404260Y-63623972D01*
X198685511Y-62460678D01*
X198908017Y-61544619D01*
X199060596Y-60922049D01*
X199132065Y-60639220D01*
X199168983Y-60488909D01*
X199144844Y-60352067D01*
X198958237Y-60312828D01*
X198533279Y-60362969D01*
X197794089Y-60494271D01*
X196996074Y-60637903D01*
X195948689Y-60820693D01*
X195521104Y-60892703D01*
X195037977Y-60974067D01*
X194765123Y-61019313D01*
X194174551Y-61139059D01*
X193839640Y-61285423D01*
X193657848Y-61522096D01*
X193526634Y-61912766D01*
X193429240Y-62236938D01*
X193233347Y-62871494D01*
X193222492Y-62906659D01*
X192930503Y-63842968D01*
X192571750Y-64986815D01*
X192164713Y-66279153D01*
X191727868Y-67660932D01*
X190186567Y-72527142D01*
X190137017Y-72683584D01*
X189173574Y-72683584D01*
X189212446Y-72527142D01*
X189206077Y-72512620D01*
X189036230Y-72226513D01*
X188680714Y-71676737D01*
X188176124Y-70918364D01*
X187559054Y-70006466D01*
X186866100Y-68996115D01*
X184682533Y-65832650D01*
X185526562Y-65832650D01*
X185557864Y-65900809D01*
X185769329Y-66247287D01*
X186147328Y-66829116D01*
X186653093Y-67587076D01*
X187247854Y-68461947D01*
X187839658Y-69324250D01*
X188491612Y-70267927D01*
X188970308Y-70946431D01*
X189304945Y-71396320D01*
X189524722Y-71654152D01*
X189658839Y-71756485D01*
X189736494Y-71739877D01*
X189786886Y-71640886D01*
X189799224Y-71606653D01*
X189973389Y-71094917D01*
X190218668Y-70340324D01*
X190515985Y-69405003D01*
X190846269Y-68351081D01*
X191190445Y-67240685D01*
X191529440Y-66135942D01*
X191844180Y-65098980D01*
X192115593Y-64191927D01*
X192324605Y-63476910D01*
X192452142Y-63016056D01*
X192479131Y-62871494D01*
X192464154Y-62889352D01*
X192250881Y-63160832D01*
X191880653Y-63643487D01*
X191423620Y-64245967D01*
X191042569Y-64744097D01*
X190673462Y-65161674D01*
X190334734Y-65392208D01*
X189908984Y-65509017D01*
X189278808Y-65585420D01*
X188755766Y-65631356D01*
X187730740Y-65690800D01*
X186787297Y-65714062D01*
X186179651Y-65728842D01*
X185707396Y-65771644D01*
X185526562Y-65832650D01*
X184682533Y-65832650D01*
X184633594Y-65761750D01*
X182405437Y-64649711D01*
X181971104Y-64434091D01*
X181137859Y-64035509D01*
X180536407Y-63785410D01*
X180082876Y-63657203D01*
X179693392Y-63624297D01*
X179284082Y-63660099D01*
X179075445Y-63690503D01*
X178612690Y-63806219D01*
X178385601Y-64018471D01*
X178271426Y-64419288D01*
X178248167Y-64668161D01*
X177590312Y-64668161D01*
X177619768Y-64464517D01*
X177713762Y-63946974D01*
X177852376Y-63225764D01*
X177880670Y-63082925D01*
X178581250Y-63082925D01*
X178616881Y-63099117D01*
X178923508Y-63091977D01*
X179441970Y-63029619D01*
X179673045Y-63001019D01*
X180043239Y-62999681D01*
X180448652Y-63080610D01*
X180968322Y-63269370D01*
X181681285Y-63591528D01*
X182666579Y-64072649D01*
X182845654Y-64160875D01*
X183730191Y-64579836D01*
X184489316Y-64912775D01*
X185047228Y-65127784D01*
X185328125Y-65192958D01*
X185584679Y-65166062D01*
X186167654Y-65121643D01*
X186972819Y-65068523D01*
X187907812Y-65013140D01*
X190189844Y-64885117D01*
X193122192Y-60892703D01*
X193018479Y-57895961D01*
X192914766Y-54899218D01*
X191771159Y-52021875D01*
X191544565Y-51455898D01*
X191161137Y-50517729D01*
X190835585Y-49745667D01*
X190596768Y-49207559D01*
X190473547Y-48971255D01*
X190365387Y-48971823D01*
X189992759Y-49152183D01*
X189434375Y-49510185D01*
X188763742Y-50001534D01*
X188413535Y-50266477D01*
X187437806Y-50919603D01*
X186430098Y-51439189D01*
X185210334Y-51922587D01*
X184343207Y-52245957D01*
X183623511Y-52565760D01*
X183032932Y-52922103D01*
X182439816Y-53395710D01*
X181712507Y-54067308D01*
X180212287Y-55494531D01*
X179777419Y-57478906D01*
X179774151Y-57493819D01*
X179450035Y-58977927D01*
X179163117Y-60301538D01*
X178923088Y-61419249D01*
X178739639Y-62285654D01*
X178622463Y-62855348D01*
X178581250Y-63082925D01*
X177880670Y-63082925D01*
X178016243Y-62398525D01*
X178185995Y-61562898D01*
X178342264Y-60816520D01*
X178465683Y-60257031D01*
X178539458Y-59935758D01*
X178734156Y-59072633D01*
X178959903Y-58057587D01*
X179181432Y-57048706D01*
X179621052Y-55031005D01*
X181135136Y-53658369D01*
X181194706Y-53604366D01*
X181926051Y-52948405D01*
X182486934Y-52483721D01*
X182986325Y-52145726D01*
X183533199Y-51869832D01*
X184236527Y-51591450D01*
X185205282Y-51245995D01*
X185636481Y-51086993D01*
X187038431Y-50432885D01*
X188281063Y-49598464D01*
X188501022Y-49426507D01*
X189075045Y-48978334D01*
X189493222Y-48652702D01*
X189677214Y-48510649D01*
X189677214Y-48369527D01*
X189643875Y-48355632D01*
X191111034Y-48355632D01*
X191113589Y-48369527D01*
X191134441Y-48482958D01*
X191278810Y-48927190D01*
X191531000Y-49630046D01*
X191868745Y-50529858D01*
X192269781Y-51564961D01*
X193502037Y-54700781D01*
X193611094Y-57627734D01*
X193627047Y-58083757D01*
X193663062Y-59116912D01*
X193717198Y-59823397D01*
X193829090Y-60253812D01*
X194038369Y-60458754D01*
X194384671Y-60488822D01*
X194907628Y-60394616D01*
X195646875Y-60226734D01*
X196257948Y-60094786D01*
X197210869Y-59892939D01*
X198030387Y-59723413D01*
X199124055Y-59501642D01*
X198095666Y-57496962D01*
X197067276Y-55492283D01*
X197057831Y-55414152D01*
X197789105Y-55414152D01*
X198732536Y-57289888D01*
X199041953Y-57892397D01*
X199397709Y-58550206D01*
X199662483Y-58998402D01*
X199794624Y-59163512D01*
X199923210Y-59106757D01*
X200330569Y-58813229D01*
X200953552Y-58302229D01*
X201750834Y-57610514D01*
X202681090Y-56774841D01*
X203702994Y-55831970D01*
X204775222Y-54818658D01*
X205856447Y-53771662D01*
X208826363Y-50858169D01*
X208066098Y-47421662D01*
X207845988Y-46446980D01*
X207607806Y-45439056D01*
X207403103Y-44622345D01*
X207248406Y-44062473D01*
X207160245Y-43825063D01*
X207153674Y-43822896D01*
X206972930Y-43976211D01*
X206580256Y-44405771D01*
X206003192Y-45078498D01*
X205269281Y-45961316D01*
X204406064Y-47021150D01*
X203441084Y-48224924D01*
X202401882Y-49539562D01*
X197789105Y-55414152D01*
X197057831Y-55414152D01*
X196527643Y-51028563D01*
X196444478Y-50344115D01*
X196294402Y-49127289D01*
X196162262Y-48079300D01*
X196055311Y-47256459D01*
X195980799Y-46715081D01*
X195945979Y-46511479D01*
X195856333Y-46529567D01*
X195469752Y-46658071D01*
X194855445Y-46879422D01*
X194097765Y-47161449D01*
X193281061Y-47471976D01*
X192489685Y-47778831D01*
X191807988Y-48049841D01*
X191320320Y-48252833D01*
X191111034Y-48355632D01*
X189643875Y-48355632D01*
X189592898Y-48334386D01*
X189185222Y-48218431D01*
X188514002Y-48048368D01*
X187658380Y-47842289D01*
X186697497Y-47618284D01*
X185710494Y-47394441D01*
X184776513Y-47188851D01*
X183974696Y-47019605D01*
X183384185Y-46904791D01*
X183084119Y-46862499D01*
X182883956Y-46896005D01*
X182340489Y-47030970D01*
X181542648Y-47251217D01*
X180560724Y-47537191D01*
X179465008Y-47869337D01*
X176204733Y-48876175D01*
X172813611Y-47833407D01*
X169422488Y-46790640D01*
X166119852Y-47531763D01*
X165543391Y-47661533D01*
X164415857Y-47919851D01*
X163611981Y-48113962D01*
X163086249Y-48256983D01*
X162810994Y-48355632D01*
X162793148Y-48362028D01*
X162687165Y-48442211D01*
X161269467Y-48442211D01*
X161288966Y-48355632D01*
X161183039Y-48299125D01*
X160777304Y-48125422D01*
X160149897Y-47873157D01*
X159385170Y-47574504D01*
X158567475Y-47261635D01*
X157781161Y-46966726D01*
X157110580Y-46721947D01*
X156640083Y-46559474D01*
X156454021Y-46511479D01*
X156441218Y-46572441D01*
X156430913Y-46643301D01*
X156384879Y-46959849D01*
X156292772Y-47655588D01*
X156172125Y-48603347D01*
X156030164Y-49746817D01*
X155874118Y-51029687D01*
X155344409Y-55426769D01*
X155336246Y-55494531D01*
X154291078Y-57500419D01*
X153245911Y-59506308D01*
X151932942Y-59506308D01*
X151555797Y-59191482D01*
X150093230Y-57915543D01*
X148528209Y-56489441D01*
X146965734Y-55009746D01*
X145510803Y-53573024D01*
X142900513Y-50930468D01*
X142892975Y-50882592D01*
X143568179Y-50882592D01*
X146570891Y-53783874D01*
X146631302Y-53842209D01*
X147640020Y-54807084D01*
X148651410Y-55759145D01*
X149593965Y-56632125D01*
X150396175Y-57359759D01*
X150986533Y-57875781D01*
X151320606Y-58155175D01*
X151906702Y-58634169D01*
X152342957Y-58975776D01*
X152553467Y-59119734D01*
X152655072Y-59035546D01*
X152907817Y-58663981D01*
X153257944Y-58061810D01*
X153662265Y-57299916D01*
X154617061Y-55426769D01*
X150004121Y-49542950D01*
X149859652Y-49358851D01*
X148829282Y-48055996D01*
X147876649Y-46868669D01*
X147029271Y-45829933D01*
X146314666Y-44972849D01*
X145760353Y-44330481D01*
X145393850Y-43935892D01*
X145242675Y-43822143D01*
X145169032Y-44010757D01*
X145021074Y-44534121D01*
X144821080Y-45322806D01*
X144585598Y-46311246D01*
X144331174Y-47433874D01*
X143568179Y-50882592D01*
X142892975Y-50882592D01*
X141157133Y-39857987D01*
X141809601Y-39857987D01*
X142449574Y-44005165D01*
X142507346Y-44377422D01*
X142702700Y-45605501D01*
X142883359Y-46696774D01*
X143038295Y-47587319D01*
X143156480Y-48213214D01*
X143226885Y-48510537D01*
X143242120Y-48524467D01*
X143343373Y-48328402D01*
X143516350Y-47775296D01*
X143754673Y-46889623D01*
X144051964Y-45695857D01*
X144401846Y-44218471D01*
X144755276Y-42668980D01*
X145407730Y-42668980D01*
X150012623Y-48536052D01*
X150138781Y-48696755D01*
X151168445Y-50005753D01*
X152116959Y-51207077D01*
X152957096Y-52266571D01*
X153661631Y-53150079D01*
X154203336Y-53823445D01*
X154554985Y-54252512D01*
X154689352Y-54403125D01*
X154732524Y-54321539D01*
X154826079Y-53915538D01*
X154945101Y-53232211D01*
X155080522Y-52342506D01*
X155223271Y-51317368D01*
X155364280Y-50227743D01*
X155494479Y-49144578D01*
X155604799Y-48138818D01*
X155686170Y-47281411D01*
X155729523Y-46643301D01*
X155725790Y-46295436D01*
X155654524Y-46178128D01*
X155375577Y-45831499D01*
X156595418Y-45831499D01*
X159005912Y-46763498D01*
X159153866Y-46820683D01*
X160056903Y-47168786D01*
X160818987Y-47461036D01*
X161363754Y-47668233D01*
X161614844Y-47761174D01*
X161732152Y-47694017D01*
X162032965Y-47457812D01*
X163374418Y-47457812D01*
X163457209Y-47448730D01*
X163886446Y-47369227D01*
X164592558Y-47221033D01*
X165500254Y-47020230D01*
X166534247Y-46782898D01*
X169425673Y-46107984D01*
X172853078Y-47179773D01*
X173885802Y-47501931D01*
X174845536Y-47799681D01*
X175605985Y-48033817D01*
X176107355Y-48185935D01*
X176289851Y-48237630D01*
X176432000Y-48189468D01*
X176896960Y-48039045D01*
X177626599Y-47805423D01*
X178560387Y-47507976D01*
X179637790Y-47166079D01*
X182976362Y-46108459D01*
X185866770Y-46783136D01*
X186342218Y-46893274D01*
X187328582Y-47116133D01*
X188154801Y-47295232D01*
X188745569Y-47414486D01*
X189025582Y-47457812D01*
X189031680Y-47429584D01*
X188845109Y-47193380D01*
X188417780Y-46748419D01*
X187787649Y-46132234D01*
X186992677Y-45382356D01*
X186070821Y-44536314D01*
X185099225Y-43655179D01*
X183718528Y-42401918D01*
X182264768Y-41081339D01*
X180860180Y-39804487D01*
X179627002Y-38682408D01*
X179217800Y-38311337D01*
X178301998Y-37492257D01*
X177497177Y-36787957D01*
X176848477Y-36237065D01*
X176401038Y-35878203D01*
X176269687Y-35794439D01*
X177650776Y-35794439D01*
X177699148Y-35882059D01*
X178002681Y-36209873D01*
X178551389Y-36754982D01*
X179317034Y-37490597D01*
X180271374Y-38389928D01*
X181386170Y-39426189D01*
X182633183Y-40572590D01*
X183984172Y-41802343D01*
X185022298Y-42741883D01*
X186319254Y-43912864D01*
X187502986Y-44978463D01*
X188543406Y-45911764D01*
X189410428Y-46685851D01*
X190073965Y-47273809D01*
X190252614Y-47429584D01*
X190503929Y-47648722D01*
X190670234Y-47783675D01*
X190694617Y-47781474D01*
X190996824Y-47687996D01*
X191577563Y-47479481D01*
X192365859Y-47181986D01*
X193290742Y-46821567D01*
X194181255Y-46469598D01*
X196667163Y-46469598D01*
X196707516Y-47057361D01*
X196785385Y-47906920D01*
X196894414Y-48949424D01*
X197028247Y-50116019D01*
X197159666Y-51178945D01*
X197301443Y-52248216D01*
X197429274Y-53135009D01*
X197532929Y-53768700D01*
X197602180Y-54078659D01*
X197618534Y-54105780D01*
X197725917Y-54106862D01*
X197931743Y-53956484D01*
X198256288Y-53631169D01*
X198719830Y-53107441D01*
X199342643Y-52361822D01*
X200145006Y-51370835D01*
X201147193Y-50111005D01*
X202369481Y-48558853D01*
X206992270Y-42668980D01*
X206333350Y-39705583D01*
X206204991Y-39137921D01*
X205979907Y-38189513D01*
X205785656Y-37429765D01*
X205639608Y-36925162D01*
X205559133Y-36742187D01*
X205460815Y-36813132D01*
X205120341Y-37134546D01*
X204579360Y-37677056D01*
X203877292Y-38398645D01*
X203053553Y-39257293D01*
X202147560Y-40210981D01*
X201198731Y-41217689D01*
X200246482Y-42235399D01*
X199330232Y-43222091D01*
X198489397Y-44135747D01*
X197763394Y-44934347D01*
X197191641Y-45575872D01*
X196973401Y-45831253D01*
X196813556Y-46018303D01*
X196668554Y-46219621D01*
X196667163Y-46469598D01*
X194181255Y-46469598D01*
X195796327Y-45831253D01*
X194422129Y-42833341D01*
X194092579Y-42119328D01*
X193651919Y-41180738D01*
X193280279Y-40408030D01*
X193009181Y-39866441D01*
X192870143Y-39621209D01*
X192827724Y-39578270D01*
X192720506Y-39491631D01*
X193585238Y-39491631D01*
X194880825Y-42322743D01*
X195147698Y-42897643D01*
X195584095Y-43801360D01*
X195958942Y-44532975D01*
X196239149Y-45028912D01*
X196391628Y-45225594D01*
X196528328Y-45218308D01*
X196777089Y-44993121D01*
X196853077Y-44889793D01*
X197178217Y-44515413D01*
X197701125Y-43946688D01*
X198369536Y-43240036D01*
X199131186Y-42451877D01*
X199842155Y-41720458D01*
X200779473Y-40751205D01*
X201868220Y-39621751D01*
X203046542Y-38396348D01*
X204252582Y-37139249D01*
X205248761Y-36098323D01*
X206165442Y-36098323D01*
X207561263Y-42323770D01*
X207638752Y-42668980D01*
X207756481Y-43193461D01*
X208084537Y-44650284D01*
X208380381Y-45958250D01*
X208633152Y-47069664D01*
X208831985Y-47936832D01*
X208966019Y-48512061D01*
X209024389Y-48747656D01*
X209043023Y-48789559D01*
X209092633Y-48786432D01*
X209157359Y-48614007D01*
X209244396Y-48235071D01*
X209360935Y-47612412D01*
X209514171Y-46708818D01*
X209711295Y-45487076D01*
X209959502Y-43909973D01*
X210591419Y-39866040D01*
X210129573Y-36220520D01*
X209977012Y-35073795D01*
X209829838Y-34072588D01*
X209698639Y-33281490D01*
X209593590Y-32761846D01*
X209524867Y-32575000D01*
X209524242Y-32575015D01*
X209340184Y-32716099D01*
X208949070Y-33094973D01*
X208407912Y-33654278D01*
X207773725Y-34336661D01*
X206165442Y-36098323D01*
X205248761Y-36098323D01*
X205424484Y-35914707D01*
X205985938Y-35326572D01*
X207049898Y-34205718D01*
X207877371Y-33320127D01*
X208496298Y-32635976D01*
X208934621Y-32119441D01*
X209220280Y-31736698D01*
X209381218Y-31453924D01*
X209445374Y-31237295D01*
X209440691Y-31052988D01*
X209438040Y-31036940D01*
X209361580Y-30545841D01*
X209253611Y-29820370D01*
X209136616Y-29011457D01*
X209117210Y-28876312D01*
X209012954Y-28186673D01*
X208929318Y-27690889D01*
X208882907Y-27488635D01*
X208783793Y-27557007D01*
X208405882Y-27843098D01*
X207777834Y-28327168D01*
X206933947Y-28982320D01*
X205908519Y-29781660D01*
X204735848Y-30698290D01*
X203450234Y-31705316D01*
X202085974Y-32775842D01*
X200677367Y-33882973D01*
X199258711Y-34999812D01*
X197864305Y-36099463D01*
X196528448Y-37155032D01*
X195285437Y-38139622D01*
X194169572Y-39026338D01*
X193585238Y-39491631D01*
X192720506Y-39491631D01*
X192505728Y-39318078D01*
X191971654Y-38925104D01*
X191315727Y-38466380D01*
X189939097Y-37525771D01*
X183913809Y-36632715D01*
X183283739Y-36539818D01*
X181821568Y-36328156D01*
X180502168Y-36142557D01*
X179375465Y-35989704D01*
X178491382Y-35876279D01*
X177899845Y-35808963D01*
X177650776Y-35794439D01*
X176269687Y-35794439D01*
X176200000Y-35749999D01*
X176148040Y-35773535D01*
X176119850Y-35794439D01*
X175837421Y-36003875D01*
X175299467Y-36448558D01*
X174579318Y-37068958D01*
X173722115Y-37826450D01*
X172772998Y-38682408D01*
X171801978Y-39566047D01*
X170421676Y-40821024D01*
X168967952Y-42141758D01*
X167563040Y-43417204D01*
X166329179Y-44536314D01*
X165884564Y-44941667D01*
X165017337Y-45747397D01*
X164294751Y-46439407D01*
X163754764Y-46980167D01*
X163435333Y-47332146D01*
X163374418Y-47457812D01*
X162032965Y-47457812D01*
X162120377Y-47389175D01*
X162747228Y-46862929D01*
X163582359Y-46141777D01*
X164595423Y-45252216D01*
X165756072Y-44220740D01*
X167033961Y-43073848D01*
X168398741Y-41838034D01*
X169481077Y-40850068D01*
X170752382Y-39679474D01*
X171897628Y-38613678D01*
X172888669Y-37679475D01*
X173697358Y-36903657D01*
X174295547Y-36313017D01*
X174655091Y-35934346D01*
X174747840Y-35794439D01*
X174689392Y-35793634D01*
X174292478Y-35830891D01*
X173573743Y-35918168D01*
X172583062Y-36048787D01*
X171370306Y-36216070D01*
X169985348Y-36413340D01*
X168478060Y-36633920D01*
X162444642Y-37528181D01*
X161037555Y-38487726D01*
X160939662Y-38554704D01*
X160455003Y-38901441D01*
X160051804Y-39239453D01*
X159822269Y-39485727D01*
X159695434Y-39621813D01*
X159351265Y-40101592D01*
X158984667Y-40731860D01*
X158561011Y-41565690D01*
X158045667Y-42656152D01*
X157404006Y-44056318D01*
X156595418Y-45831499D01*
X155375577Y-45831499D01*
X155347427Y-45796520D01*
X154834404Y-45202586D01*
X154154758Y-44438587D01*
X153347794Y-43546781D01*
X152452814Y-42569431D01*
X151509123Y-41548794D01*
X150556024Y-40527132D01*
X149632821Y-39546705D01*
X148778817Y-38649772D01*
X148033316Y-37878594D01*
X147435622Y-37275430D01*
X147025038Y-36882541D01*
X146840867Y-36742187D01*
X146806567Y-36797118D01*
X146688496Y-37162172D01*
X146514240Y-37812923D01*
X146301169Y-38682888D01*
X146066650Y-39705583D01*
X145407730Y-42668980D01*
X144755276Y-42668980D01*
X144797940Y-42481938D01*
X146231657Y-36095145D01*
X144624825Y-34335072D01*
X144619159Y-34328867D01*
X143985817Y-33647624D01*
X143446002Y-33089977D01*
X143056759Y-32713308D01*
X142875133Y-32575000D01*
X142806870Y-32759861D01*
X142701981Y-33277815D01*
X142570907Y-34067491D01*
X142423831Y-35067510D01*
X142270937Y-36216493D01*
X141809601Y-39857987D01*
X141157133Y-39857987D01*
X141147631Y-39797640D01*
X142026583Y-33259367D01*
X142172941Y-32184147D01*
X142298202Y-31291818D01*
X142947024Y-31291818D01*
X143023304Y-31557148D01*
X143227974Y-31892113D01*
X143599471Y-32349084D01*
X144176230Y-32980433D01*
X144996688Y-33838534D01*
X146424417Y-35318437D01*
X147171932Y-36095145D01*
X148030952Y-36987714D01*
X149541079Y-38561103D01*
X150932317Y-40014971D01*
X152182186Y-41325688D01*
X153268203Y-42469621D01*
X154167889Y-43423138D01*
X154858761Y-44162608D01*
X155318339Y-44664399D01*
X155524143Y-44904879D01*
X155720896Y-45129844D01*
X155972290Y-45275000D01*
X156080092Y-45188625D01*
X156289472Y-44862456D01*
X156602398Y-44269810D01*
X157031313Y-43385788D01*
X157588661Y-42185496D01*
X158286886Y-40644035D01*
X158807219Y-39485727D01*
X158226657Y-39023387D01*
X157341556Y-38319734D01*
X156127701Y-37357675D01*
X154812926Y-36318300D01*
X153431593Y-35228554D01*
X152018064Y-34115382D01*
X150606699Y-33005731D01*
X149231861Y-31926544D01*
X147927910Y-30904766D01*
X146729209Y-29967344D01*
X145670119Y-29141222D01*
X144785001Y-28453345D01*
X144108216Y-27930658D01*
X143674126Y-27600106D01*
X143517093Y-27488635D01*
X143512308Y-27498693D01*
X143458075Y-27760339D01*
X143369565Y-28297820D01*
X143263384Y-29011457D01*
X143257744Y-29051011D01*
X143140380Y-29860908D01*
X143032863Y-30581294D01*
X142957825Y-31060409D01*
X142947024Y-31291818D01*
X142298202Y-31291818D01*
X142381959Y-30695159D01*
X142576370Y-29363316D01*
X142748873Y-28235903D01*
X142892168Y-27360206D01*
X142998956Y-26783508D01*
X143061936Y-26553097D01*
X143110880Y-26530074D01*
X143205902Y-26549034D01*
X143367308Y-26628997D01*
X143617326Y-26786843D01*
X143978182Y-27039453D01*
X144472105Y-27403708D01*
X145121322Y-27896490D01*
X145948061Y-28534679D01*
X146974550Y-29335158D01*
X148223016Y-30314807D01*
X149715687Y-31490507D01*
X151474791Y-32879140D01*
X153522555Y-34497586D01*
X154762286Y-35475637D01*
X155958055Y-36414693D01*
X157020788Y-37244857D01*
X157914931Y-37938549D01*
X158604928Y-38468191D01*
X159055224Y-38806201D01*
X159230263Y-38925000D01*
X159283551Y-38903398D01*
X159601593Y-38712778D01*
X160128342Y-38367703D01*
X160783772Y-37919944D01*
X162229471Y-36914888D01*
X169232628Y-35877492D01*
X176235786Y-34840096D01*
X190180092Y-36921536D01*
X191621010Y-37923268D01*
X191917751Y-38128126D01*
X192523409Y-38536313D01*
X192963894Y-38819198D01*
X193159675Y-38925000D01*
X193178936Y-38914314D01*
X193435523Y-38726602D01*
X193964987Y-38322590D01*
X194737707Y-37725360D01*
X195724060Y-36957996D01*
X196894424Y-36043582D01*
X198219179Y-35005202D01*
X199668702Y-33865940D01*
X201213372Y-32648879D01*
X201667874Y-32290828D01*
X203194166Y-31095748D01*
X204617250Y-29992515D01*
X205907545Y-29003361D01*
X207035471Y-28150520D01*
X207971449Y-27456223D01*
X208685898Y-26942704D01*
X209149240Y-26632194D01*
X209331893Y-26546926D01*
X209369791Y-26661193D01*
X209464299Y-27129697D01*
X209597562Y-27912690D01*
X209762219Y-28962753D01*
X209950911Y-30232473D01*
X210094020Y-31237295D01*
X210156278Y-31674433D01*
X210370961Y-33241217D01*
X211247457Y-39761341D01*
X211231130Y-39866040D01*
X210376627Y-45345905D01*
X209517069Y-50858169D01*
G36*
X190819732Y-59586594D02*
G01*
X190574589Y-61050719D01*
X189377703Y-61943719D01*
X188180817Y-62836718D01*
X186587618Y-62737500D01*
X186412331Y-62726175D01*
X185610458Y-62649474D01*
X185021709Y-62516078D01*
X184489882Y-62277114D01*
X183858776Y-61883712D01*
X182723132Y-61129144D01*
X182735002Y-60703103D01*
X183353040Y-60703103D01*
X184436748Y-61422645D01*
X184918903Y-61729113D01*
X185468797Y-61995317D01*
X186022118Y-62110598D01*
X186763744Y-62131253D01*
X187174595Y-62121475D01*
X187821871Y-62042531D01*
X188364671Y-61833932D01*
X188998454Y-61434759D01*
X189011818Y-61425513D01*
X189559360Y-61020498D01*
X189881317Y-60664628D01*
X190071549Y-60210555D01*
X190223918Y-59510927D01*
X190272666Y-59250512D01*
X190359481Y-58655810D01*
X190330283Y-58226614D01*
X190154471Y-57795050D01*
X189801444Y-57193243D01*
X189657403Y-56962064D01*
X189230089Y-56389571D01*
X188772887Y-56021545D01*
X188144885Y-55733844D01*
X187557568Y-55525042D01*
X187137248Y-55453609D01*
X186705771Y-55519562D01*
X186082163Y-55721850D01*
X185285987Y-56085797D01*
X184310015Y-56883593D01*
X184227134Y-56977170D01*
X183885429Y-57411925D01*
X183679259Y-57834917D01*
X183559441Y-58382300D01*
X183476793Y-59190223D01*
X183353040Y-60703103D01*
X182735002Y-60703103D01*
X182765690Y-59601681D01*
X182795741Y-58883040D01*
X182888704Y-58059886D01*
X183076093Y-57428670D01*
X183399328Y-56867088D01*
X183899828Y-56252836D01*
X184040633Y-56097901D01*
X184546448Y-55643064D01*
X185123418Y-55335153D01*
X185933410Y-55080884D01*
X186113742Y-55033639D01*
X186774486Y-54880198D01*
X187258706Y-54838778D01*
X187734955Y-54910440D01*
X188371782Y-55096247D01*
X188692997Y-55203915D01*
X189294464Y-55480662D01*
X189760442Y-55864064D01*
X190182212Y-56442560D01*
X190651056Y-57304593D01*
X190729061Y-57461464D01*
X190902857Y-57883103D01*
X190969224Y-58287505D01*
X190947346Y-58655810D01*
X190938178Y-58810170D01*
X190819732Y-59586594D01*
G37*
X190819732Y-59586594D02*
X190574589Y-61050719D01*
X189377703Y-61943719D01*
X188180817Y-62836718D01*
X186587618Y-62737500D01*
X186412331Y-62726175D01*
X185610458Y-62649474D01*
X185021709Y-62516078D01*
X184489882Y-62277114D01*
X183858776Y-61883712D01*
X182723132Y-61129144D01*
X182735002Y-60703103D01*
X183353040Y-60703103D01*
X184436748Y-61422645D01*
X184918903Y-61729113D01*
X185468797Y-61995317D01*
X186022118Y-62110598D01*
X186763744Y-62131253D01*
X187174595Y-62121475D01*
X187821871Y-62042531D01*
X188364671Y-61833932D01*
X188998454Y-61434759D01*
X189011818Y-61425513D01*
X189559360Y-61020498D01*
X189881317Y-60664628D01*
X190071549Y-60210555D01*
X190223918Y-59510927D01*
X190272666Y-59250512D01*
X190359481Y-58655810D01*
X190330283Y-58226614D01*
X190154471Y-57795050D01*
X189801444Y-57193243D01*
X189657403Y-56962064D01*
X189230089Y-56389571D01*
X188772887Y-56021545D01*
X188144885Y-55733844D01*
X187557568Y-55525042D01*
X187137248Y-55453609D01*
X186705771Y-55519562D01*
X186082163Y-55721850D01*
X185285987Y-56085797D01*
X184310015Y-56883593D01*
X184227134Y-56977170D01*
X183885429Y-57411925D01*
X183679259Y-57834917D01*
X183559441Y-58382300D01*
X183476793Y-59190223D01*
X183353040Y-60703103D01*
X182735002Y-60703103D01*
X182765690Y-59601681D01*
X182795741Y-58883040D01*
X182888704Y-58059886D01*
X183076093Y-57428670D01*
X183399328Y-56867088D01*
X183899828Y-56252836D01*
X184040633Y-56097901D01*
X184546448Y-55643064D01*
X185123418Y-55335153D01*
X185933410Y-55080884D01*
X186113742Y-55033639D01*
X186774486Y-54880198D01*
X187258706Y-54838778D01*
X187734955Y-54910440D01*
X188371782Y-55096247D01*
X188692997Y-55203915D01*
X189294464Y-55480662D01*
X189760442Y-55864064D01*
X190182212Y-56442560D01*
X190651056Y-57304593D01*
X190729061Y-57461464D01*
X190902857Y-57883103D01*
X190969224Y-58287505D01*
X190947346Y-58655810D01*
X190938178Y-58810170D01*
X190819732Y-59586594D01*
G36*
X168528731Y-61892113D02*
G01*
X168406814Y-61972252D01*
X167662909Y-62396640D01*
X166963871Y-62632761D01*
X166097872Y-62755886D01*
X165438511Y-62816673D01*
X164872766Y-62871862D01*
X164575818Y-62904714D01*
X164563428Y-62905792D01*
X164246021Y-62799174D01*
X163740676Y-62514240D01*
X163155647Y-62123034D01*
X162599187Y-61697599D01*
X162179549Y-61309978D01*
X162176294Y-61306400D01*
X161846826Y-60779800D01*
X161639119Y-60157812D01*
X161494668Y-59328498D01*
X161401799Y-58671525D01*
X161396863Y-58370425D01*
X162044047Y-58370425D01*
X162059409Y-58837425D01*
X162179240Y-59528391D01*
X162234193Y-59813053D01*
X162378240Y-60389224D01*
X162585671Y-60784213D01*
X162945990Y-61130952D01*
X163548699Y-61562375D01*
X163580098Y-61583929D01*
X164143832Y-61960615D01*
X164558171Y-62218881D01*
X164735401Y-62303917D01*
X164839654Y-62283894D01*
X165246534Y-62241105D01*
X165844707Y-62193875D01*
X166228250Y-62152593D01*
X167073579Y-61919197D01*
X167962874Y-61440353D01*
X169026178Y-60760166D01*
X168910724Y-59218755D01*
X168893035Y-58991273D01*
X168811226Y-58249427D01*
X168680584Y-57734810D01*
X168453508Y-57310765D01*
X168082401Y-56840634D01*
X167942108Y-56681846D01*
X167227415Y-56076502D01*
X166355687Y-55702201D01*
X165949592Y-55588005D01*
X165431905Y-55502819D01*
X164949171Y-55556638D01*
X164300046Y-55754595D01*
X163928005Y-55890840D01*
X163420300Y-56160553D01*
X163024156Y-56554570D01*
X162600145Y-57190684D01*
X162446162Y-57444988D01*
X162163012Y-57961557D01*
X162044047Y-58370425D01*
X161396863Y-58370425D01*
X161394153Y-58205136D01*
X161483480Y-57822743D01*
X161681530Y-57417758D01*
X162000052Y-56883593D01*
X162158900Y-56626569D01*
X162617610Y-55997188D01*
X163095885Y-55573739D01*
X163722511Y-55232795D01*
X163973504Y-55119211D01*
X164590023Y-54878091D01*
X165093001Y-54794614D01*
X165645751Y-54858174D01*
X166411588Y-55058165D01*
X166862603Y-55195893D01*
X167591631Y-55501040D01*
X168167278Y-55915179D01*
X168752565Y-56541617D01*
X169008614Y-56886848D01*
X169375256Y-57662098D01*
X169580115Y-58639405D01*
X169646828Y-59907738D01*
X169650088Y-60760166D01*
X169651562Y-61145946D01*
X168528731Y-61892113D01*
G37*
X168528731Y-61892113D02*
X168406814Y-61972252D01*
X167662909Y-62396640D01*
X166963871Y-62632761D01*
X166097872Y-62755886D01*
X165438511Y-62816673D01*
X164872766Y-62871862D01*
X164575818Y-62904714D01*
X164563428Y-62905792D01*
X164246021Y-62799174D01*
X163740676Y-62514240D01*
X163155647Y-62123034D01*
X162599187Y-61697599D01*
X162179549Y-61309978D01*
X162176294Y-61306400D01*
X161846826Y-60779800D01*
X161639119Y-60157812D01*
X161494668Y-59328498D01*
X161401799Y-58671525D01*
X161396863Y-58370425D01*
X162044047Y-58370425D01*
X162059409Y-58837425D01*
X162179240Y-59528391D01*
X162234193Y-59813053D01*
X162378240Y-60389224D01*
X162585671Y-60784213D01*
X162945990Y-61130952D01*
X163548699Y-61562375D01*
X163580098Y-61583929D01*
X164143832Y-61960615D01*
X164558171Y-62218881D01*
X164735401Y-62303917D01*
X164839654Y-62283894D01*
X165246534Y-62241105D01*
X165844707Y-62193875D01*
X166228250Y-62152593D01*
X167073579Y-61919197D01*
X167962874Y-61440353D01*
X169026178Y-60760166D01*
X168910724Y-59218755D01*
X168893035Y-58991273D01*
X168811226Y-58249427D01*
X168680584Y-57734810D01*
X168453508Y-57310765D01*
X168082401Y-56840634D01*
X167942108Y-56681846D01*
X167227415Y-56076502D01*
X166355687Y-55702201D01*
X165949592Y-55588005D01*
X165431905Y-55502819D01*
X164949171Y-55556638D01*
X164300046Y-55754595D01*
X163928005Y-55890840D01*
X163420300Y-56160553D01*
X163024156Y-56554570D01*
X162600145Y-57190684D01*
X162446162Y-57444988D01*
X162163012Y-57961557D01*
X162044047Y-58370425D01*
X161396863Y-58370425D01*
X161394153Y-58205136D01*
X161483480Y-57822743D01*
X161681530Y-57417758D01*
X162000052Y-56883593D01*
X162158900Y-56626569D01*
X162617610Y-55997188D01*
X163095885Y-55573739D01*
X163722511Y-55232795D01*
X163973504Y-55119211D01*
X164590023Y-54878091D01*
X165093001Y-54794614D01*
X165645751Y-54858174D01*
X166411588Y-55058165D01*
X166862603Y-55195893D01*
X167591631Y-55501040D01*
X168167278Y-55915179D01*
X168752565Y-56541617D01*
X169008614Y-56886848D01*
X169375256Y-57662098D01*
X169580115Y-58639405D01*
X169646828Y-59907738D01*
X169650088Y-60760166D01*
X169651562Y-61145946D01*
X168528731Y-61892113D01*
G36*
X187672863Y-59759024D02*
G01*
X187247591Y-60019773D01*
X187075516Y-60052060D01*
X186505288Y-60113672D01*
X186120276Y-60023511D01*
X185762418Y-59753207D01*
X185444943Y-59318489D01*
X185363188Y-58891260D01*
X185936959Y-58891260D01*
X186161562Y-59324375D01*
X186293641Y-59439060D01*
X186508828Y-59539480D01*
X186954181Y-59418108D01*
X187239975Y-59210073D01*
X187312500Y-58860400D01*
X187276180Y-58607735D01*
X187022932Y-58233101D01*
X186633829Y-58103924D01*
X186234874Y-58287223D01*
X186107059Y-58431208D01*
X185936959Y-58891260D01*
X185363188Y-58891260D01*
X185332035Y-58728468D01*
X185483126Y-58168275D01*
X185846546Y-57728631D01*
X186370620Y-57500259D01*
X187003679Y-57573880D01*
X187389219Y-57803908D01*
X187799403Y-58230780D01*
X187965211Y-58683015D01*
X187953519Y-58860400D01*
X187926808Y-59265656D01*
X187672863Y-59759024D01*
G37*
X187672863Y-59759024D02*
X187247591Y-60019773D01*
X187075516Y-60052060D01*
X186505288Y-60113672D01*
X186120276Y-60023511D01*
X185762418Y-59753207D01*
X185444943Y-59318489D01*
X185363188Y-58891260D01*
X185936959Y-58891260D01*
X186161562Y-59324375D01*
X186293641Y-59439060D01*
X186508828Y-59539480D01*
X186954181Y-59418108D01*
X187239975Y-59210073D01*
X187312500Y-58860400D01*
X187276180Y-58607735D01*
X187022932Y-58233101D01*
X186633829Y-58103924D01*
X186234874Y-58287223D01*
X186107059Y-58431208D01*
X185936959Y-58891260D01*
X185363188Y-58891260D01*
X185332035Y-58728468D01*
X185483126Y-58168275D01*
X185846546Y-57728631D01*
X186370620Y-57500259D01*
X187003679Y-57573880D01*
X187389219Y-57803908D01*
X187799403Y-58230780D01*
X187965211Y-58683015D01*
X187953519Y-58860400D01*
X187926808Y-59265656D01*
X187672863Y-59759024D01*
G36*
X166647288Y-59691217D02*
G01*
X166424330Y-59905462D01*
X166030441Y-60092536D01*
X165488450Y-60053837D01*
X165073305Y-59970265D01*
X164697478Y-59835406D01*
X164511793Y-59603073D01*
X164395279Y-59176142D01*
X164372887Y-59042716D01*
X164393286Y-58889065D01*
X165100799Y-58889065D01*
X165325625Y-59324375D01*
X165704257Y-59533313D01*
X166089823Y-59454846D01*
X166340766Y-59126957D01*
X166349485Y-58623322D01*
X166155357Y-58241654D01*
X165797510Y-58086931D01*
X165390899Y-58295261D01*
X165272016Y-58428668D01*
X165100799Y-58889065D01*
X164393286Y-58889065D01*
X164462871Y-58364936D01*
X164845420Y-57814979D01*
X165443528Y-57514888D01*
X165589149Y-57493698D01*
X166226456Y-57595266D01*
X166705318Y-57964141D01*
X166971339Y-58501985D01*
X166971097Y-58623322D01*
X166970127Y-59110457D01*
X166647288Y-59691217D01*
G37*
X166647288Y-59691217D02*
X166424330Y-59905462D01*
X166030441Y-60092536D01*
X165488450Y-60053837D01*
X165073305Y-59970265D01*
X164697478Y-59835406D01*
X164511793Y-59603073D01*
X164395279Y-59176142D01*
X164372887Y-59042716D01*
X164393286Y-58889065D01*
X165100799Y-58889065D01*
X165325625Y-59324375D01*
X165704257Y-59533313D01*
X166089823Y-59454846D01*
X166340766Y-59126957D01*
X166349485Y-58623322D01*
X166155357Y-58241654D01*
X165797510Y-58086931D01*
X165390899Y-58295261D01*
X165272016Y-58428668D01*
X165100799Y-58889065D01*
X164393286Y-58889065D01*
X164462871Y-58364936D01*
X164845420Y-57814979D01*
X165443528Y-57514888D01*
X165589149Y-57493698D01*
X166226456Y-57595266D01*
X166705318Y-57964141D01*
X166971339Y-58501985D01*
X166971097Y-58623322D01*
X166970127Y-59110457D01*
X166647288Y-59691217D01*
%TD*%
M02*
