%TF.GenerationSoftware,KiCad,Pcbnew,(5.99.0-1351-gc977addfa)*%
%TF.CreationDate,2020-06-03T20:56:01-07:00*%
%TF.ProjectId,NonSplitKyria,4e6f6e53-706c-4697-944b-797269612e6b,rev?*%
%TF.SameCoordinates,Original*%
%TF.FileFunction,Legend,Top*%
%TF.FilePolarity,Positive*%
%FSLAX46Y46*%
G04 Gerber Fmt 4.6, Leading zero omitted, Abs format (unit mm)*
G04 Created by KiCad (PCBNEW (5.99.0-1351-gc977addfa)) date 2020-06-03 20:56:01*
%MOMM*%
%LPD*%
G01*
G04 APERTURE LIST*
%ADD10C,0.200000*%
%ADD11C,-0.000002*%
G04 APERTURE END LIST*
X167766666Y-51554761D02*
X167766666Y-53173809D01*
X167933333Y-53364285D01*
X168100000Y-53459523D01*
X168433333Y-53554761D01*
X169100000Y-53554761D01*
X169433333Y-53459523D01*
X169600000Y-53364285D01*
X169766666Y-53173809D01*
X169766666Y-51554761D01*
X171433333Y-52221428D02*
X171433333Y-53554761D01*
X171433333Y-52411904D02*
X171600000Y-52316666D01*
X171933333Y-52221428D01*
X172433333Y-52221428D01*
X172766666Y-52316666D01*
X172933333Y-52507142D01*
X172933333Y-53554761D01*
X174433333Y-53459523D02*
X174933333Y-53554761D01*
X175766666Y-53554761D01*
X176100000Y-53459523D01*
X176266666Y-53364285D01*
X176433333Y-53173809D01*
X176433333Y-52983333D01*
X176266666Y-52792857D01*
X176100000Y-52697619D01*
X175766666Y-52602380D01*
X175100000Y-52507142D01*
X174766666Y-52411904D01*
X174600000Y-52316666D01*
X174433333Y-52126190D01*
X174433333Y-51935714D01*
X174600000Y-51745238D01*
X174766666Y-51650000D01*
X175100000Y-51554761D01*
X175933333Y-51554761D01*
X176433333Y-51650000D01*
X177933333Y-52221428D02*
X177933333Y-54221428D01*
X177933333Y-52316666D02*
X178266666Y-52221428D01*
X178933333Y-52221428D01*
X179266666Y-52316666D01*
X179433333Y-52411904D01*
X179600000Y-52602380D01*
X179600000Y-53173809D01*
X179433333Y-53364285D01*
X179266666Y-53459523D01*
X178933333Y-53554761D01*
X178266666Y-53554761D01*
X177933333Y-53459523D01*
X181600000Y-53554761D02*
X181266666Y-53459523D01*
X181100000Y-53269047D01*
X181100000Y-51554761D01*
X182933333Y-53554761D02*
X182933333Y-52221428D01*
X182933333Y-51554761D02*
X182766666Y-51650000D01*
X182933333Y-51745238D01*
X183100000Y-51650000D01*
X182933333Y-51554761D01*
X182933333Y-51745238D01*
X184100000Y-52221428D02*
X185433333Y-52221428D01*
X184600000Y-51554761D02*
X184600000Y-53269047D01*
X184766666Y-53459523D01*
X185100000Y-53554761D01*
X185433333Y-53554761D01*
D10*
%TO.C,Y1*%
X166268750Y-37566250D02*
X166268750Y-37716250D01*
X168068750Y-37566250D02*
X168068750Y-37716250D01*
X168068750Y-41166250D02*
X168068750Y-41016250D01*
X166268750Y-41166250D02*
X166268750Y-41016250D01*
X168068750Y-41166250D02*
X166268750Y-41166250D01*
X166268750Y-37566250D02*
X168068750Y-37566250D01*
%TO.C,U1*%
X181550000Y-34512500D02*
X180975000Y-34512500D01*
X181550000Y-44862500D02*
X180875000Y-44862500D01*
X171200000Y-44862500D02*
X171875000Y-44862500D01*
X171200000Y-34512500D02*
X171875000Y-34512500D01*
X181550000Y-34512500D02*
X181550000Y-35187500D01*
X171200000Y-34512500D02*
X171200000Y-35187500D01*
X171200000Y-44862500D02*
X171200000Y-44187500D01*
X181550000Y-44862500D02*
X181550000Y-44187500D01*
X180975000Y-34512500D02*
X180975000Y-33237500D01*
%TO.C,SW1*%
D11*
X162293750Y-24606250D02*
G75*
G03*
X162293750Y-24606250I-1000000J0D01*
G01*
D10*
X163893750Y-22006250D02*
X163893750Y-27206250D01*
X158693750Y-22006250D02*
X163893750Y-22006250D01*
X158693750Y-27206250D02*
X158693750Y-22006250D01*
X163893750Y-27206250D02*
X158693750Y-27206250D01*
%TO.C,R6*%
X181048922Y-48367500D02*
X181566078Y-48367500D01*
X181048922Y-49787500D02*
X181566078Y-49787500D01*
%TO.C,R5*%
X177306250Y-23553922D02*
X177306250Y-24071078D01*
X175886250Y-23553922D02*
X175886250Y-24071078D01*
%TO.C,R4*%
X175121250Y-23553922D02*
X175121250Y-24071078D01*
X173701250Y-23553922D02*
X173701250Y-24071078D01*
%TO.C,R3*%
X173496078Y-20772500D02*
X172978922Y-20772500D01*
X173496078Y-19352500D02*
X172978922Y-19352500D01*
%TO.C,R2*%
X177928922Y-19365000D02*
X178446078Y-19365000D01*
X177928922Y-20785000D02*
X178446078Y-20785000D01*
%TO.C,R1*%
X167586078Y-35047500D02*
X167068922Y-35047500D01*
X167586078Y-33627500D02*
X167068922Y-33627500D01*
%TO.C,J1*%
X169243750Y-9985000D02*
X169243750Y-18885000D01*
X169243750Y-18885000D02*
X182243750Y-18885000D01*
X182243750Y-18885000D02*
X182243750Y-9985000D01*
%TO.C,F1*%
X171822500Y-23222936D02*
X171822500Y-24427064D01*
X170002500Y-23222936D02*
X170002500Y-24427064D01*
%TO.C,D44*%
X188706250Y-84800000D02*
X190706250Y-84800000D01*
X189706250Y-82300000D02*
X189706250Y-81800000D01*
X190106250Y-82300000D02*
X189706250Y-82900000D01*
X189306250Y-82300000D02*
X190106250Y-82300000D01*
X189706250Y-82900000D02*
X189306250Y-82300000D01*
X189706250Y-82900000D02*
X190256250Y-82900000D01*
X189706250Y-82900000D02*
X189156250Y-82900000D01*
X189706250Y-83300000D02*
X189706250Y-82900000D01*
X190706250Y-84800000D02*
X190706250Y-80900000D01*
X188706250Y-84800000D02*
X188706250Y-80900000D01*
%TO.C,D43*%
X185531250Y-84800000D02*
X187531250Y-84800000D01*
X186531250Y-82300000D02*
X186531250Y-81800000D01*
X186931250Y-82300000D02*
X186531250Y-82900000D01*
X186131250Y-82300000D02*
X186931250Y-82300000D01*
X186531250Y-82900000D02*
X186131250Y-82300000D01*
X186531250Y-82900000D02*
X187081250Y-82900000D01*
X186531250Y-82900000D02*
X185981250Y-82900000D01*
X186531250Y-83300000D02*
X186531250Y-82900000D01*
X187531250Y-84800000D02*
X187531250Y-80900000D01*
X185531250Y-84800000D02*
X185531250Y-80900000D01*
%TO.C,D41*%
X179181250Y-84800000D02*
X181181250Y-84800000D01*
X180181250Y-82300000D02*
X180181250Y-81800000D01*
X180581250Y-82300000D02*
X180181250Y-82900000D01*
X179781250Y-82300000D02*
X180581250Y-82300000D01*
X180181250Y-82900000D02*
X179781250Y-82300000D01*
X180181250Y-82900000D02*
X180731250Y-82900000D01*
X180181250Y-82900000D02*
X179631250Y-82900000D01*
X180181250Y-83300000D02*
X180181250Y-82900000D01*
X181181250Y-84800000D02*
X181181250Y-80900000D01*
X179181250Y-84800000D02*
X179181250Y-80900000D01*
%TO.C,D42*%
X182356250Y-84800000D02*
X184356250Y-84800000D01*
X183356250Y-82300000D02*
X183356250Y-81800000D01*
X183756250Y-82300000D02*
X183356250Y-82900000D01*
X182956250Y-82300000D02*
X183756250Y-82300000D01*
X183356250Y-82900000D02*
X182956250Y-82300000D01*
X183356250Y-82900000D02*
X183906250Y-82900000D01*
X183356250Y-82900000D02*
X182806250Y-82900000D01*
X183356250Y-83300000D02*
X183356250Y-82900000D01*
X184356250Y-84800000D02*
X184356250Y-80900000D01*
X182356250Y-84800000D02*
X182356250Y-80900000D01*
%TO.C,D40*%
X171243750Y-84800000D02*
X173243750Y-84800000D01*
X172243750Y-82300000D02*
X172243750Y-81800000D01*
X172643750Y-82300000D02*
X172243750Y-82900000D01*
X171843750Y-82300000D02*
X172643750Y-82300000D01*
X172243750Y-82900000D02*
X171843750Y-82300000D01*
X172243750Y-82900000D02*
X172793750Y-82900000D01*
X172243750Y-82900000D02*
X171693750Y-82900000D01*
X172243750Y-83300000D02*
X172243750Y-82900000D01*
X173243750Y-84800000D02*
X173243750Y-80900000D01*
X171243750Y-84800000D02*
X171243750Y-80900000D01*
%TO.C,D39*%
X168068750Y-84800000D02*
X170068750Y-84800000D01*
X169068750Y-82300000D02*
X169068750Y-81800000D01*
X169468750Y-82300000D02*
X169068750Y-82900000D01*
X168668750Y-82300000D02*
X169468750Y-82300000D01*
X169068750Y-82900000D02*
X168668750Y-82300000D01*
X169068750Y-82900000D02*
X169618750Y-82900000D01*
X169068750Y-82900000D02*
X168518750Y-82900000D01*
X169068750Y-83300000D02*
X169068750Y-82900000D01*
X170068750Y-84800000D02*
X170068750Y-80900000D01*
X168068750Y-84800000D02*
X168068750Y-80900000D01*
%TO.C,D38*%
X164893750Y-84800000D02*
X166893750Y-84800000D01*
X165893750Y-82300000D02*
X165893750Y-81800000D01*
X166293750Y-82300000D02*
X165893750Y-82900000D01*
X165493750Y-82300000D02*
X166293750Y-82300000D01*
X165893750Y-82900000D02*
X165493750Y-82300000D01*
X165893750Y-82900000D02*
X166443750Y-82900000D01*
X165893750Y-82900000D02*
X165343750Y-82900000D01*
X165893750Y-83300000D02*
X165893750Y-82900000D01*
X166893750Y-84800000D02*
X166893750Y-80900000D01*
X164893750Y-84800000D02*
X164893750Y-80900000D01*
%TO.C,D37*%
X161718750Y-84800000D02*
X163718750Y-84800000D01*
X162718750Y-82300000D02*
X162718750Y-81800000D01*
X163118750Y-82300000D02*
X162718750Y-82900000D01*
X162318750Y-82300000D02*
X163118750Y-82300000D01*
X162718750Y-82900000D02*
X162318750Y-82300000D01*
X162718750Y-82900000D02*
X163268750Y-82900000D01*
X162718750Y-82900000D02*
X162168750Y-82900000D01*
X162718750Y-83300000D02*
X162718750Y-82900000D01*
X163718750Y-84800000D02*
X163718750Y-80900000D01*
X161718750Y-84800000D02*
X161718750Y-80900000D01*
%TO.C,D36*%
X195056250Y-76068750D02*
X197056250Y-76068750D01*
X196056250Y-73568750D02*
X196056250Y-73068750D01*
X196456250Y-73568750D02*
X196056250Y-74168750D01*
X195656250Y-73568750D02*
X196456250Y-73568750D01*
X196056250Y-74168750D02*
X195656250Y-73568750D01*
X196056250Y-74168750D02*
X196606250Y-74168750D01*
X196056250Y-74168750D02*
X195506250Y-74168750D01*
X196056250Y-74568750D02*
X196056250Y-74168750D01*
X197056250Y-76068750D02*
X197056250Y-72168750D01*
X195056250Y-76068750D02*
X195056250Y-72168750D01*
%TO.C,D35*%
X191881250Y-76068750D02*
X193881250Y-76068750D01*
X192881250Y-73568750D02*
X192881250Y-73068750D01*
X193281250Y-73568750D02*
X192881250Y-74168750D01*
X192481250Y-73568750D02*
X193281250Y-73568750D01*
X192881250Y-74168750D02*
X192481250Y-73568750D01*
X192881250Y-74168750D02*
X193431250Y-74168750D01*
X192881250Y-74168750D02*
X192331250Y-74168750D01*
X192881250Y-74568750D02*
X192881250Y-74168750D01*
X193881250Y-76068750D02*
X193881250Y-72168750D01*
X191881250Y-76068750D02*
X191881250Y-72168750D01*
%TO.C,D34*%
X188706250Y-76068750D02*
X190706250Y-76068750D01*
X189706250Y-73568750D02*
X189706250Y-73068750D01*
X190106250Y-73568750D02*
X189706250Y-74168750D01*
X189306250Y-73568750D02*
X190106250Y-73568750D01*
X189706250Y-74168750D02*
X189306250Y-73568750D01*
X189706250Y-74168750D02*
X190256250Y-74168750D01*
X189706250Y-74168750D02*
X189156250Y-74168750D01*
X189706250Y-74568750D02*
X189706250Y-74168750D01*
X190706250Y-76068750D02*
X190706250Y-72168750D01*
X188706250Y-76068750D02*
X188706250Y-72168750D01*
%TO.C,D33*%
X185531250Y-76068750D02*
X187531250Y-76068750D01*
X186531250Y-73568750D02*
X186531250Y-73068750D01*
X186931250Y-73568750D02*
X186531250Y-74168750D01*
X186131250Y-73568750D02*
X186931250Y-73568750D01*
X186531250Y-74168750D02*
X186131250Y-73568750D01*
X186531250Y-74168750D02*
X187081250Y-74168750D01*
X186531250Y-74168750D02*
X185981250Y-74168750D01*
X186531250Y-74568750D02*
X186531250Y-74168750D01*
X187531250Y-76068750D02*
X187531250Y-72168750D01*
X185531250Y-76068750D02*
X185531250Y-72168750D01*
%TO.C,D32*%
X182356250Y-76068750D02*
X184356250Y-76068750D01*
X183356250Y-73568750D02*
X183356250Y-73068750D01*
X183756250Y-73568750D02*
X183356250Y-74168750D01*
X182956250Y-73568750D02*
X183756250Y-73568750D01*
X183356250Y-74168750D02*
X182956250Y-73568750D01*
X183356250Y-74168750D02*
X183906250Y-74168750D01*
X183356250Y-74168750D02*
X182806250Y-74168750D01*
X183356250Y-74568750D02*
X183356250Y-74168750D01*
X184356250Y-76068750D02*
X184356250Y-72168750D01*
X182356250Y-76068750D02*
X182356250Y-72168750D01*
%TO.C,D31*%
X179181250Y-76068750D02*
X181181250Y-76068750D01*
X180181250Y-73568750D02*
X180181250Y-73068750D01*
X180581250Y-73568750D02*
X180181250Y-74168750D01*
X179781250Y-73568750D02*
X180581250Y-73568750D01*
X180181250Y-74168750D02*
X179781250Y-73568750D01*
X180181250Y-74168750D02*
X180731250Y-74168750D01*
X180181250Y-74168750D02*
X179631250Y-74168750D01*
X180181250Y-74568750D02*
X180181250Y-74168750D01*
X181181250Y-76068750D02*
X181181250Y-72168750D01*
X179181250Y-76068750D02*
X179181250Y-72168750D01*
%TO.C,D30*%
X171243750Y-76068750D02*
X173243750Y-76068750D01*
X172243750Y-73568750D02*
X172243750Y-73068750D01*
X172643750Y-73568750D02*
X172243750Y-74168750D01*
X171843750Y-73568750D02*
X172643750Y-73568750D01*
X172243750Y-74168750D02*
X171843750Y-73568750D01*
X172243750Y-74168750D02*
X172793750Y-74168750D01*
X172243750Y-74168750D02*
X171693750Y-74168750D01*
X172243750Y-74568750D02*
X172243750Y-74168750D01*
X173243750Y-76068750D02*
X173243750Y-72168750D01*
X171243750Y-76068750D02*
X171243750Y-72168750D01*
%TO.C,D29*%
X168068750Y-76068750D02*
X170068750Y-76068750D01*
X169068750Y-73568750D02*
X169068750Y-73068750D01*
X169468750Y-73568750D02*
X169068750Y-74168750D01*
X168668750Y-73568750D02*
X169468750Y-73568750D01*
X169068750Y-74168750D02*
X168668750Y-73568750D01*
X169068750Y-74168750D02*
X169618750Y-74168750D01*
X169068750Y-74168750D02*
X168518750Y-74168750D01*
X169068750Y-74568750D02*
X169068750Y-74168750D01*
X170068750Y-76068750D02*
X170068750Y-72168750D01*
X168068750Y-76068750D02*
X168068750Y-72168750D01*
%TO.C,D28*%
X164893750Y-76068750D02*
X166893750Y-76068750D01*
X165893750Y-73568750D02*
X165893750Y-73068750D01*
X166293750Y-73568750D02*
X165893750Y-74168750D01*
X165493750Y-73568750D02*
X166293750Y-73568750D01*
X165893750Y-74168750D02*
X165493750Y-73568750D01*
X165893750Y-74168750D02*
X166443750Y-74168750D01*
X165893750Y-74168750D02*
X165343750Y-74168750D01*
X165893750Y-74568750D02*
X165893750Y-74168750D01*
X166893750Y-76068750D02*
X166893750Y-72168750D01*
X164893750Y-76068750D02*
X164893750Y-72168750D01*
%TO.C,D27*%
X161718750Y-76068750D02*
X163718750Y-76068750D01*
X162718750Y-73568750D02*
X162718750Y-73068750D01*
X163118750Y-73568750D02*
X162718750Y-74168750D01*
X162318750Y-73568750D02*
X163118750Y-73568750D01*
X162718750Y-74168750D02*
X162318750Y-73568750D01*
X162718750Y-74168750D02*
X163268750Y-74168750D01*
X162718750Y-74168750D02*
X162168750Y-74168750D01*
X162718750Y-74568750D02*
X162718750Y-74168750D01*
X163718750Y-76068750D02*
X163718750Y-72168750D01*
X161718750Y-76068750D02*
X161718750Y-72168750D01*
%TO.C,D26*%
X158543750Y-76068750D02*
X160543750Y-76068750D01*
X159543750Y-73568750D02*
X159543750Y-73068750D01*
X159943750Y-73568750D02*
X159543750Y-74168750D01*
X159143750Y-73568750D02*
X159943750Y-73568750D01*
X159543750Y-74168750D02*
X159143750Y-73568750D01*
X159543750Y-74168750D02*
X160093750Y-74168750D01*
X159543750Y-74168750D02*
X158993750Y-74168750D01*
X159543750Y-74568750D02*
X159543750Y-74168750D01*
X160543750Y-76068750D02*
X160543750Y-72168750D01*
X158543750Y-76068750D02*
X158543750Y-72168750D01*
%TO.C,D25*%
X155368750Y-76068750D02*
X157368750Y-76068750D01*
X156368750Y-73568750D02*
X156368750Y-73068750D01*
X156768750Y-73568750D02*
X156368750Y-74168750D01*
X155968750Y-73568750D02*
X156768750Y-73568750D01*
X156368750Y-74168750D02*
X155968750Y-73568750D01*
X156368750Y-74168750D02*
X156918750Y-74168750D01*
X156368750Y-74168750D02*
X155818750Y-74168750D01*
X156368750Y-74568750D02*
X156368750Y-74168750D01*
X157368750Y-76068750D02*
X157368750Y-72168750D01*
X155368750Y-76068750D02*
X155368750Y-72168750D01*
%TO.C,D24*%
X195056250Y-67337500D02*
X197056250Y-67337500D01*
X196056250Y-64837500D02*
X196056250Y-64337500D01*
X196456250Y-64837500D02*
X196056250Y-65437500D01*
X195656250Y-64837500D02*
X196456250Y-64837500D01*
X196056250Y-65437500D02*
X195656250Y-64837500D01*
X196056250Y-65437500D02*
X196606250Y-65437500D01*
X196056250Y-65437500D02*
X195506250Y-65437500D01*
X196056250Y-65837500D02*
X196056250Y-65437500D01*
X197056250Y-67337500D02*
X197056250Y-63437500D01*
X195056250Y-67337500D02*
X195056250Y-63437500D01*
%TO.C,D23*%
X191881250Y-67337500D02*
X193881250Y-67337500D01*
X192881250Y-64837500D02*
X192881250Y-64337500D01*
X193281250Y-64837500D02*
X192881250Y-65437500D01*
X192481250Y-64837500D02*
X193281250Y-64837500D01*
X192881250Y-65437500D02*
X192481250Y-64837500D01*
X192881250Y-65437500D02*
X193431250Y-65437500D01*
X192881250Y-65437500D02*
X192331250Y-65437500D01*
X192881250Y-65837500D02*
X192881250Y-65437500D01*
X193881250Y-67337500D02*
X193881250Y-63437500D01*
X191881250Y-67337500D02*
X191881250Y-63437500D01*
%TO.C,D22*%
X188706250Y-67400000D02*
X190706250Y-67400000D01*
X189706250Y-64900000D02*
X189706250Y-64400000D01*
X190106250Y-64900000D02*
X189706250Y-65500000D01*
X189306250Y-64900000D02*
X190106250Y-64900000D01*
X189706250Y-65500000D02*
X189306250Y-64900000D01*
X189706250Y-65500000D02*
X190256250Y-65500000D01*
X189706250Y-65500000D02*
X189156250Y-65500000D01*
X189706250Y-65900000D02*
X189706250Y-65500000D01*
X190706250Y-67400000D02*
X190706250Y-63500000D01*
X188706250Y-67400000D02*
X188706250Y-63500000D01*
%TO.C,D21*%
X185531250Y-67337500D02*
X187531250Y-67337500D01*
X186531250Y-64837500D02*
X186531250Y-64337500D01*
X186931250Y-64837500D02*
X186531250Y-65437500D01*
X186131250Y-64837500D02*
X186931250Y-64837500D01*
X186531250Y-65437500D02*
X186131250Y-64837500D01*
X186531250Y-65437500D02*
X187081250Y-65437500D01*
X186531250Y-65437500D02*
X185981250Y-65437500D01*
X186531250Y-65837500D02*
X186531250Y-65437500D01*
X187531250Y-67337500D02*
X187531250Y-63437500D01*
X185531250Y-67337500D02*
X185531250Y-63437500D01*
%TO.C,D20*%
X182356250Y-67337500D02*
X184356250Y-67337500D01*
X183356250Y-64837500D02*
X183356250Y-64337500D01*
X183756250Y-64837500D02*
X183356250Y-65437500D01*
X182956250Y-64837500D02*
X183756250Y-64837500D01*
X183356250Y-65437500D02*
X182956250Y-64837500D01*
X183356250Y-65437500D02*
X183906250Y-65437500D01*
X183356250Y-65437500D02*
X182806250Y-65437500D01*
X183356250Y-65837500D02*
X183356250Y-65437500D01*
X184356250Y-67337500D02*
X184356250Y-63437500D01*
X182356250Y-67337500D02*
X182356250Y-63437500D01*
%TO.C,D19*%
X179181250Y-67337500D02*
X181181250Y-67337500D01*
X180181250Y-64837500D02*
X180181250Y-64337500D01*
X180581250Y-64837500D02*
X180181250Y-65437500D01*
X179781250Y-64837500D02*
X180581250Y-64837500D01*
X180181250Y-65437500D02*
X179781250Y-64837500D01*
X180181250Y-65437500D02*
X180731250Y-65437500D01*
X180181250Y-65437500D02*
X179631250Y-65437500D01*
X180181250Y-65837500D02*
X180181250Y-65437500D01*
X181181250Y-67337500D02*
X181181250Y-63437500D01*
X179181250Y-67337500D02*
X179181250Y-63437500D01*
%TO.C,D18*%
X171243750Y-67337500D02*
X173243750Y-67337500D01*
X172243750Y-64837500D02*
X172243750Y-64337500D01*
X172643750Y-64837500D02*
X172243750Y-65437500D01*
X171843750Y-64837500D02*
X172643750Y-64837500D01*
X172243750Y-65437500D02*
X171843750Y-64837500D01*
X172243750Y-65437500D02*
X172793750Y-65437500D01*
X172243750Y-65437500D02*
X171693750Y-65437500D01*
X172243750Y-65837500D02*
X172243750Y-65437500D01*
X173243750Y-67337500D02*
X173243750Y-63437500D01*
X171243750Y-67337500D02*
X171243750Y-63437500D01*
%TO.C,D17*%
X168068750Y-67337500D02*
X170068750Y-67337500D01*
X169068750Y-64837500D02*
X169068750Y-64337500D01*
X169468750Y-64837500D02*
X169068750Y-65437500D01*
X168668750Y-64837500D02*
X169468750Y-64837500D01*
X169068750Y-65437500D02*
X168668750Y-64837500D01*
X169068750Y-65437500D02*
X169618750Y-65437500D01*
X169068750Y-65437500D02*
X168518750Y-65437500D01*
X169068750Y-65837500D02*
X169068750Y-65437500D01*
X170068750Y-67337500D02*
X170068750Y-63437500D01*
X168068750Y-67337500D02*
X168068750Y-63437500D01*
%TO.C,D16*%
X164893750Y-67337500D02*
X166893750Y-67337500D01*
X165893750Y-64837500D02*
X165893750Y-64337500D01*
X166293750Y-64837500D02*
X165893750Y-65437500D01*
X165493750Y-64837500D02*
X166293750Y-64837500D01*
X165893750Y-65437500D02*
X165493750Y-64837500D01*
X165893750Y-65437500D02*
X166443750Y-65437500D01*
X165893750Y-65437500D02*
X165343750Y-65437500D01*
X165893750Y-65837500D02*
X165893750Y-65437500D01*
X166893750Y-67337500D02*
X166893750Y-63437500D01*
X164893750Y-67337500D02*
X164893750Y-63437500D01*
%TO.C,D15*%
X161718750Y-67337500D02*
X163718750Y-67337500D01*
X162718750Y-64837500D02*
X162718750Y-64337500D01*
X163118750Y-64837500D02*
X162718750Y-65437500D01*
X162318750Y-64837500D02*
X163118750Y-64837500D01*
X162718750Y-65437500D02*
X162318750Y-64837500D01*
X162718750Y-65437500D02*
X163268750Y-65437500D01*
X162718750Y-65437500D02*
X162168750Y-65437500D01*
X162718750Y-65837500D02*
X162718750Y-65437500D01*
X163718750Y-67337500D02*
X163718750Y-63437500D01*
X161718750Y-67337500D02*
X161718750Y-63437500D01*
%TO.C,D14*%
X158543750Y-67337500D02*
X160543750Y-67337500D01*
X159543750Y-64837500D02*
X159543750Y-64337500D01*
X159943750Y-64837500D02*
X159543750Y-65437500D01*
X159143750Y-64837500D02*
X159943750Y-64837500D01*
X159543750Y-65437500D02*
X159143750Y-64837500D01*
X159543750Y-65437500D02*
X160093750Y-65437500D01*
X159543750Y-65437500D02*
X158993750Y-65437500D01*
X159543750Y-65837500D02*
X159543750Y-65437500D01*
X160543750Y-67337500D02*
X160543750Y-63437500D01*
X158543750Y-67337500D02*
X158543750Y-63437500D01*
%TO.C,D13*%
X155368750Y-67337500D02*
X157368750Y-67337500D01*
X156368750Y-64837500D02*
X156368750Y-64337500D01*
X156768750Y-64837500D02*
X156368750Y-65437500D01*
X155968750Y-64837500D02*
X156768750Y-64837500D01*
X156368750Y-65437500D02*
X155968750Y-64837500D01*
X156368750Y-65437500D02*
X156918750Y-65437500D01*
X156368750Y-65437500D02*
X155818750Y-65437500D01*
X156368750Y-65837500D02*
X156368750Y-65437500D01*
X157368750Y-67337500D02*
X157368750Y-63437500D01*
X155368750Y-67337500D02*
X155368750Y-63437500D01*
%TO.C,D12*%
X195056250Y-58606250D02*
X197056250Y-58606250D01*
X196056250Y-56106250D02*
X196056250Y-55606250D01*
X196456250Y-56106250D02*
X196056250Y-56706250D01*
X195656250Y-56106250D02*
X196456250Y-56106250D01*
X196056250Y-56706250D02*
X195656250Y-56106250D01*
X196056250Y-56706250D02*
X196606250Y-56706250D01*
X196056250Y-56706250D02*
X195506250Y-56706250D01*
X196056250Y-57106250D02*
X196056250Y-56706250D01*
X197056250Y-58606250D02*
X197056250Y-54706250D01*
X195056250Y-58606250D02*
X195056250Y-54706250D01*
%TO.C,D11*%
X191881250Y-58606250D02*
X193881250Y-58606250D01*
X192881250Y-56106250D02*
X192881250Y-55606250D01*
X193281250Y-56106250D02*
X192881250Y-56706250D01*
X192481250Y-56106250D02*
X193281250Y-56106250D01*
X192881250Y-56706250D02*
X192481250Y-56106250D01*
X192881250Y-56706250D02*
X193431250Y-56706250D01*
X192881250Y-56706250D02*
X192331250Y-56706250D01*
X192881250Y-57106250D02*
X192881250Y-56706250D01*
X193881250Y-58606250D02*
X193881250Y-54706250D01*
X191881250Y-58606250D02*
X191881250Y-54706250D01*
%TO.C,D10*%
X188706250Y-58606250D02*
X190706250Y-58606250D01*
X189706250Y-56106250D02*
X189706250Y-55606250D01*
X190106250Y-56106250D02*
X189706250Y-56706250D01*
X189306250Y-56106250D02*
X190106250Y-56106250D01*
X189706250Y-56706250D02*
X189306250Y-56106250D01*
X189706250Y-56706250D02*
X190256250Y-56706250D01*
X189706250Y-56706250D02*
X189156250Y-56706250D01*
X189706250Y-57106250D02*
X189706250Y-56706250D01*
X190706250Y-58606250D02*
X190706250Y-54706250D01*
X188706250Y-58606250D02*
X188706250Y-54706250D01*
%TO.C,D9*%
X185531250Y-58606250D02*
X187531250Y-58606250D01*
X186531250Y-56106250D02*
X186531250Y-55606250D01*
X186931250Y-56106250D02*
X186531250Y-56706250D01*
X186131250Y-56106250D02*
X186931250Y-56106250D01*
X186531250Y-56706250D02*
X186131250Y-56106250D01*
X186531250Y-56706250D02*
X187081250Y-56706250D01*
X186531250Y-56706250D02*
X185981250Y-56706250D01*
X186531250Y-57106250D02*
X186531250Y-56706250D01*
X187531250Y-58606250D02*
X187531250Y-54706250D01*
X185531250Y-58606250D02*
X185531250Y-54706250D01*
%TO.C,D8*%
X182356250Y-58606250D02*
X184356250Y-58606250D01*
X183356250Y-56106250D02*
X183356250Y-55606250D01*
X183756250Y-56106250D02*
X183356250Y-56706250D01*
X182956250Y-56106250D02*
X183756250Y-56106250D01*
X183356250Y-56706250D02*
X182956250Y-56106250D01*
X183356250Y-56706250D02*
X183906250Y-56706250D01*
X183356250Y-56706250D02*
X182806250Y-56706250D01*
X183356250Y-57106250D02*
X183356250Y-56706250D01*
X184356250Y-58606250D02*
X184356250Y-54706250D01*
X182356250Y-58606250D02*
X182356250Y-54706250D01*
%TO.C,D7*%
X179181250Y-58606250D02*
X181181250Y-58606250D01*
X180181250Y-56106250D02*
X180181250Y-55606250D01*
X180581250Y-56106250D02*
X180181250Y-56706250D01*
X179781250Y-56106250D02*
X180581250Y-56106250D01*
X180181250Y-56706250D02*
X179781250Y-56106250D01*
X180181250Y-56706250D02*
X180731250Y-56706250D01*
X180181250Y-56706250D02*
X179631250Y-56706250D01*
X180181250Y-57106250D02*
X180181250Y-56706250D01*
X181181250Y-58606250D02*
X181181250Y-54706250D01*
X179181250Y-58606250D02*
X179181250Y-54706250D01*
%TO.C,D6*%
X171243750Y-58606250D02*
X173243750Y-58606250D01*
X172243750Y-56106250D02*
X172243750Y-55606250D01*
X172643750Y-56106250D02*
X172243750Y-56706250D01*
X171843750Y-56106250D02*
X172643750Y-56106250D01*
X172243750Y-56706250D02*
X171843750Y-56106250D01*
X172243750Y-56706250D02*
X172793750Y-56706250D01*
X172243750Y-56706250D02*
X171693750Y-56706250D01*
X172243750Y-57106250D02*
X172243750Y-56706250D01*
X173243750Y-58606250D02*
X173243750Y-54706250D01*
X171243750Y-58606250D02*
X171243750Y-54706250D01*
%TO.C,D5*%
X168068750Y-58606250D02*
X170068750Y-58606250D01*
X169068750Y-56106250D02*
X169068750Y-55606250D01*
X169468750Y-56106250D02*
X169068750Y-56706250D01*
X168668750Y-56106250D02*
X169468750Y-56106250D01*
X169068750Y-56706250D02*
X168668750Y-56106250D01*
X169068750Y-56706250D02*
X169618750Y-56706250D01*
X169068750Y-56706250D02*
X168518750Y-56706250D01*
X169068750Y-57106250D02*
X169068750Y-56706250D01*
X170068750Y-58606250D02*
X170068750Y-54706250D01*
X168068750Y-58606250D02*
X168068750Y-54706250D01*
%TO.C,D4*%
X164893750Y-58606250D02*
X166893750Y-58606250D01*
X165893750Y-56106250D02*
X165893750Y-55606250D01*
X166293750Y-56106250D02*
X165893750Y-56706250D01*
X165493750Y-56106250D02*
X166293750Y-56106250D01*
X165893750Y-56706250D02*
X165493750Y-56106250D01*
X165893750Y-56706250D02*
X166443750Y-56706250D01*
X165893750Y-56706250D02*
X165343750Y-56706250D01*
X165893750Y-57106250D02*
X165893750Y-56706250D01*
X166893750Y-58606250D02*
X166893750Y-54706250D01*
X164893750Y-58606250D02*
X164893750Y-54706250D01*
%TO.C,D3*%
X161718750Y-58606250D02*
X163718750Y-58606250D01*
X162718750Y-56106250D02*
X162718750Y-55606250D01*
X163118750Y-56106250D02*
X162718750Y-56706250D01*
X162318750Y-56106250D02*
X163118750Y-56106250D01*
X162718750Y-56706250D02*
X162318750Y-56106250D01*
X162718750Y-56706250D02*
X163268750Y-56706250D01*
X162718750Y-56706250D02*
X162168750Y-56706250D01*
X162718750Y-57106250D02*
X162718750Y-56706250D01*
X163718750Y-58606250D02*
X163718750Y-54706250D01*
X161718750Y-58606250D02*
X161718750Y-54706250D01*
%TO.C,D2*%
X158543750Y-58606250D02*
X160543750Y-58606250D01*
X159543750Y-56106250D02*
X159543750Y-55606250D01*
X159943750Y-56106250D02*
X159543750Y-56706250D01*
X159143750Y-56106250D02*
X159943750Y-56106250D01*
X159543750Y-56706250D02*
X159143750Y-56106250D01*
X159543750Y-56706250D02*
X160093750Y-56706250D01*
X159543750Y-56706250D02*
X158993750Y-56706250D01*
X159543750Y-57106250D02*
X159543750Y-56706250D01*
X160543750Y-58606250D02*
X160543750Y-54706250D01*
X158543750Y-58606250D02*
X158543750Y-54706250D01*
%TO.C,D1*%
X155368750Y-58606250D02*
X157368750Y-58606250D01*
X156368750Y-56106250D02*
X156368750Y-55606250D01*
X156768750Y-56106250D02*
X156368750Y-56706250D01*
X155968750Y-56106250D02*
X156768750Y-56106250D01*
X156368750Y-56706250D02*
X155968750Y-56106250D01*
X156368750Y-56706250D02*
X156918750Y-56706250D01*
X156368750Y-56706250D02*
X155818750Y-56706250D01*
X156368750Y-57106250D02*
X156368750Y-56706250D01*
X157368750Y-58606250D02*
X157368750Y-54706250D01*
X155368750Y-58606250D02*
X155368750Y-54706250D01*
%TO.C,C5*%
X184747500Y-32098922D02*
X184747500Y-32616078D01*
X183327500Y-32098922D02*
X183327500Y-32616078D01*
%TO.C,C4*%
X167586078Y-37167500D02*
X167068922Y-37167500D01*
X167586078Y-35747500D02*
X167068922Y-35747500D01*
%TO.C,C3*%
X172496078Y-49717500D02*
X171978922Y-49717500D01*
X172496078Y-48297500D02*
X171978922Y-48297500D01*
%TO.C,C2*%
X184047500Y-44086078D02*
X184047500Y-43568922D01*
X185467500Y-44086078D02*
X185467500Y-43568922D01*
%TO.C,C1*%
X175496078Y-31117500D02*
X174978922Y-31117500D01*
X175496078Y-29697500D02*
X174978922Y-29697500D01*
%TO.C,U1*%
X170234642Y-47504166D02*
X170710833Y-47504166D01*
X170139404Y-47789880D02*
X170472738Y-46789880D01*
X170806071Y-47789880D01*
X170996547Y-46789880D02*
X171567976Y-46789880D01*
X171282261Y-47789880D02*
X171282261Y-46789880D01*
X171901309Y-47789880D02*
X171901309Y-47123214D01*
X171901309Y-47218452D02*
X171948928Y-47170833D01*
X172044166Y-47123214D01*
X172187023Y-47123214D01*
X172282261Y-47170833D01*
X172329880Y-47266071D01*
X172329880Y-47789880D01*
X172329880Y-47266071D02*
X172377500Y-47170833D01*
X172472738Y-47123214D01*
X172615595Y-47123214D01*
X172710833Y-47170833D01*
X172758452Y-47266071D01*
X172758452Y-47789880D01*
X173615595Y-47742261D02*
X173520357Y-47789880D01*
X173329880Y-47789880D01*
X173234642Y-47742261D01*
X173187023Y-47647023D01*
X173187023Y-47266071D01*
X173234642Y-47170833D01*
X173329880Y-47123214D01*
X173520357Y-47123214D01*
X173615595Y-47170833D01*
X173663214Y-47266071D01*
X173663214Y-47361309D01*
X173187023Y-47456547D01*
X174520357Y-47123214D02*
X174520357Y-47932738D01*
X174472738Y-48027976D01*
X174425119Y-48075595D01*
X174329880Y-48123214D01*
X174187023Y-48123214D01*
X174091785Y-48075595D01*
X174520357Y-47742261D02*
X174425119Y-47789880D01*
X174234642Y-47789880D01*
X174139404Y-47742261D01*
X174091785Y-47694642D01*
X174044166Y-47599404D01*
X174044166Y-47313690D01*
X174091785Y-47218452D01*
X174139404Y-47170833D01*
X174234642Y-47123214D01*
X174425119Y-47123214D01*
X174520357Y-47170833D01*
X175425119Y-47789880D02*
X175425119Y-47266071D01*
X175377500Y-47170833D01*
X175282261Y-47123214D01*
X175091785Y-47123214D01*
X174996547Y-47170833D01*
X175425119Y-47742261D02*
X175329880Y-47789880D01*
X175091785Y-47789880D01*
X174996547Y-47742261D01*
X174948928Y-47647023D01*
X174948928Y-47551785D01*
X174996547Y-47456547D01*
X175091785Y-47408928D01*
X175329880Y-47408928D01*
X175425119Y-47361309D01*
X175806071Y-46789880D02*
X176425119Y-46789880D01*
X176091785Y-47170833D01*
X176234642Y-47170833D01*
X176329880Y-47218452D01*
X176377500Y-47266071D01*
X176425119Y-47361309D01*
X176425119Y-47599404D01*
X176377500Y-47694642D01*
X176329880Y-47742261D01*
X176234642Y-47789880D01*
X175948928Y-47789880D01*
X175853690Y-47742261D01*
X175806071Y-47694642D01*
X176806071Y-46885119D02*
X176853690Y-46837500D01*
X176948928Y-46789880D01*
X177187023Y-46789880D01*
X177282261Y-46837500D01*
X177329880Y-46885119D01*
X177377500Y-46980357D01*
X177377500Y-47075595D01*
X177329880Y-47218452D01*
X176758452Y-47789880D01*
X177377500Y-47789880D01*
X177806071Y-46789880D02*
X177806071Y-47599404D01*
X177853690Y-47694642D01*
X177901309Y-47742261D01*
X177996547Y-47789880D01*
X178187023Y-47789880D01*
X178282261Y-47742261D01*
X178329880Y-47694642D01*
X178377500Y-47599404D01*
X178377500Y-46789880D01*
X179282261Y-47123214D02*
X179282261Y-47789880D01*
X179044166Y-46742261D02*
X178806071Y-47456547D01*
X179425119Y-47456547D01*
X179806071Y-47408928D02*
X180567976Y-47408928D01*
X180996547Y-47504166D02*
X181472738Y-47504166D01*
X180901309Y-47789880D02*
X181234642Y-46789880D01*
X181567976Y-47789880D01*
X181901309Y-46789880D02*
X181901309Y-47599404D01*
X181948928Y-47694642D01*
X181996547Y-47742261D01*
X182091785Y-47789880D01*
X182282261Y-47789880D01*
X182377500Y-47742261D01*
X182425119Y-47694642D01*
X182472738Y-47599404D01*
X182472738Y-46789880D01*
%TO.C,SW1*%
X160055654Y-29122630D02*
X159722321Y-28646440D01*
X159484226Y-29122630D02*
X159484226Y-28122630D01*
X159865178Y-28122630D01*
X159960416Y-28170250D01*
X160008035Y-28217869D01*
X160055654Y-28313107D01*
X160055654Y-28455964D01*
X160008035Y-28551202D01*
X159960416Y-28598821D01*
X159865178Y-28646440D01*
X159484226Y-28646440D01*
X160865178Y-29075011D02*
X160769940Y-29122630D01*
X160579464Y-29122630D01*
X160484226Y-29075011D01*
X160436607Y-28979773D01*
X160436607Y-28598821D01*
X160484226Y-28503583D01*
X160579464Y-28455964D01*
X160769940Y-28455964D01*
X160865178Y-28503583D01*
X160912797Y-28598821D01*
X160912797Y-28694059D01*
X160436607Y-28789297D01*
X161293750Y-29075011D02*
X161388988Y-29122630D01*
X161579464Y-29122630D01*
X161674702Y-29075011D01*
X161722321Y-28979773D01*
X161722321Y-28932154D01*
X161674702Y-28836916D01*
X161579464Y-28789297D01*
X161436607Y-28789297D01*
X161341369Y-28741678D01*
X161293750Y-28646440D01*
X161293750Y-28598821D01*
X161341369Y-28503583D01*
X161436607Y-28455964D01*
X161579464Y-28455964D01*
X161674702Y-28503583D01*
X162531845Y-29075011D02*
X162436607Y-29122630D01*
X162246130Y-29122630D01*
X162150892Y-29075011D01*
X162103273Y-28979773D01*
X162103273Y-28598821D01*
X162150892Y-28503583D01*
X162246130Y-28455964D01*
X162436607Y-28455964D01*
X162531845Y-28503583D01*
X162579464Y-28598821D01*
X162579464Y-28694059D01*
X162103273Y-28789297D01*
X162865178Y-28455964D02*
X163246130Y-28455964D01*
X163008035Y-28122630D02*
X163008035Y-28979773D01*
X163055654Y-29075011D01*
X163150892Y-29122630D01*
X163246130Y-29122630D01*
%TO.C,R6*%
X180712261Y-51179880D02*
X180140833Y-51179880D01*
X180426547Y-51179880D02*
X180426547Y-50179880D01*
X180331309Y-50322738D01*
X180236071Y-50417976D01*
X180140833Y-50465595D01*
X181331309Y-50179880D02*
X181426547Y-50179880D01*
X181521785Y-50227500D01*
X181569404Y-50275119D01*
X181617023Y-50370357D01*
X181664642Y-50560833D01*
X181664642Y-50798928D01*
X181617023Y-50989404D01*
X181569404Y-51084642D01*
X181521785Y-51132261D01*
X181426547Y-51179880D01*
X181331309Y-51179880D01*
X181236071Y-51132261D01*
X181188452Y-51084642D01*
X181140833Y-50989404D01*
X181093214Y-50798928D01*
X181093214Y-50560833D01*
X181140833Y-50370357D01*
X181188452Y-50275119D01*
X181236071Y-50227500D01*
X181331309Y-50179880D01*
X182093214Y-51179880D02*
X182093214Y-50179880D01*
X182188452Y-50798928D02*
X182474166Y-51179880D01*
X182474166Y-50513214D02*
X182093214Y-50894166D01*
%TO.C,R5*%
X177843869Y-24574404D02*
X177796250Y-24526785D01*
X177748630Y-24431547D01*
X177748630Y-24193452D01*
X177796250Y-24098214D01*
X177843869Y-24050595D01*
X177939107Y-24002976D01*
X178034345Y-24002976D01*
X178177202Y-24050595D01*
X178748630Y-24622023D01*
X178748630Y-24002976D01*
X177843869Y-23622023D02*
X177796250Y-23574404D01*
X177748630Y-23479166D01*
X177748630Y-23241071D01*
X177796250Y-23145833D01*
X177843869Y-23098214D01*
X177939107Y-23050595D01*
X178034345Y-23050595D01*
X178177202Y-23098214D01*
X178748630Y-23669642D01*
X178748630Y-23050595D01*
%TO.C,R4*%
X172308869Y-24574404D02*
X172261250Y-24526785D01*
X172213630Y-24431547D01*
X172213630Y-24193452D01*
X172261250Y-24098214D01*
X172308869Y-24050595D01*
X172404107Y-24002976D01*
X172499345Y-24002976D01*
X172642202Y-24050595D01*
X173213630Y-24622023D01*
X173213630Y-24002976D01*
X172308869Y-23622023D02*
X172261250Y-23574404D01*
X172213630Y-23479166D01*
X172213630Y-23241071D01*
X172261250Y-23145833D01*
X172308869Y-23098214D01*
X172404107Y-23050595D01*
X172499345Y-23050595D01*
X172642202Y-23098214D01*
X173213630Y-23669642D01*
X173213630Y-23050595D01*
%TO.C,R3*%
X168244047Y-19514880D02*
X167767857Y-19514880D01*
X167720238Y-19991071D01*
X167767857Y-19943452D01*
X167863095Y-19895833D01*
X168101190Y-19895833D01*
X168196428Y-19943452D01*
X168244047Y-19991071D01*
X168291666Y-20086309D01*
X168291666Y-20324404D01*
X168244047Y-20419642D01*
X168196428Y-20467261D01*
X168101190Y-20514880D01*
X167863095Y-20514880D01*
X167767857Y-20467261D01*
X167720238Y-20419642D01*
X168720238Y-20419642D02*
X168767857Y-20467261D01*
X168720238Y-20514880D01*
X168672619Y-20467261D01*
X168720238Y-20419642D01*
X168720238Y-20514880D01*
X169720238Y-20514880D02*
X169148809Y-20514880D01*
X169434523Y-20514880D02*
X169434523Y-19514880D01*
X169339285Y-19657738D01*
X169244047Y-19752976D01*
X169148809Y-19800595D01*
X170148809Y-20514880D02*
X170148809Y-19514880D01*
X170244047Y-20133928D02*
X170529761Y-20514880D01*
X170529761Y-19848214D02*
X170148809Y-20229166D01*
%TO.C,R2*%
X181275297Y-19527380D02*
X180799107Y-19527380D01*
X180751488Y-20003571D01*
X180799107Y-19955952D01*
X180894345Y-19908333D01*
X181132440Y-19908333D01*
X181227678Y-19955952D01*
X181275297Y-20003571D01*
X181322916Y-20098809D01*
X181322916Y-20336904D01*
X181275297Y-20432142D01*
X181227678Y-20479761D01*
X181132440Y-20527380D01*
X180894345Y-20527380D01*
X180799107Y-20479761D01*
X180751488Y-20432142D01*
X181751488Y-20432142D02*
X181799107Y-20479761D01*
X181751488Y-20527380D01*
X181703869Y-20479761D01*
X181751488Y-20432142D01*
X181751488Y-20527380D01*
X182751488Y-20527380D02*
X182180059Y-20527380D01*
X182465773Y-20527380D02*
X182465773Y-19527380D01*
X182370535Y-19670238D01*
X182275297Y-19765476D01*
X182180059Y-19813095D01*
X183180059Y-20527380D02*
X183180059Y-19527380D01*
X183275297Y-20146428D02*
X183561011Y-20527380D01*
X183561011Y-19860714D02*
X183180059Y-20241666D01*
%TO.C,R1*%
X163662261Y-34789880D02*
X163090833Y-34789880D01*
X163376547Y-34789880D02*
X163376547Y-33789880D01*
X163281309Y-33932738D01*
X163186071Y-34027976D01*
X163090833Y-34075595D01*
X164281309Y-33789880D02*
X164376547Y-33789880D01*
X164471785Y-33837500D01*
X164519404Y-33885119D01*
X164567023Y-33980357D01*
X164614642Y-34170833D01*
X164614642Y-34408928D01*
X164567023Y-34599404D01*
X164519404Y-34694642D01*
X164471785Y-34742261D01*
X164376547Y-34789880D01*
X164281309Y-34789880D01*
X164186071Y-34742261D01*
X164138452Y-34694642D01*
X164090833Y-34599404D01*
X164043214Y-34408928D01*
X164043214Y-34170833D01*
X164090833Y-33980357D01*
X164138452Y-33885119D01*
X164186071Y-33837500D01*
X164281309Y-33789880D01*
X165043214Y-34789880D02*
X165043214Y-33789880D01*
X165138452Y-34408928D02*
X165424166Y-34789880D01*
X165424166Y-34123214D02*
X165043214Y-34504166D01*
%TO.C,F1*%
X168544880Y-25634523D02*
X168544880Y-26110714D01*
X169021071Y-26158333D01*
X168973452Y-26110714D01*
X168925833Y-26015476D01*
X168925833Y-25777380D01*
X168973452Y-25682142D01*
X169021071Y-25634523D01*
X169116309Y-25586904D01*
X169354404Y-25586904D01*
X169449642Y-25634523D01*
X169497261Y-25682142D01*
X169544880Y-25777380D01*
X169544880Y-26015476D01*
X169497261Y-26110714D01*
X169449642Y-26158333D01*
X168544880Y-24967857D02*
X168544880Y-24872619D01*
X168592500Y-24777380D01*
X168640119Y-24729761D01*
X168735357Y-24682142D01*
X168925833Y-24634523D01*
X169163928Y-24634523D01*
X169354404Y-24682142D01*
X169449642Y-24729761D01*
X169497261Y-24777380D01*
X169544880Y-24872619D01*
X169544880Y-24967857D01*
X169497261Y-25063095D01*
X169449642Y-25110714D01*
X169354404Y-25158333D01*
X169163928Y-25205952D01*
X168925833Y-25205952D01*
X168735357Y-25158333D01*
X168640119Y-25110714D01*
X168592500Y-25063095D01*
X168544880Y-24967857D01*
X168544880Y-24015476D02*
X168544880Y-23920238D01*
X168592500Y-23825000D01*
X168640119Y-23777380D01*
X168735357Y-23729761D01*
X168925833Y-23682142D01*
X169163928Y-23682142D01*
X169354404Y-23729761D01*
X169449642Y-23777380D01*
X169497261Y-23825000D01*
X169544880Y-23920238D01*
X169544880Y-24015476D01*
X169497261Y-24110714D01*
X169449642Y-24158333D01*
X169354404Y-24205952D01*
X169163928Y-24253571D01*
X168925833Y-24253571D01*
X168735357Y-24205952D01*
X168640119Y-24158333D01*
X168592500Y-24110714D01*
X168544880Y-24015476D01*
X169544880Y-23253571D02*
X168878214Y-23253571D01*
X168973452Y-23253571D02*
X168925833Y-23205952D01*
X168878214Y-23110714D01*
X168878214Y-22967857D01*
X168925833Y-22872619D01*
X169021071Y-22825000D01*
X169544880Y-22825000D01*
X169021071Y-22825000D02*
X168925833Y-22777380D01*
X168878214Y-22682142D01*
X168878214Y-22539285D01*
X168925833Y-22444047D01*
X169021071Y-22396428D01*
X169544880Y-22396428D01*
X169259166Y-21967857D02*
X169259166Y-21491666D01*
X169544880Y-22063095D02*
X168544880Y-21729761D01*
X169544880Y-21396428D01*
%TO.C,D44*%
X190158630Y-88264285D02*
X189158630Y-88264285D01*
X189158630Y-88026190D01*
X189206250Y-87883333D01*
X189301488Y-87788095D01*
X189396726Y-87740476D01*
X189587202Y-87692857D01*
X189730059Y-87692857D01*
X189920535Y-87740476D01*
X190015773Y-87788095D01*
X190111011Y-87883333D01*
X190158630Y-88026190D01*
X190158630Y-88264285D01*
X189491964Y-86835714D02*
X190158630Y-86835714D01*
X189111011Y-87073809D02*
X189825297Y-87311904D01*
X189825297Y-86692857D01*
X189491964Y-85883333D02*
X190158630Y-85883333D01*
X189111011Y-86121428D02*
X189825297Y-86359523D01*
X189825297Y-85740476D01*
%TO.C,D43*%
X186983630Y-88264285D02*
X185983630Y-88264285D01*
X185983630Y-88026190D01*
X186031250Y-87883333D01*
X186126488Y-87788095D01*
X186221726Y-87740476D01*
X186412202Y-87692857D01*
X186555059Y-87692857D01*
X186745535Y-87740476D01*
X186840773Y-87788095D01*
X186936011Y-87883333D01*
X186983630Y-88026190D01*
X186983630Y-88264285D01*
X186316964Y-86835714D02*
X186983630Y-86835714D01*
X185936011Y-87073809D02*
X186650297Y-87311904D01*
X186650297Y-86692857D01*
X185983630Y-86407142D02*
X185983630Y-85788095D01*
X186364583Y-86121428D01*
X186364583Y-85978571D01*
X186412202Y-85883333D01*
X186459821Y-85835714D01*
X186555059Y-85788095D01*
X186793154Y-85788095D01*
X186888392Y-85835714D01*
X186936011Y-85883333D01*
X186983630Y-85978571D01*
X186983630Y-86264285D01*
X186936011Y-86359523D01*
X186888392Y-86407142D01*
%TO.C,D41*%
X180633630Y-88264285D02*
X179633630Y-88264285D01*
X179633630Y-88026190D01*
X179681250Y-87883333D01*
X179776488Y-87788095D01*
X179871726Y-87740476D01*
X180062202Y-87692857D01*
X180205059Y-87692857D01*
X180395535Y-87740476D01*
X180490773Y-87788095D01*
X180586011Y-87883333D01*
X180633630Y-88026190D01*
X180633630Y-88264285D01*
X179966964Y-86835714D02*
X180633630Y-86835714D01*
X179586011Y-87073809D02*
X180300297Y-87311904D01*
X180300297Y-86692857D01*
X180633630Y-85788095D02*
X180633630Y-86359523D01*
X180633630Y-86073809D02*
X179633630Y-86073809D01*
X179776488Y-86169047D01*
X179871726Y-86264285D01*
X179919345Y-86359523D01*
%TO.C,D42*%
X183808630Y-88264285D02*
X182808630Y-88264285D01*
X182808630Y-88026190D01*
X182856250Y-87883333D01*
X182951488Y-87788095D01*
X183046726Y-87740476D01*
X183237202Y-87692857D01*
X183380059Y-87692857D01*
X183570535Y-87740476D01*
X183665773Y-87788095D01*
X183761011Y-87883333D01*
X183808630Y-88026190D01*
X183808630Y-88264285D01*
X183141964Y-86835714D02*
X183808630Y-86835714D01*
X182761011Y-87073809D02*
X183475297Y-87311904D01*
X183475297Y-86692857D01*
X182903869Y-86359523D02*
X182856250Y-86311904D01*
X182808630Y-86216666D01*
X182808630Y-85978571D01*
X182856250Y-85883333D01*
X182903869Y-85835714D01*
X182999107Y-85788095D01*
X183094345Y-85788095D01*
X183237202Y-85835714D01*
X183808630Y-86407142D01*
X183808630Y-85788095D01*
%TO.C,D40*%
X172696130Y-88264285D02*
X171696130Y-88264285D01*
X171696130Y-88026190D01*
X171743750Y-87883333D01*
X171838988Y-87788095D01*
X171934226Y-87740476D01*
X172124702Y-87692857D01*
X172267559Y-87692857D01*
X172458035Y-87740476D01*
X172553273Y-87788095D01*
X172648511Y-87883333D01*
X172696130Y-88026190D01*
X172696130Y-88264285D01*
X172029464Y-86835714D02*
X172696130Y-86835714D01*
X171648511Y-87073809D02*
X172362797Y-87311904D01*
X172362797Y-86692857D01*
X171696130Y-86121428D02*
X171696130Y-86026190D01*
X171743750Y-85930952D01*
X171791369Y-85883333D01*
X171886607Y-85835714D01*
X172077083Y-85788095D01*
X172315178Y-85788095D01*
X172505654Y-85835714D01*
X172600892Y-85883333D01*
X172648511Y-85930952D01*
X172696130Y-86026190D01*
X172696130Y-86121428D01*
X172648511Y-86216666D01*
X172600892Y-86264285D01*
X172505654Y-86311904D01*
X172315178Y-86359523D01*
X172077083Y-86359523D01*
X171886607Y-86311904D01*
X171791369Y-86264285D01*
X171743750Y-86216666D01*
X171696130Y-86121428D01*
%TO.C,D39*%
X169521130Y-88264285D02*
X168521130Y-88264285D01*
X168521130Y-88026190D01*
X168568750Y-87883333D01*
X168663988Y-87788095D01*
X168759226Y-87740476D01*
X168949702Y-87692857D01*
X169092559Y-87692857D01*
X169283035Y-87740476D01*
X169378273Y-87788095D01*
X169473511Y-87883333D01*
X169521130Y-88026190D01*
X169521130Y-88264285D01*
X168521130Y-87359523D02*
X168521130Y-86740476D01*
X168902083Y-87073809D01*
X168902083Y-86930952D01*
X168949702Y-86835714D01*
X168997321Y-86788095D01*
X169092559Y-86740476D01*
X169330654Y-86740476D01*
X169425892Y-86788095D01*
X169473511Y-86835714D01*
X169521130Y-86930952D01*
X169521130Y-87216666D01*
X169473511Y-87311904D01*
X169425892Y-87359523D01*
X169521130Y-86264285D02*
X169521130Y-86073809D01*
X169473511Y-85978571D01*
X169425892Y-85930952D01*
X169283035Y-85835714D01*
X169092559Y-85788095D01*
X168711607Y-85788095D01*
X168616369Y-85835714D01*
X168568750Y-85883333D01*
X168521130Y-85978571D01*
X168521130Y-86169047D01*
X168568750Y-86264285D01*
X168616369Y-86311904D01*
X168711607Y-86359523D01*
X168949702Y-86359523D01*
X169044940Y-86311904D01*
X169092559Y-86264285D01*
X169140178Y-86169047D01*
X169140178Y-85978571D01*
X169092559Y-85883333D01*
X169044940Y-85835714D01*
X168949702Y-85788095D01*
%TO.C,D38*%
X166346130Y-88264285D02*
X165346130Y-88264285D01*
X165346130Y-88026190D01*
X165393750Y-87883333D01*
X165488988Y-87788095D01*
X165584226Y-87740476D01*
X165774702Y-87692857D01*
X165917559Y-87692857D01*
X166108035Y-87740476D01*
X166203273Y-87788095D01*
X166298511Y-87883333D01*
X166346130Y-88026190D01*
X166346130Y-88264285D01*
X165346130Y-87359523D02*
X165346130Y-86740476D01*
X165727083Y-87073809D01*
X165727083Y-86930952D01*
X165774702Y-86835714D01*
X165822321Y-86788095D01*
X165917559Y-86740476D01*
X166155654Y-86740476D01*
X166250892Y-86788095D01*
X166298511Y-86835714D01*
X166346130Y-86930952D01*
X166346130Y-87216666D01*
X166298511Y-87311904D01*
X166250892Y-87359523D01*
X165774702Y-86169047D02*
X165727083Y-86264285D01*
X165679464Y-86311904D01*
X165584226Y-86359523D01*
X165536607Y-86359523D01*
X165441369Y-86311904D01*
X165393750Y-86264285D01*
X165346130Y-86169047D01*
X165346130Y-85978571D01*
X165393750Y-85883333D01*
X165441369Y-85835714D01*
X165536607Y-85788095D01*
X165584226Y-85788095D01*
X165679464Y-85835714D01*
X165727083Y-85883333D01*
X165774702Y-85978571D01*
X165774702Y-86169047D01*
X165822321Y-86264285D01*
X165869940Y-86311904D01*
X165965178Y-86359523D01*
X166155654Y-86359523D01*
X166250892Y-86311904D01*
X166298511Y-86264285D01*
X166346130Y-86169047D01*
X166346130Y-85978571D01*
X166298511Y-85883333D01*
X166250892Y-85835714D01*
X166155654Y-85788095D01*
X165965178Y-85788095D01*
X165869940Y-85835714D01*
X165822321Y-85883333D01*
X165774702Y-85978571D01*
%TO.C,D37*%
X163171130Y-88264285D02*
X162171130Y-88264285D01*
X162171130Y-88026190D01*
X162218750Y-87883333D01*
X162313988Y-87788095D01*
X162409226Y-87740476D01*
X162599702Y-87692857D01*
X162742559Y-87692857D01*
X162933035Y-87740476D01*
X163028273Y-87788095D01*
X163123511Y-87883333D01*
X163171130Y-88026190D01*
X163171130Y-88264285D01*
X162171130Y-87359523D02*
X162171130Y-86740476D01*
X162552083Y-87073809D01*
X162552083Y-86930952D01*
X162599702Y-86835714D01*
X162647321Y-86788095D01*
X162742559Y-86740476D01*
X162980654Y-86740476D01*
X163075892Y-86788095D01*
X163123511Y-86835714D01*
X163171130Y-86930952D01*
X163171130Y-87216666D01*
X163123511Y-87311904D01*
X163075892Y-87359523D01*
X162171130Y-86407142D02*
X162171130Y-85740476D01*
X163171130Y-86169047D01*
%TO.C,D36*%
X196508630Y-79533035D02*
X195508630Y-79533035D01*
X195508630Y-79294940D01*
X195556250Y-79152083D01*
X195651488Y-79056845D01*
X195746726Y-79009226D01*
X195937202Y-78961607D01*
X196080059Y-78961607D01*
X196270535Y-79009226D01*
X196365773Y-79056845D01*
X196461011Y-79152083D01*
X196508630Y-79294940D01*
X196508630Y-79533035D01*
X195508630Y-78628273D02*
X195508630Y-78009226D01*
X195889583Y-78342559D01*
X195889583Y-78199702D01*
X195937202Y-78104464D01*
X195984821Y-78056845D01*
X196080059Y-78009226D01*
X196318154Y-78009226D01*
X196413392Y-78056845D01*
X196461011Y-78104464D01*
X196508630Y-78199702D01*
X196508630Y-78485416D01*
X196461011Y-78580654D01*
X196413392Y-78628273D01*
X195508630Y-77152083D02*
X195508630Y-77342559D01*
X195556250Y-77437797D01*
X195603869Y-77485416D01*
X195746726Y-77580654D01*
X195937202Y-77628273D01*
X196318154Y-77628273D01*
X196413392Y-77580654D01*
X196461011Y-77533035D01*
X196508630Y-77437797D01*
X196508630Y-77247321D01*
X196461011Y-77152083D01*
X196413392Y-77104464D01*
X196318154Y-77056845D01*
X196080059Y-77056845D01*
X195984821Y-77104464D01*
X195937202Y-77152083D01*
X195889583Y-77247321D01*
X195889583Y-77437797D01*
X195937202Y-77533035D01*
X195984821Y-77580654D01*
X196080059Y-77628273D01*
%TO.C,D35*%
X193333630Y-79533035D02*
X192333630Y-79533035D01*
X192333630Y-79294940D01*
X192381250Y-79152083D01*
X192476488Y-79056845D01*
X192571726Y-79009226D01*
X192762202Y-78961607D01*
X192905059Y-78961607D01*
X193095535Y-79009226D01*
X193190773Y-79056845D01*
X193286011Y-79152083D01*
X193333630Y-79294940D01*
X193333630Y-79533035D01*
X192333630Y-78628273D02*
X192333630Y-78009226D01*
X192714583Y-78342559D01*
X192714583Y-78199702D01*
X192762202Y-78104464D01*
X192809821Y-78056845D01*
X192905059Y-78009226D01*
X193143154Y-78009226D01*
X193238392Y-78056845D01*
X193286011Y-78104464D01*
X193333630Y-78199702D01*
X193333630Y-78485416D01*
X193286011Y-78580654D01*
X193238392Y-78628273D01*
X192333630Y-77104464D02*
X192333630Y-77580654D01*
X192809821Y-77628273D01*
X192762202Y-77580654D01*
X192714583Y-77485416D01*
X192714583Y-77247321D01*
X192762202Y-77152083D01*
X192809821Y-77104464D01*
X192905059Y-77056845D01*
X193143154Y-77056845D01*
X193238392Y-77104464D01*
X193286011Y-77152083D01*
X193333630Y-77247321D01*
X193333630Y-77485416D01*
X193286011Y-77580654D01*
X193238392Y-77628273D01*
%TO.C,D34*%
X190158630Y-79533035D02*
X189158630Y-79533035D01*
X189158630Y-79294940D01*
X189206250Y-79152083D01*
X189301488Y-79056845D01*
X189396726Y-79009226D01*
X189587202Y-78961607D01*
X189730059Y-78961607D01*
X189920535Y-79009226D01*
X190015773Y-79056845D01*
X190111011Y-79152083D01*
X190158630Y-79294940D01*
X190158630Y-79533035D01*
X189158630Y-78628273D02*
X189158630Y-78009226D01*
X189539583Y-78342559D01*
X189539583Y-78199702D01*
X189587202Y-78104464D01*
X189634821Y-78056845D01*
X189730059Y-78009226D01*
X189968154Y-78009226D01*
X190063392Y-78056845D01*
X190111011Y-78104464D01*
X190158630Y-78199702D01*
X190158630Y-78485416D01*
X190111011Y-78580654D01*
X190063392Y-78628273D01*
X189491964Y-77152083D02*
X190158630Y-77152083D01*
X189111011Y-77390178D02*
X189825297Y-77628273D01*
X189825297Y-77009226D01*
%TO.C,D33*%
X186983630Y-79533035D02*
X185983630Y-79533035D01*
X185983630Y-79294940D01*
X186031250Y-79152083D01*
X186126488Y-79056845D01*
X186221726Y-79009226D01*
X186412202Y-78961607D01*
X186555059Y-78961607D01*
X186745535Y-79009226D01*
X186840773Y-79056845D01*
X186936011Y-79152083D01*
X186983630Y-79294940D01*
X186983630Y-79533035D01*
X185983630Y-78628273D02*
X185983630Y-78009226D01*
X186364583Y-78342559D01*
X186364583Y-78199702D01*
X186412202Y-78104464D01*
X186459821Y-78056845D01*
X186555059Y-78009226D01*
X186793154Y-78009226D01*
X186888392Y-78056845D01*
X186936011Y-78104464D01*
X186983630Y-78199702D01*
X186983630Y-78485416D01*
X186936011Y-78580654D01*
X186888392Y-78628273D01*
X185983630Y-77675892D02*
X185983630Y-77056845D01*
X186364583Y-77390178D01*
X186364583Y-77247321D01*
X186412202Y-77152083D01*
X186459821Y-77104464D01*
X186555059Y-77056845D01*
X186793154Y-77056845D01*
X186888392Y-77104464D01*
X186936011Y-77152083D01*
X186983630Y-77247321D01*
X186983630Y-77533035D01*
X186936011Y-77628273D01*
X186888392Y-77675892D01*
%TO.C,D32*%
X183808630Y-79533035D02*
X182808630Y-79533035D01*
X182808630Y-79294940D01*
X182856250Y-79152083D01*
X182951488Y-79056845D01*
X183046726Y-79009226D01*
X183237202Y-78961607D01*
X183380059Y-78961607D01*
X183570535Y-79009226D01*
X183665773Y-79056845D01*
X183761011Y-79152083D01*
X183808630Y-79294940D01*
X183808630Y-79533035D01*
X182808630Y-78628273D02*
X182808630Y-78009226D01*
X183189583Y-78342559D01*
X183189583Y-78199702D01*
X183237202Y-78104464D01*
X183284821Y-78056845D01*
X183380059Y-78009226D01*
X183618154Y-78009226D01*
X183713392Y-78056845D01*
X183761011Y-78104464D01*
X183808630Y-78199702D01*
X183808630Y-78485416D01*
X183761011Y-78580654D01*
X183713392Y-78628273D01*
X182903869Y-77628273D02*
X182856250Y-77580654D01*
X182808630Y-77485416D01*
X182808630Y-77247321D01*
X182856250Y-77152083D01*
X182903869Y-77104464D01*
X182999107Y-77056845D01*
X183094345Y-77056845D01*
X183237202Y-77104464D01*
X183808630Y-77675892D01*
X183808630Y-77056845D01*
%TO.C,D31*%
X180633630Y-79533035D02*
X179633630Y-79533035D01*
X179633630Y-79294940D01*
X179681250Y-79152083D01*
X179776488Y-79056845D01*
X179871726Y-79009226D01*
X180062202Y-78961607D01*
X180205059Y-78961607D01*
X180395535Y-79009226D01*
X180490773Y-79056845D01*
X180586011Y-79152083D01*
X180633630Y-79294940D01*
X180633630Y-79533035D01*
X179633630Y-78628273D02*
X179633630Y-78009226D01*
X180014583Y-78342559D01*
X180014583Y-78199702D01*
X180062202Y-78104464D01*
X180109821Y-78056845D01*
X180205059Y-78009226D01*
X180443154Y-78009226D01*
X180538392Y-78056845D01*
X180586011Y-78104464D01*
X180633630Y-78199702D01*
X180633630Y-78485416D01*
X180586011Y-78580654D01*
X180538392Y-78628273D01*
X180633630Y-77056845D02*
X180633630Y-77628273D01*
X180633630Y-77342559D02*
X179633630Y-77342559D01*
X179776488Y-77437797D01*
X179871726Y-77533035D01*
X179919345Y-77628273D01*
%TO.C,D30*%
X172696130Y-79533035D02*
X171696130Y-79533035D01*
X171696130Y-79294940D01*
X171743750Y-79152083D01*
X171838988Y-79056845D01*
X171934226Y-79009226D01*
X172124702Y-78961607D01*
X172267559Y-78961607D01*
X172458035Y-79009226D01*
X172553273Y-79056845D01*
X172648511Y-79152083D01*
X172696130Y-79294940D01*
X172696130Y-79533035D01*
X171696130Y-78628273D02*
X171696130Y-78009226D01*
X172077083Y-78342559D01*
X172077083Y-78199702D01*
X172124702Y-78104464D01*
X172172321Y-78056845D01*
X172267559Y-78009226D01*
X172505654Y-78009226D01*
X172600892Y-78056845D01*
X172648511Y-78104464D01*
X172696130Y-78199702D01*
X172696130Y-78485416D01*
X172648511Y-78580654D01*
X172600892Y-78628273D01*
X171696130Y-77390178D02*
X171696130Y-77294940D01*
X171743750Y-77199702D01*
X171791369Y-77152083D01*
X171886607Y-77104464D01*
X172077083Y-77056845D01*
X172315178Y-77056845D01*
X172505654Y-77104464D01*
X172600892Y-77152083D01*
X172648511Y-77199702D01*
X172696130Y-77294940D01*
X172696130Y-77390178D01*
X172648511Y-77485416D01*
X172600892Y-77533035D01*
X172505654Y-77580654D01*
X172315178Y-77628273D01*
X172077083Y-77628273D01*
X171886607Y-77580654D01*
X171791369Y-77533035D01*
X171743750Y-77485416D01*
X171696130Y-77390178D01*
%TO.C,D29*%
X169521130Y-79533035D02*
X168521130Y-79533035D01*
X168521130Y-79294940D01*
X168568750Y-79152083D01*
X168663988Y-79056845D01*
X168759226Y-79009226D01*
X168949702Y-78961607D01*
X169092559Y-78961607D01*
X169283035Y-79009226D01*
X169378273Y-79056845D01*
X169473511Y-79152083D01*
X169521130Y-79294940D01*
X169521130Y-79533035D01*
X168616369Y-78580654D02*
X168568750Y-78533035D01*
X168521130Y-78437797D01*
X168521130Y-78199702D01*
X168568750Y-78104464D01*
X168616369Y-78056845D01*
X168711607Y-78009226D01*
X168806845Y-78009226D01*
X168949702Y-78056845D01*
X169521130Y-78628273D01*
X169521130Y-78009226D01*
X169521130Y-77533035D02*
X169521130Y-77342559D01*
X169473511Y-77247321D01*
X169425892Y-77199702D01*
X169283035Y-77104464D01*
X169092559Y-77056845D01*
X168711607Y-77056845D01*
X168616369Y-77104464D01*
X168568750Y-77152083D01*
X168521130Y-77247321D01*
X168521130Y-77437797D01*
X168568750Y-77533035D01*
X168616369Y-77580654D01*
X168711607Y-77628273D01*
X168949702Y-77628273D01*
X169044940Y-77580654D01*
X169092559Y-77533035D01*
X169140178Y-77437797D01*
X169140178Y-77247321D01*
X169092559Y-77152083D01*
X169044940Y-77104464D01*
X168949702Y-77056845D01*
%TO.C,D28*%
X166346130Y-79533035D02*
X165346130Y-79533035D01*
X165346130Y-79294940D01*
X165393750Y-79152083D01*
X165488988Y-79056845D01*
X165584226Y-79009226D01*
X165774702Y-78961607D01*
X165917559Y-78961607D01*
X166108035Y-79009226D01*
X166203273Y-79056845D01*
X166298511Y-79152083D01*
X166346130Y-79294940D01*
X166346130Y-79533035D01*
X165441369Y-78580654D02*
X165393750Y-78533035D01*
X165346130Y-78437797D01*
X165346130Y-78199702D01*
X165393750Y-78104464D01*
X165441369Y-78056845D01*
X165536607Y-78009226D01*
X165631845Y-78009226D01*
X165774702Y-78056845D01*
X166346130Y-78628273D01*
X166346130Y-78009226D01*
X165774702Y-77437797D02*
X165727083Y-77533035D01*
X165679464Y-77580654D01*
X165584226Y-77628273D01*
X165536607Y-77628273D01*
X165441369Y-77580654D01*
X165393750Y-77533035D01*
X165346130Y-77437797D01*
X165346130Y-77247321D01*
X165393750Y-77152083D01*
X165441369Y-77104464D01*
X165536607Y-77056845D01*
X165584226Y-77056845D01*
X165679464Y-77104464D01*
X165727083Y-77152083D01*
X165774702Y-77247321D01*
X165774702Y-77437797D01*
X165822321Y-77533035D01*
X165869940Y-77580654D01*
X165965178Y-77628273D01*
X166155654Y-77628273D01*
X166250892Y-77580654D01*
X166298511Y-77533035D01*
X166346130Y-77437797D01*
X166346130Y-77247321D01*
X166298511Y-77152083D01*
X166250892Y-77104464D01*
X166155654Y-77056845D01*
X165965178Y-77056845D01*
X165869940Y-77104464D01*
X165822321Y-77152083D01*
X165774702Y-77247321D01*
%TO.C,D27*%
X163171130Y-79533035D02*
X162171130Y-79533035D01*
X162171130Y-79294940D01*
X162218750Y-79152083D01*
X162313988Y-79056845D01*
X162409226Y-79009226D01*
X162599702Y-78961607D01*
X162742559Y-78961607D01*
X162933035Y-79009226D01*
X163028273Y-79056845D01*
X163123511Y-79152083D01*
X163171130Y-79294940D01*
X163171130Y-79533035D01*
X162266369Y-78580654D02*
X162218750Y-78533035D01*
X162171130Y-78437797D01*
X162171130Y-78199702D01*
X162218750Y-78104464D01*
X162266369Y-78056845D01*
X162361607Y-78009226D01*
X162456845Y-78009226D01*
X162599702Y-78056845D01*
X163171130Y-78628273D01*
X163171130Y-78009226D01*
X162171130Y-77675892D02*
X162171130Y-77009226D01*
X163171130Y-77437797D01*
%TO.C,D26*%
X159996130Y-79533035D02*
X158996130Y-79533035D01*
X158996130Y-79294940D01*
X159043750Y-79152083D01*
X159138988Y-79056845D01*
X159234226Y-79009226D01*
X159424702Y-78961607D01*
X159567559Y-78961607D01*
X159758035Y-79009226D01*
X159853273Y-79056845D01*
X159948511Y-79152083D01*
X159996130Y-79294940D01*
X159996130Y-79533035D01*
X159091369Y-78580654D02*
X159043750Y-78533035D01*
X158996130Y-78437797D01*
X158996130Y-78199702D01*
X159043750Y-78104464D01*
X159091369Y-78056845D01*
X159186607Y-78009226D01*
X159281845Y-78009226D01*
X159424702Y-78056845D01*
X159996130Y-78628273D01*
X159996130Y-78009226D01*
X158996130Y-77152083D02*
X158996130Y-77342559D01*
X159043750Y-77437797D01*
X159091369Y-77485416D01*
X159234226Y-77580654D01*
X159424702Y-77628273D01*
X159805654Y-77628273D01*
X159900892Y-77580654D01*
X159948511Y-77533035D01*
X159996130Y-77437797D01*
X159996130Y-77247321D01*
X159948511Y-77152083D01*
X159900892Y-77104464D01*
X159805654Y-77056845D01*
X159567559Y-77056845D01*
X159472321Y-77104464D01*
X159424702Y-77152083D01*
X159377083Y-77247321D01*
X159377083Y-77437797D01*
X159424702Y-77533035D01*
X159472321Y-77580654D01*
X159567559Y-77628273D01*
%TO.C,D25*%
X156821130Y-79533035D02*
X155821130Y-79533035D01*
X155821130Y-79294940D01*
X155868750Y-79152083D01*
X155963988Y-79056845D01*
X156059226Y-79009226D01*
X156249702Y-78961607D01*
X156392559Y-78961607D01*
X156583035Y-79009226D01*
X156678273Y-79056845D01*
X156773511Y-79152083D01*
X156821130Y-79294940D01*
X156821130Y-79533035D01*
X155916369Y-78580654D02*
X155868750Y-78533035D01*
X155821130Y-78437797D01*
X155821130Y-78199702D01*
X155868750Y-78104464D01*
X155916369Y-78056845D01*
X156011607Y-78009226D01*
X156106845Y-78009226D01*
X156249702Y-78056845D01*
X156821130Y-78628273D01*
X156821130Y-78009226D01*
X155821130Y-77104464D02*
X155821130Y-77580654D01*
X156297321Y-77628273D01*
X156249702Y-77580654D01*
X156202083Y-77485416D01*
X156202083Y-77247321D01*
X156249702Y-77152083D01*
X156297321Y-77104464D01*
X156392559Y-77056845D01*
X156630654Y-77056845D01*
X156725892Y-77104464D01*
X156773511Y-77152083D01*
X156821130Y-77247321D01*
X156821130Y-77485416D01*
X156773511Y-77580654D01*
X156725892Y-77628273D01*
%TO.C,D24*%
X196508630Y-70801785D02*
X195508630Y-70801785D01*
X195508630Y-70563690D01*
X195556250Y-70420833D01*
X195651488Y-70325595D01*
X195746726Y-70277976D01*
X195937202Y-70230357D01*
X196080059Y-70230357D01*
X196270535Y-70277976D01*
X196365773Y-70325595D01*
X196461011Y-70420833D01*
X196508630Y-70563690D01*
X196508630Y-70801785D01*
X195603869Y-69849404D02*
X195556250Y-69801785D01*
X195508630Y-69706547D01*
X195508630Y-69468452D01*
X195556250Y-69373214D01*
X195603869Y-69325595D01*
X195699107Y-69277976D01*
X195794345Y-69277976D01*
X195937202Y-69325595D01*
X196508630Y-69897023D01*
X196508630Y-69277976D01*
X195841964Y-68420833D02*
X196508630Y-68420833D01*
X195461011Y-68658928D02*
X196175297Y-68897023D01*
X196175297Y-68277976D01*
%TO.C,D23*%
X193333630Y-70801785D02*
X192333630Y-70801785D01*
X192333630Y-70563690D01*
X192381250Y-70420833D01*
X192476488Y-70325595D01*
X192571726Y-70277976D01*
X192762202Y-70230357D01*
X192905059Y-70230357D01*
X193095535Y-70277976D01*
X193190773Y-70325595D01*
X193286011Y-70420833D01*
X193333630Y-70563690D01*
X193333630Y-70801785D01*
X192428869Y-69849404D02*
X192381250Y-69801785D01*
X192333630Y-69706547D01*
X192333630Y-69468452D01*
X192381250Y-69373214D01*
X192428869Y-69325595D01*
X192524107Y-69277976D01*
X192619345Y-69277976D01*
X192762202Y-69325595D01*
X193333630Y-69897023D01*
X193333630Y-69277976D01*
X192333630Y-68944642D02*
X192333630Y-68325595D01*
X192714583Y-68658928D01*
X192714583Y-68516071D01*
X192762202Y-68420833D01*
X192809821Y-68373214D01*
X192905059Y-68325595D01*
X193143154Y-68325595D01*
X193238392Y-68373214D01*
X193286011Y-68420833D01*
X193333630Y-68516071D01*
X193333630Y-68801785D01*
X193286011Y-68897023D01*
X193238392Y-68944642D01*
%TO.C,D22*%
X190158630Y-70864285D02*
X189158630Y-70864285D01*
X189158630Y-70626190D01*
X189206250Y-70483333D01*
X189301488Y-70388095D01*
X189396726Y-70340476D01*
X189587202Y-70292857D01*
X189730059Y-70292857D01*
X189920535Y-70340476D01*
X190015773Y-70388095D01*
X190111011Y-70483333D01*
X190158630Y-70626190D01*
X190158630Y-70864285D01*
X189253869Y-69911904D02*
X189206250Y-69864285D01*
X189158630Y-69769047D01*
X189158630Y-69530952D01*
X189206250Y-69435714D01*
X189253869Y-69388095D01*
X189349107Y-69340476D01*
X189444345Y-69340476D01*
X189587202Y-69388095D01*
X190158630Y-69959523D01*
X190158630Y-69340476D01*
X189253869Y-68959523D02*
X189206250Y-68911904D01*
X189158630Y-68816666D01*
X189158630Y-68578571D01*
X189206250Y-68483333D01*
X189253869Y-68435714D01*
X189349107Y-68388095D01*
X189444345Y-68388095D01*
X189587202Y-68435714D01*
X190158630Y-69007142D01*
X190158630Y-68388095D01*
%TO.C,D21*%
X186983630Y-70801785D02*
X185983630Y-70801785D01*
X185983630Y-70563690D01*
X186031250Y-70420833D01*
X186126488Y-70325595D01*
X186221726Y-70277976D01*
X186412202Y-70230357D01*
X186555059Y-70230357D01*
X186745535Y-70277976D01*
X186840773Y-70325595D01*
X186936011Y-70420833D01*
X186983630Y-70563690D01*
X186983630Y-70801785D01*
X186078869Y-69849404D02*
X186031250Y-69801785D01*
X185983630Y-69706547D01*
X185983630Y-69468452D01*
X186031250Y-69373214D01*
X186078869Y-69325595D01*
X186174107Y-69277976D01*
X186269345Y-69277976D01*
X186412202Y-69325595D01*
X186983630Y-69897023D01*
X186983630Y-69277976D01*
X186983630Y-68325595D02*
X186983630Y-68897023D01*
X186983630Y-68611309D02*
X185983630Y-68611309D01*
X186126488Y-68706547D01*
X186221726Y-68801785D01*
X186269345Y-68897023D01*
%TO.C,D20*%
X183808630Y-70801785D02*
X182808630Y-70801785D01*
X182808630Y-70563690D01*
X182856250Y-70420833D01*
X182951488Y-70325595D01*
X183046726Y-70277976D01*
X183237202Y-70230357D01*
X183380059Y-70230357D01*
X183570535Y-70277976D01*
X183665773Y-70325595D01*
X183761011Y-70420833D01*
X183808630Y-70563690D01*
X183808630Y-70801785D01*
X182903869Y-69849404D02*
X182856250Y-69801785D01*
X182808630Y-69706547D01*
X182808630Y-69468452D01*
X182856250Y-69373214D01*
X182903869Y-69325595D01*
X182999107Y-69277976D01*
X183094345Y-69277976D01*
X183237202Y-69325595D01*
X183808630Y-69897023D01*
X183808630Y-69277976D01*
X182808630Y-68658928D02*
X182808630Y-68563690D01*
X182856250Y-68468452D01*
X182903869Y-68420833D01*
X182999107Y-68373214D01*
X183189583Y-68325595D01*
X183427678Y-68325595D01*
X183618154Y-68373214D01*
X183713392Y-68420833D01*
X183761011Y-68468452D01*
X183808630Y-68563690D01*
X183808630Y-68658928D01*
X183761011Y-68754166D01*
X183713392Y-68801785D01*
X183618154Y-68849404D01*
X183427678Y-68897023D01*
X183189583Y-68897023D01*
X182999107Y-68849404D01*
X182903869Y-68801785D01*
X182856250Y-68754166D01*
X182808630Y-68658928D01*
%TO.C,D19*%
X180633630Y-70801785D02*
X179633630Y-70801785D01*
X179633630Y-70563690D01*
X179681250Y-70420833D01*
X179776488Y-70325595D01*
X179871726Y-70277976D01*
X180062202Y-70230357D01*
X180205059Y-70230357D01*
X180395535Y-70277976D01*
X180490773Y-70325595D01*
X180586011Y-70420833D01*
X180633630Y-70563690D01*
X180633630Y-70801785D01*
X180633630Y-69277976D02*
X180633630Y-69849404D01*
X180633630Y-69563690D02*
X179633630Y-69563690D01*
X179776488Y-69658928D01*
X179871726Y-69754166D01*
X179919345Y-69849404D01*
X180633630Y-68801785D02*
X180633630Y-68611309D01*
X180586011Y-68516071D01*
X180538392Y-68468452D01*
X180395535Y-68373214D01*
X180205059Y-68325595D01*
X179824107Y-68325595D01*
X179728869Y-68373214D01*
X179681250Y-68420833D01*
X179633630Y-68516071D01*
X179633630Y-68706547D01*
X179681250Y-68801785D01*
X179728869Y-68849404D01*
X179824107Y-68897023D01*
X180062202Y-68897023D01*
X180157440Y-68849404D01*
X180205059Y-68801785D01*
X180252678Y-68706547D01*
X180252678Y-68516071D01*
X180205059Y-68420833D01*
X180157440Y-68373214D01*
X180062202Y-68325595D01*
%TO.C,D18*%
X172696130Y-70801785D02*
X171696130Y-70801785D01*
X171696130Y-70563690D01*
X171743750Y-70420833D01*
X171838988Y-70325595D01*
X171934226Y-70277976D01*
X172124702Y-70230357D01*
X172267559Y-70230357D01*
X172458035Y-70277976D01*
X172553273Y-70325595D01*
X172648511Y-70420833D01*
X172696130Y-70563690D01*
X172696130Y-70801785D01*
X172696130Y-69277976D02*
X172696130Y-69849404D01*
X172696130Y-69563690D02*
X171696130Y-69563690D01*
X171838988Y-69658928D01*
X171934226Y-69754166D01*
X171981845Y-69849404D01*
X172124702Y-68706547D02*
X172077083Y-68801785D01*
X172029464Y-68849404D01*
X171934226Y-68897023D01*
X171886607Y-68897023D01*
X171791369Y-68849404D01*
X171743750Y-68801785D01*
X171696130Y-68706547D01*
X171696130Y-68516071D01*
X171743750Y-68420833D01*
X171791369Y-68373214D01*
X171886607Y-68325595D01*
X171934226Y-68325595D01*
X172029464Y-68373214D01*
X172077083Y-68420833D01*
X172124702Y-68516071D01*
X172124702Y-68706547D01*
X172172321Y-68801785D01*
X172219940Y-68849404D01*
X172315178Y-68897023D01*
X172505654Y-68897023D01*
X172600892Y-68849404D01*
X172648511Y-68801785D01*
X172696130Y-68706547D01*
X172696130Y-68516071D01*
X172648511Y-68420833D01*
X172600892Y-68373214D01*
X172505654Y-68325595D01*
X172315178Y-68325595D01*
X172219940Y-68373214D01*
X172172321Y-68420833D01*
X172124702Y-68516071D01*
%TO.C,D17*%
X169521130Y-70801785D02*
X168521130Y-70801785D01*
X168521130Y-70563690D01*
X168568750Y-70420833D01*
X168663988Y-70325595D01*
X168759226Y-70277976D01*
X168949702Y-70230357D01*
X169092559Y-70230357D01*
X169283035Y-70277976D01*
X169378273Y-70325595D01*
X169473511Y-70420833D01*
X169521130Y-70563690D01*
X169521130Y-70801785D01*
X169521130Y-69277976D02*
X169521130Y-69849404D01*
X169521130Y-69563690D02*
X168521130Y-69563690D01*
X168663988Y-69658928D01*
X168759226Y-69754166D01*
X168806845Y-69849404D01*
X168521130Y-68944642D02*
X168521130Y-68277976D01*
X169521130Y-68706547D01*
%TO.C,D16*%
X166346130Y-70801785D02*
X165346130Y-70801785D01*
X165346130Y-70563690D01*
X165393750Y-70420833D01*
X165488988Y-70325595D01*
X165584226Y-70277976D01*
X165774702Y-70230357D01*
X165917559Y-70230357D01*
X166108035Y-70277976D01*
X166203273Y-70325595D01*
X166298511Y-70420833D01*
X166346130Y-70563690D01*
X166346130Y-70801785D01*
X166346130Y-69277976D02*
X166346130Y-69849404D01*
X166346130Y-69563690D02*
X165346130Y-69563690D01*
X165488988Y-69658928D01*
X165584226Y-69754166D01*
X165631845Y-69849404D01*
X165346130Y-68420833D02*
X165346130Y-68611309D01*
X165393750Y-68706547D01*
X165441369Y-68754166D01*
X165584226Y-68849404D01*
X165774702Y-68897023D01*
X166155654Y-68897023D01*
X166250892Y-68849404D01*
X166298511Y-68801785D01*
X166346130Y-68706547D01*
X166346130Y-68516071D01*
X166298511Y-68420833D01*
X166250892Y-68373214D01*
X166155654Y-68325595D01*
X165917559Y-68325595D01*
X165822321Y-68373214D01*
X165774702Y-68420833D01*
X165727083Y-68516071D01*
X165727083Y-68706547D01*
X165774702Y-68801785D01*
X165822321Y-68849404D01*
X165917559Y-68897023D01*
%TO.C,D15*%
X163171130Y-70801785D02*
X162171130Y-70801785D01*
X162171130Y-70563690D01*
X162218750Y-70420833D01*
X162313988Y-70325595D01*
X162409226Y-70277976D01*
X162599702Y-70230357D01*
X162742559Y-70230357D01*
X162933035Y-70277976D01*
X163028273Y-70325595D01*
X163123511Y-70420833D01*
X163171130Y-70563690D01*
X163171130Y-70801785D01*
X163171130Y-69277976D02*
X163171130Y-69849404D01*
X163171130Y-69563690D02*
X162171130Y-69563690D01*
X162313988Y-69658928D01*
X162409226Y-69754166D01*
X162456845Y-69849404D01*
X162171130Y-68373214D02*
X162171130Y-68849404D01*
X162647321Y-68897023D01*
X162599702Y-68849404D01*
X162552083Y-68754166D01*
X162552083Y-68516071D01*
X162599702Y-68420833D01*
X162647321Y-68373214D01*
X162742559Y-68325595D01*
X162980654Y-68325595D01*
X163075892Y-68373214D01*
X163123511Y-68420833D01*
X163171130Y-68516071D01*
X163171130Y-68754166D01*
X163123511Y-68849404D01*
X163075892Y-68897023D01*
%TO.C,D14*%
X159996130Y-70801785D02*
X158996130Y-70801785D01*
X158996130Y-70563690D01*
X159043750Y-70420833D01*
X159138988Y-70325595D01*
X159234226Y-70277976D01*
X159424702Y-70230357D01*
X159567559Y-70230357D01*
X159758035Y-70277976D01*
X159853273Y-70325595D01*
X159948511Y-70420833D01*
X159996130Y-70563690D01*
X159996130Y-70801785D01*
X159996130Y-69277976D02*
X159996130Y-69849404D01*
X159996130Y-69563690D02*
X158996130Y-69563690D01*
X159138988Y-69658928D01*
X159234226Y-69754166D01*
X159281845Y-69849404D01*
X159329464Y-68420833D02*
X159996130Y-68420833D01*
X158948511Y-68658928D02*
X159662797Y-68897023D01*
X159662797Y-68277976D01*
%TO.C,D13*%
X156821130Y-70801785D02*
X155821130Y-70801785D01*
X155821130Y-70563690D01*
X155868750Y-70420833D01*
X155963988Y-70325595D01*
X156059226Y-70277976D01*
X156249702Y-70230357D01*
X156392559Y-70230357D01*
X156583035Y-70277976D01*
X156678273Y-70325595D01*
X156773511Y-70420833D01*
X156821130Y-70563690D01*
X156821130Y-70801785D01*
X156821130Y-69277976D02*
X156821130Y-69849404D01*
X156821130Y-69563690D02*
X155821130Y-69563690D01*
X155963988Y-69658928D01*
X156059226Y-69754166D01*
X156106845Y-69849404D01*
X155821130Y-68944642D02*
X155821130Y-68325595D01*
X156202083Y-68658928D01*
X156202083Y-68516071D01*
X156249702Y-68420833D01*
X156297321Y-68373214D01*
X156392559Y-68325595D01*
X156630654Y-68325595D01*
X156725892Y-68373214D01*
X156773511Y-68420833D01*
X156821130Y-68516071D01*
X156821130Y-68801785D01*
X156773511Y-68897023D01*
X156725892Y-68944642D01*
%TO.C,D12*%
X196508630Y-62070535D02*
X195508630Y-62070535D01*
X195508630Y-61832440D01*
X195556250Y-61689583D01*
X195651488Y-61594345D01*
X195746726Y-61546726D01*
X195937202Y-61499107D01*
X196080059Y-61499107D01*
X196270535Y-61546726D01*
X196365773Y-61594345D01*
X196461011Y-61689583D01*
X196508630Y-61832440D01*
X196508630Y-62070535D01*
X196508630Y-60546726D02*
X196508630Y-61118154D01*
X196508630Y-60832440D02*
X195508630Y-60832440D01*
X195651488Y-60927678D01*
X195746726Y-61022916D01*
X195794345Y-61118154D01*
X195603869Y-60165773D02*
X195556250Y-60118154D01*
X195508630Y-60022916D01*
X195508630Y-59784821D01*
X195556250Y-59689583D01*
X195603869Y-59641964D01*
X195699107Y-59594345D01*
X195794345Y-59594345D01*
X195937202Y-59641964D01*
X196508630Y-60213392D01*
X196508630Y-59594345D01*
%TO.C,D11*%
X193333630Y-62070535D02*
X192333630Y-62070535D01*
X192333630Y-61832440D01*
X192381250Y-61689583D01*
X192476488Y-61594345D01*
X192571726Y-61546726D01*
X192762202Y-61499107D01*
X192905059Y-61499107D01*
X193095535Y-61546726D01*
X193190773Y-61594345D01*
X193286011Y-61689583D01*
X193333630Y-61832440D01*
X193333630Y-62070535D01*
X193333630Y-60546726D02*
X193333630Y-61118154D01*
X193333630Y-60832440D02*
X192333630Y-60832440D01*
X192476488Y-60927678D01*
X192571726Y-61022916D01*
X192619345Y-61118154D01*
X193333630Y-59594345D02*
X193333630Y-60165773D01*
X193333630Y-59880059D02*
X192333630Y-59880059D01*
X192476488Y-59975297D01*
X192571726Y-60070535D01*
X192619345Y-60165773D01*
%TO.C,D10*%
X190158630Y-62070535D02*
X189158630Y-62070535D01*
X189158630Y-61832440D01*
X189206250Y-61689583D01*
X189301488Y-61594345D01*
X189396726Y-61546726D01*
X189587202Y-61499107D01*
X189730059Y-61499107D01*
X189920535Y-61546726D01*
X190015773Y-61594345D01*
X190111011Y-61689583D01*
X190158630Y-61832440D01*
X190158630Y-62070535D01*
X190158630Y-60546726D02*
X190158630Y-61118154D01*
X190158630Y-60832440D02*
X189158630Y-60832440D01*
X189301488Y-60927678D01*
X189396726Y-61022916D01*
X189444345Y-61118154D01*
X189158630Y-59927678D02*
X189158630Y-59832440D01*
X189206250Y-59737202D01*
X189253869Y-59689583D01*
X189349107Y-59641964D01*
X189539583Y-59594345D01*
X189777678Y-59594345D01*
X189968154Y-59641964D01*
X190063392Y-59689583D01*
X190111011Y-59737202D01*
X190158630Y-59832440D01*
X190158630Y-59927678D01*
X190111011Y-60022916D01*
X190063392Y-60070535D01*
X189968154Y-60118154D01*
X189777678Y-60165773D01*
X189539583Y-60165773D01*
X189349107Y-60118154D01*
X189253869Y-60070535D01*
X189206250Y-60022916D01*
X189158630Y-59927678D01*
%TO.C,D9*%
X186983630Y-61594345D02*
X185983630Y-61594345D01*
X185983630Y-61356250D01*
X186031250Y-61213392D01*
X186126488Y-61118154D01*
X186221726Y-61070535D01*
X186412202Y-61022916D01*
X186555059Y-61022916D01*
X186745535Y-61070535D01*
X186840773Y-61118154D01*
X186936011Y-61213392D01*
X186983630Y-61356250D01*
X186983630Y-61594345D01*
X186983630Y-60546726D02*
X186983630Y-60356250D01*
X186936011Y-60261011D01*
X186888392Y-60213392D01*
X186745535Y-60118154D01*
X186555059Y-60070535D01*
X186174107Y-60070535D01*
X186078869Y-60118154D01*
X186031250Y-60165773D01*
X185983630Y-60261011D01*
X185983630Y-60451488D01*
X186031250Y-60546726D01*
X186078869Y-60594345D01*
X186174107Y-60641964D01*
X186412202Y-60641964D01*
X186507440Y-60594345D01*
X186555059Y-60546726D01*
X186602678Y-60451488D01*
X186602678Y-60261011D01*
X186555059Y-60165773D01*
X186507440Y-60118154D01*
X186412202Y-60070535D01*
%TO.C,D8*%
X183808630Y-61594345D02*
X182808630Y-61594345D01*
X182808630Y-61356250D01*
X182856250Y-61213392D01*
X182951488Y-61118154D01*
X183046726Y-61070535D01*
X183237202Y-61022916D01*
X183380059Y-61022916D01*
X183570535Y-61070535D01*
X183665773Y-61118154D01*
X183761011Y-61213392D01*
X183808630Y-61356250D01*
X183808630Y-61594345D01*
X183237202Y-60451488D02*
X183189583Y-60546726D01*
X183141964Y-60594345D01*
X183046726Y-60641964D01*
X182999107Y-60641964D01*
X182903869Y-60594345D01*
X182856250Y-60546726D01*
X182808630Y-60451488D01*
X182808630Y-60261011D01*
X182856250Y-60165773D01*
X182903869Y-60118154D01*
X182999107Y-60070535D01*
X183046726Y-60070535D01*
X183141964Y-60118154D01*
X183189583Y-60165773D01*
X183237202Y-60261011D01*
X183237202Y-60451488D01*
X183284821Y-60546726D01*
X183332440Y-60594345D01*
X183427678Y-60641964D01*
X183618154Y-60641964D01*
X183713392Y-60594345D01*
X183761011Y-60546726D01*
X183808630Y-60451488D01*
X183808630Y-60261011D01*
X183761011Y-60165773D01*
X183713392Y-60118154D01*
X183618154Y-60070535D01*
X183427678Y-60070535D01*
X183332440Y-60118154D01*
X183284821Y-60165773D01*
X183237202Y-60261011D01*
%TO.C,D7*%
X180633630Y-61594345D02*
X179633630Y-61594345D01*
X179633630Y-61356250D01*
X179681250Y-61213392D01*
X179776488Y-61118154D01*
X179871726Y-61070535D01*
X180062202Y-61022916D01*
X180205059Y-61022916D01*
X180395535Y-61070535D01*
X180490773Y-61118154D01*
X180586011Y-61213392D01*
X180633630Y-61356250D01*
X180633630Y-61594345D01*
X179633630Y-60689583D02*
X179633630Y-60022916D01*
X180633630Y-60451488D01*
%TO.C,D6*%
X172696130Y-61594345D02*
X171696130Y-61594345D01*
X171696130Y-61356250D01*
X171743750Y-61213392D01*
X171838988Y-61118154D01*
X171934226Y-61070535D01*
X172124702Y-61022916D01*
X172267559Y-61022916D01*
X172458035Y-61070535D01*
X172553273Y-61118154D01*
X172648511Y-61213392D01*
X172696130Y-61356250D01*
X172696130Y-61594345D01*
X171696130Y-60165773D02*
X171696130Y-60356250D01*
X171743750Y-60451488D01*
X171791369Y-60499107D01*
X171934226Y-60594345D01*
X172124702Y-60641964D01*
X172505654Y-60641964D01*
X172600892Y-60594345D01*
X172648511Y-60546726D01*
X172696130Y-60451488D01*
X172696130Y-60261011D01*
X172648511Y-60165773D01*
X172600892Y-60118154D01*
X172505654Y-60070535D01*
X172267559Y-60070535D01*
X172172321Y-60118154D01*
X172124702Y-60165773D01*
X172077083Y-60261011D01*
X172077083Y-60451488D01*
X172124702Y-60546726D01*
X172172321Y-60594345D01*
X172267559Y-60641964D01*
%TO.C,D5*%
X169521130Y-61594345D02*
X168521130Y-61594345D01*
X168521130Y-61356250D01*
X168568750Y-61213392D01*
X168663988Y-61118154D01*
X168759226Y-61070535D01*
X168949702Y-61022916D01*
X169092559Y-61022916D01*
X169283035Y-61070535D01*
X169378273Y-61118154D01*
X169473511Y-61213392D01*
X169521130Y-61356250D01*
X169521130Y-61594345D01*
X168521130Y-60118154D02*
X168521130Y-60594345D01*
X168997321Y-60641964D01*
X168949702Y-60594345D01*
X168902083Y-60499107D01*
X168902083Y-60261011D01*
X168949702Y-60165773D01*
X168997321Y-60118154D01*
X169092559Y-60070535D01*
X169330654Y-60070535D01*
X169425892Y-60118154D01*
X169473511Y-60165773D01*
X169521130Y-60261011D01*
X169521130Y-60499107D01*
X169473511Y-60594345D01*
X169425892Y-60641964D01*
%TO.C,D4*%
X166346130Y-61594345D02*
X165346130Y-61594345D01*
X165346130Y-61356250D01*
X165393750Y-61213392D01*
X165488988Y-61118154D01*
X165584226Y-61070535D01*
X165774702Y-61022916D01*
X165917559Y-61022916D01*
X166108035Y-61070535D01*
X166203273Y-61118154D01*
X166298511Y-61213392D01*
X166346130Y-61356250D01*
X166346130Y-61594345D01*
X165679464Y-60165773D02*
X166346130Y-60165773D01*
X165298511Y-60403869D02*
X166012797Y-60641964D01*
X166012797Y-60022916D01*
%TO.C,D3*%
X163171130Y-61594345D02*
X162171130Y-61594345D01*
X162171130Y-61356250D01*
X162218750Y-61213392D01*
X162313988Y-61118154D01*
X162409226Y-61070535D01*
X162599702Y-61022916D01*
X162742559Y-61022916D01*
X162933035Y-61070535D01*
X163028273Y-61118154D01*
X163123511Y-61213392D01*
X163171130Y-61356250D01*
X163171130Y-61594345D01*
X162171130Y-60689583D02*
X162171130Y-60070535D01*
X162552083Y-60403869D01*
X162552083Y-60261011D01*
X162599702Y-60165773D01*
X162647321Y-60118154D01*
X162742559Y-60070535D01*
X162980654Y-60070535D01*
X163075892Y-60118154D01*
X163123511Y-60165773D01*
X163171130Y-60261011D01*
X163171130Y-60546726D01*
X163123511Y-60641964D01*
X163075892Y-60689583D01*
%TO.C,D2*%
X159996130Y-61594345D02*
X158996130Y-61594345D01*
X158996130Y-61356250D01*
X159043750Y-61213392D01*
X159138988Y-61118154D01*
X159234226Y-61070535D01*
X159424702Y-61022916D01*
X159567559Y-61022916D01*
X159758035Y-61070535D01*
X159853273Y-61118154D01*
X159948511Y-61213392D01*
X159996130Y-61356250D01*
X159996130Y-61594345D01*
X159091369Y-60641964D02*
X159043750Y-60594345D01*
X158996130Y-60499107D01*
X158996130Y-60261011D01*
X159043750Y-60165773D01*
X159091369Y-60118154D01*
X159186607Y-60070535D01*
X159281845Y-60070535D01*
X159424702Y-60118154D01*
X159996130Y-60689583D01*
X159996130Y-60070535D01*
%TO.C,D1*%
X156821130Y-61594345D02*
X155821130Y-61594345D01*
X155821130Y-61356250D01*
X155868750Y-61213392D01*
X155963988Y-61118154D01*
X156059226Y-61070535D01*
X156249702Y-61022916D01*
X156392559Y-61022916D01*
X156583035Y-61070535D01*
X156678273Y-61118154D01*
X156773511Y-61213392D01*
X156821130Y-61356250D01*
X156821130Y-61594345D01*
X156821130Y-60070535D02*
X156821130Y-60641964D01*
X156821130Y-60356250D02*
X155821130Y-60356250D01*
X155963988Y-60451488D01*
X156059226Y-60546726D01*
X156106845Y-60641964D01*
%TO.C,C5*%
X182839880Y-33428928D02*
X182839880Y-34000357D01*
X182839880Y-33714642D02*
X181839880Y-33714642D01*
X181982738Y-33809880D01*
X182077976Y-33905119D01*
X182125595Y-34000357D01*
X181839880Y-32809880D02*
X181839880Y-32714642D01*
X181887500Y-32619404D01*
X181935119Y-32571785D01*
X182030357Y-32524166D01*
X182220833Y-32476547D01*
X182458928Y-32476547D01*
X182649404Y-32524166D01*
X182744642Y-32571785D01*
X182792261Y-32619404D01*
X182839880Y-32714642D01*
X182839880Y-32809880D01*
X182792261Y-32905119D01*
X182744642Y-32952738D01*
X182649404Y-33000357D01*
X182458928Y-33047976D01*
X182220833Y-33047976D01*
X182030357Y-33000357D01*
X181935119Y-32952738D01*
X181887500Y-32905119D01*
X181839880Y-32809880D01*
X182173214Y-31619404D02*
X182839880Y-31619404D01*
X182173214Y-32047976D02*
X182697023Y-32047976D01*
X182792261Y-32000357D01*
X182839880Y-31905119D01*
X182839880Y-31762261D01*
X182792261Y-31667023D01*
X182744642Y-31619404D01*
X182316071Y-30809880D02*
X182316071Y-31143214D01*
X182839880Y-31143214D02*
X181839880Y-31143214D01*
X181839880Y-30667023D01*
%TO.C,C4*%
X161924642Y-35909880D02*
X162019880Y-35909880D01*
X162115119Y-35957500D01*
X162162738Y-36005119D01*
X162210357Y-36100357D01*
X162257976Y-36290833D01*
X162257976Y-36528928D01*
X162210357Y-36719404D01*
X162162738Y-36814642D01*
X162115119Y-36862261D01*
X162019880Y-36909880D01*
X161924642Y-36909880D01*
X161829404Y-36862261D01*
X161781785Y-36814642D01*
X161734166Y-36719404D01*
X161686547Y-36528928D01*
X161686547Y-36290833D01*
X161734166Y-36100357D01*
X161781785Y-36005119D01*
X161829404Y-35957500D01*
X161924642Y-35909880D01*
X162686547Y-36814642D02*
X162734166Y-36862261D01*
X162686547Y-36909880D01*
X162638928Y-36862261D01*
X162686547Y-36814642D01*
X162686547Y-36909880D01*
X163686547Y-36909880D02*
X163115119Y-36909880D01*
X163400833Y-36909880D02*
X163400833Y-35909880D01*
X163305595Y-36052738D01*
X163210357Y-36147976D01*
X163115119Y-36195595D01*
X164543690Y-36243214D02*
X164543690Y-36909880D01*
X164115119Y-36243214D02*
X164115119Y-36767023D01*
X164162738Y-36862261D01*
X164257976Y-36909880D01*
X164400833Y-36909880D01*
X164496071Y-36862261D01*
X164543690Y-36814642D01*
X165353214Y-36386071D02*
X165019880Y-36386071D01*
X165019880Y-36909880D02*
X165019880Y-35909880D01*
X165496071Y-35909880D01*
%TO.C,C3*%
X170594642Y-50159880D02*
X170689880Y-50159880D01*
X170785119Y-50207500D01*
X170832738Y-50255119D01*
X170880357Y-50350357D01*
X170927976Y-50540833D01*
X170927976Y-50778928D01*
X170880357Y-50969404D01*
X170832738Y-51064642D01*
X170785119Y-51112261D01*
X170689880Y-51159880D01*
X170594642Y-51159880D01*
X170499404Y-51112261D01*
X170451785Y-51064642D01*
X170404166Y-50969404D01*
X170356547Y-50778928D01*
X170356547Y-50540833D01*
X170404166Y-50350357D01*
X170451785Y-50255119D01*
X170499404Y-50207500D01*
X170594642Y-50159880D01*
X171356547Y-51064642D02*
X171404166Y-51112261D01*
X171356547Y-51159880D01*
X171308928Y-51112261D01*
X171356547Y-51064642D01*
X171356547Y-51159880D01*
X172356547Y-51159880D02*
X171785119Y-51159880D01*
X172070833Y-51159880D02*
X172070833Y-50159880D01*
X171975595Y-50302738D01*
X171880357Y-50397976D01*
X171785119Y-50445595D01*
X173213690Y-50493214D02*
X173213690Y-51159880D01*
X172785119Y-50493214D02*
X172785119Y-51017023D01*
X172832738Y-51112261D01*
X172927976Y-51159880D01*
X173070833Y-51159880D01*
X173166071Y-51112261D01*
X173213690Y-51064642D01*
X174023214Y-50636071D02*
X173689880Y-50636071D01*
X173689880Y-51159880D02*
X173689880Y-50159880D01*
X174166071Y-50159880D01*
%TO.C,C2*%
X185859880Y-45470357D02*
X185859880Y-45375119D01*
X185907500Y-45279880D01*
X185955119Y-45232261D01*
X186050357Y-45184642D01*
X186240833Y-45137023D01*
X186478928Y-45137023D01*
X186669404Y-45184642D01*
X186764642Y-45232261D01*
X186812261Y-45279880D01*
X186859880Y-45375119D01*
X186859880Y-45470357D01*
X186812261Y-45565595D01*
X186764642Y-45613214D01*
X186669404Y-45660833D01*
X186478928Y-45708452D01*
X186240833Y-45708452D01*
X186050357Y-45660833D01*
X185955119Y-45613214D01*
X185907500Y-45565595D01*
X185859880Y-45470357D01*
X186764642Y-44708452D02*
X186812261Y-44660833D01*
X186859880Y-44708452D01*
X186812261Y-44756071D01*
X186764642Y-44708452D01*
X186859880Y-44708452D01*
X186859880Y-43708452D02*
X186859880Y-44279880D01*
X186859880Y-43994166D02*
X185859880Y-43994166D01*
X186002738Y-44089404D01*
X186097976Y-44184642D01*
X186145595Y-44279880D01*
X186193214Y-42851309D02*
X186859880Y-42851309D01*
X186193214Y-43279880D02*
X186717023Y-43279880D01*
X186812261Y-43232261D01*
X186859880Y-43137023D01*
X186859880Y-42994166D01*
X186812261Y-42898928D01*
X186764642Y-42851309D01*
X186336071Y-42041785D02*
X186336071Y-42375119D01*
X186859880Y-42375119D02*
X185859880Y-42375119D01*
X185859880Y-41898928D01*
%TO.C,C1*%
X171592261Y-30877380D02*
X171020833Y-30877380D01*
X171306547Y-30877380D02*
X171306547Y-29877380D01*
X171211309Y-30020238D01*
X171116071Y-30115476D01*
X171020833Y-30163095D01*
X172449404Y-30210714D02*
X172449404Y-30877380D01*
X172020833Y-30210714D02*
X172020833Y-30734523D01*
X172068452Y-30829761D01*
X172163690Y-30877380D01*
X172306547Y-30877380D01*
X172401785Y-30829761D01*
X172449404Y-30782142D01*
X173258928Y-30353571D02*
X172925595Y-30353571D01*
X172925595Y-30877380D02*
X172925595Y-29877380D01*
X173401785Y-29877380D01*
%TD*%
M02*
